M48
;DRILL file {KiCad 4.0.6-e0-6349~53~ubuntu16.04.1} date Wed Jun 21 16:24:49 2017
;FORMAT={-:-/ absolute / inch / decimal}
FMAT,2
INCH,TZ
T1C0.016
T2C0.040
%
G90
G05
M72
T1
X4.7126Y-4.0984
X4.748Y-4.3937
X4.7795Y-4.4724
X4.7874Y-3.937
X4.8189Y-4.1457
X4.8268Y-4.0118
X4.8425Y-4.2244
X4.8622Y-4.0354
X4.8976Y-4.3386
X4.9646Y-4.1772
X5.Y-4.29
X5.0315Y-4.1535
X5.0472Y-4.2992
X5.095Y-4.7
X5.1181Y-4.2835
X5.122Y-4.7244
X5.1654Y-4.1142
X5.17Y-4.605
X5.2205Y-4.7835
X5.235Y-4.46
X5.24Y-4.655
X5.2677Y-4.6929
T2
X4.6559Y-3.8457
X4.6559Y-3.9457
X4.6559Y-4.0457
X4.6559Y-4.1457
X4.6559Y-4.2457
X4.6559Y-4.3457
X4.6559Y-4.4457
X4.6559Y-4.5457
X4.6559Y-4.6457
X4.6559Y-4.7457
X4.7602Y-3.772
X4.8602Y-3.772
X4.9602Y-3.772
X5.0602Y-3.772
X5.1602Y-3.772
X5.2602Y-3.772
X5.3567Y-3.8496
X5.3567Y-3.9496
X5.3567Y-4.0496
X5.3567Y-4.1496
X5.3567Y-4.2496
X5.3567Y-4.3496
X5.3567Y-4.4496
X5.3567Y-4.5496
X5.3567Y-4.6496
X5.3567Y-4.7496
T0
M30
