G04 #@! TF.FileFunction,Copper,L1,Top,Signal*
%FSLAX46Y46*%
G04 Gerber Fmt 4.6, Leading zero omitted, Abs format (unit mm)*
G04 Created by KiCad (PCBNEW 4.0.6-e0-6349~53~ubuntu16.04.1) date Wed Jun 21 16:24:44 2017*
%MOMM*%
%LPD*%
G01*
G04 APERTURE LIST*
%ADD10C,0.100000*%
%ADD11C,0.150000*%
%ADD12C,0.300000*%
%ADD13C,0.400000*%
%ADD14R,0.750000X0.800000*%
%ADD15R,0.899160X0.698500*%
%ADD16R,0.698500X0.899160*%
%ADD17R,0.800000X0.800000*%
%ADD18C,1.879600*%
%ADD19R,0.500000X0.900000*%
%ADD20R,1.600000X0.760000*%
%ADD21R,1.270000X0.558800*%
%ADD22R,0.558800X1.270000*%
%ADD23R,1.060000X0.650000*%
%ADD24R,1.699260X0.698500*%
%ADD25C,0.600000*%
%ADD26C,0.250000*%
%ADD27C,0.254000*%
G04 APERTURE END LIST*
D10*
D11*
X177002200Y-166007200D02*
X177002200Y-198007200D01*
X285002200Y-198007200D01*
X285002200Y-166007200D01*
X177002200Y-166007200D01*
D10*
D11*
X10000000Y-10000000D02*
X10000000Y-200007200D01*
X287002200Y-200007200D01*
X287002200Y-10000000D01*
X10000000Y-10000000D01*
D10*
D11*
X12000000Y-12000000D02*
X12000000Y-198007200D01*
X285002200Y-198007200D01*
X285002200Y-12000000D01*
X12000000Y-12000000D01*
D10*
D11*
X60000000Y-12000000D02*
X60000000Y-10000000D01*
D10*
D11*
X110000000Y-12000000D02*
X110000000Y-10000000D01*
D10*
D11*
X160000000Y-12000000D02*
X160000000Y-10000000D01*
D10*
D11*
X210000000Y-12000000D02*
X210000000Y-10000000D01*
D10*
D11*
X260000000Y-12000000D02*
X260000000Y-10000000D01*
D10*
D11*
X35990476Y-11588095D02*
X35247619Y-11588095D01*
X35619048Y-11588095D02*
X35619048Y-10288095D01*
X35495238Y-10473810D01*
X35371429Y-10597619D01*
X35247619Y-10659524D01*
D10*
D11*
X85247619Y-10411905D02*
X85309524Y-10350000D01*
X85433333Y-10288095D01*
X85742857Y-10288095D01*
X85866667Y-10350000D01*
X85928571Y-10411905D01*
X85990476Y-10535714D01*
X85990476Y-10659524D01*
X85928571Y-10845238D01*
X85185714Y-11588095D01*
X85990476Y-11588095D01*
D10*
D11*
X135185714Y-10288095D02*
X135990476Y-10288095D01*
X135557143Y-10783333D01*
X135742857Y-10783333D01*
X135866667Y-10845238D01*
X135928571Y-10907143D01*
X135990476Y-11030952D01*
X135990476Y-11340476D01*
X135928571Y-11464286D01*
X135866667Y-11526190D01*
X135742857Y-11588095D01*
X135371429Y-11588095D01*
X135247619Y-11526190D01*
X135185714Y-11464286D01*
D10*
D11*
X185866667Y-10721429D02*
X185866667Y-11588095D01*
X185557143Y-10226190D02*
X185247619Y-11154762D01*
X186052381Y-11154762D01*
D10*
D11*
X235928571Y-10288095D02*
X235309524Y-10288095D01*
X235247619Y-10907143D01*
X235309524Y-10845238D01*
X235433333Y-10783333D01*
X235742857Y-10783333D01*
X235866667Y-10845238D01*
X235928571Y-10907143D01*
X235990476Y-11030952D01*
X235990476Y-11340476D01*
X235928571Y-11464286D01*
X235866667Y-11526190D01*
X235742857Y-11588095D01*
X235433333Y-11588095D01*
X235309524Y-11526190D01*
X235247619Y-11464286D01*
D10*
D11*
X285866667Y-10288095D02*
X285619048Y-10288095D01*
X285495238Y-10350000D01*
X285433333Y-10411905D01*
X285309524Y-10597619D01*
X285247619Y-10845238D01*
X285247619Y-11340476D01*
X285309524Y-11464286D01*
X285371429Y-11526190D01*
X285495238Y-11588095D01*
X285742857Y-11588095D01*
X285866667Y-11526190D01*
X285928571Y-11464286D01*
X285990476Y-11340476D01*
X285990476Y-11030952D01*
X285928571Y-10907143D01*
X285866667Y-10845238D01*
X285742857Y-10783333D01*
X285495238Y-10783333D01*
X285371429Y-10845238D01*
X285309524Y-10907143D01*
X285247619Y-11030952D01*
D10*
D11*
X60000000Y-198007200D02*
X60000000Y-200007200D01*
D10*
D11*
X110000000Y-198007200D02*
X110000000Y-200007200D01*
D10*
D11*
X160000000Y-198007200D02*
X160000000Y-200007200D01*
D10*
D11*
X210000000Y-198007200D02*
X210000000Y-200007200D01*
D10*
D11*
X260000000Y-198007200D02*
X260000000Y-200007200D01*
D10*
D11*
X35990476Y-199595295D02*
X35247619Y-199595295D01*
X35619048Y-199595295D02*
X35619048Y-198295295D01*
X35495238Y-198481010D01*
X35371429Y-198604819D01*
X35247619Y-198666724D01*
D10*
D11*
X85247619Y-198419105D02*
X85309524Y-198357200D01*
X85433333Y-198295295D01*
X85742857Y-198295295D01*
X85866667Y-198357200D01*
X85928571Y-198419105D01*
X85990476Y-198542914D01*
X85990476Y-198666724D01*
X85928571Y-198852438D01*
X85185714Y-199595295D01*
X85990476Y-199595295D01*
D10*
D11*
X135185714Y-198295295D02*
X135990476Y-198295295D01*
X135557143Y-198790533D01*
X135742857Y-198790533D01*
X135866667Y-198852438D01*
X135928571Y-198914343D01*
X135990476Y-199038152D01*
X135990476Y-199347676D01*
X135928571Y-199471486D01*
X135866667Y-199533390D01*
X135742857Y-199595295D01*
X135371429Y-199595295D01*
X135247619Y-199533390D01*
X135185714Y-199471486D01*
D10*
D11*
X185866667Y-198728629D02*
X185866667Y-199595295D01*
X185557143Y-198233390D02*
X185247619Y-199161962D01*
X186052381Y-199161962D01*
D10*
D11*
X235928571Y-198295295D02*
X235309524Y-198295295D01*
X235247619Y-198914343D01*
X235309524Y-198852438D01*
X235433333Y-198790533D01*
X235742857Y-198790533D01*
X235866667Y-198852438D01*
X235928571Y-198914343D01*
X235990476Y-199038152D01*
X235990476Y-199347676D01*
X235928571Y-199471486D01*
X235866667Y-199533390D01*
X235742857Y-199595295D01*
X235433333Y-199595295D01*
X235309524Y-199533390D01*
X235247619Y-199471486D01*
D10*
D11*
X285866667Y-198295295D02*
X285619048Y-198295295D01*
X285495238Y-198357200D01*
X285433333Y-198419105D01*
X285309524Y-198604819D01*
X285247619Y-198852438D01*
X285247619Y-199347676D01*
X285309524Y-199471486D01*
X285371429Y-199533390D01*
X285495238Y-199595295D01*
X285742857Y-199595295D01*
X285866667Y-199533390D01*
X285928571Y-199471486D01*
X285990476Y-199347676D01*
X285990476Y-199038152D01*
X285928571Y-198914343D01*
X285866667Y-198852438D01*
X285742857Y-198790533D01*
X285495238Y-198790533D01*
X285371429Y-198852438D01*
X285309524Y-198914343D01*
X285247619Y-199038152D01*
D10*
D11*
X10000000Y-60000000D02*
X12000000Y-60000000D01*
D10*
D11*
X10000000Y-110000000D02*
X12000000Y-110000000D01*
D10*
D11*
X10000000Y-160000000D02*
X12000000Y-160000000D01*
D10*
D11*
X10690476Y-35216667D02*
X11309524Y-35216667D01*
X10566667Y-35588095D02*
X11000000Y-34288095D01*
X11433333Y-35588095D01*
D10*
D11*
X11092857Y-84907143D02*
X11278571Y-84969048D01*
X11340476Y-85030952D01*
X11402381Y-85154762D01*
X11402381Y-85340476D01*
X11340476Y-85464286D01*
X11278571Y-85526190D01*
X11154762Y-85588095D01*
X10659524Y-85588095D01*
X10659524Y-84288095D01*
X11092857Y-84288095D01*
X11216667Y-84350000D01*
X11278571Y-84411905D01*
X11340476Y-84535714D01*
X11340476Y-84659524D01*
X11278571Y-84783333D01*
X11216667Y-84845238D01*
X11092857Y-84907143D01*
X10659524Y-84907143D01*
D10*
D11*
X11402381Y-135464286D02*
X11340476Y-135526190D01*
X11154762Y-135588095D01*
X11030952Y-135588095D01*
X10845238Y-135526190D01*
X10721429Y-135402381D01*
X10659524Y-135278571D01*
X10597619Y-135030952D01*
X10597619Y-134845238D01*
X10659524Y-134597619D01*
X10721429Y-134473810D01*
X10845238Y-134350000D01*
X11030952Y-134288095D01*
X11154762Y-134288095D01*
X11340476Y-134350000D01*
X11402381Y-134411905D01*
D10*
D11*
X10659524Y-185588095D02*
X10659524Y-184288095D01*
X10969048Y-184288095D01*
X11154762Y-184350000D01*
X11278571Y-184473810D01*
X11340476Y-184597619D01*
X11402381Y-184845238D01*
X11402381Y-185030952D01*
X11340476Y-185278571D01*
X11278571Y-185402381D01*
X11154762Y-185526190D01*
X10969048Y-185588095D01*
X10659524Y-185588095D01*
D10*
D11*
X287002200Y-60000000D02*
X285002200Y-60000000D01*
D10*
D11*
X287002200Y-110000000D02*
X285002200Y-110000000D01*
D10*
D11*
X287002200Y-160000000D02*
X285002200Y-160000000D01*
D10*
D11*
X285692676Y-35216667D02*
X286311724Y-35216667D01*
X285568867Y-35588095D02*
X286002200Y-34288095D01*
X286435533Y-35588095D01*
D10*
D11*
X286095057Y-84907143D02*
X286280771Y-84969048D01*
X286342676Y-85030952D01*
X286404581Y-85154762D01*
X286404581Y-85340476D01*
X286342676Y-85464286D01*
X286280771Y-85526190D01*
X286156962Y-85588095D01*
X285661724Y-85588095D01*
X285661724Y-84288095D01*
X286095057Y-84288095D01*
X286218867Y-84350000D01*
X286280771Y-84411905D01*
X286342676Y-84535714D01*
X286342676Y-84659524D01*
X286280771Y-84783333D01*
X286218867Y-84845238D01*
X286095057Y-84907143D01*
X285661724Y-84907143D01*
D10*
D11*
X286404581Y-135464286D02*
X286342676Y-135526190D01*
X286156962Y-135588095D01*
X286033152Y-135588095D01*
X285847438Y-135526190D01*
X285723629Y-135402381D01*
X285661724Y-135278571D01*
X285599819Y-135030952D01*
X285599819Y-134845238D01*
X285661724Y-134597619D01*
X285723629Y-134473810D01*
X285847438Y-134350000D01*
X286033152Y-134288095D01*
X286156962Y-134288095D01*
X286342676Y-134350000D01*
X286404581Y-134411905D01*
D10*
D11*
X285661724Y-185588095D02*
X285661724Y-184288095D01*
X285971248Y-184288095D01*
X286156962Y-184350000D01*
X286280771Y-184473810D01*
X286342676Y-184597619D01*
X286404581Y-184845238D01*
X286404581Y-185030952D01*
X286342676Y-185278571D01*
X286280771Y-185402381D01*
X286156962Y-185526190D01*
X285971248Y-185588095D01*
X285661724Y-185588095D01*
D10*
D11*
X200359343Y-193785771D02*
X200359343Y-192285771D01*
X200716486Y-192285771D01*
X200930771Y-192357200D01*
X201073629Y-192500057D01*
X201145057Y-192642914D01*
X201216486Y-192928629D01*
X201216486Y-193142914D01*
X201145057Y-193428629D01*
X201073629Y-193571486D01*
X200930771Y-193714343D01*
X200716486Y-193785771D01*
X200359343Y-193785771D01*
X202502200Y-193785771D02*
X202502200Y-193000057D01*
X202430771Y-192857200D01*
X202287914Y-192785771D01*
X202002200Y-192785771D01*
X201859343Y-192857200D01*
X202502200Y-193714343D02*
X202359343Y-193785771D01*
X202002200Y-193785771D01*
X201859343Y-193714343D01*
X201787914Y-193571486D01*
X201787914Y-193428629D01*
X201859343Y-193285771D01*
X202002200Y-193214343D01*
X202359343Y-193214343D01*
X202502200Y-193142914D01*
X203002200Y-192785771D02*
X203573629Y-192785771D01*
X203216486Y-192285771D02*
X203216486Y-193571486D01*
X203287914Y-193714343D01*
X203430772Y-193785771D01*
X203573629Y-193785771D01*
X204645057Y-193714343D02*
X204502200Y-193785771D01*
X204216486Y-193785771D01*
X204073629Y-193714343D01*
X204002200Y-193571486D01*
X204002200Y-193000057D01*
X204073629Y-192857200D01*
X204216486Y-192785771D01*
X204502200Y-192785771D01*
X204645057Y-192857200D01*
X204716486Y-193000057D01*
X204716486Y-193142914D01*
X204002200Y-193285771D01*
X205359343Y-193642914D02*
X205430771Y-193714343D01*
X205359343Y-193785771D01*
X205287914Y-193714343D01*
X205359343Y-193642914D01*
X205359343Y-193785771D01*
X205359343Y-192857200D02*
X205430771Y-192928629D01*
X205359343Y-193000057D01*
X205287914Y-192928629D01*
X205359343Y-192857200D01*
X205359343Y-193000057D01*
D10*
D11*
X177002200Y-194507200D02*
X285002200Y-194507200D01*
D10*
D11*
X178359343Y-196585771D02*
X178359343Y-195085771D01*
X179216486Y-196585771D02*
X178573629Y-195728629D01*
X179216486Y-195085771D02*
X178359343Y-195942914D01*
X179859343Y-196585771D02*
X179859343Y-195585771D01*
X179859343Y-195085771D02*
X179787914Y-195157200D01*
X179859343Y-195228629D01*
X179930771Y-195157200D01*
X179859343Y-195085771D01*
X179859343Y-195228629D01*
X181430772Y-196442914D02*
X181359343Y-196514343D01*
X181145057Y-196585771D01*
X181002200Y-196585771D01*
X180787915Y-196514343D01*
X180645057Y-196371486D01*
X180573629Y-196228629D01*
X180502200Y-195942914D01*
X180502200Y-195728629D01*
X180573629Y-195442914D01*
X180645057Y-195300057D01*
X180787915Y-195157200D01*
X181002200Y-195085771D01*
X181145057Y-195085771D01*
X181359343Y-195157200D01*
X181430772Y-195228629D01*
X182716486Y-196585771D02*
X182716486Y-195800057D01*
X182645057Y-195657200D01*
X182502200Y-195585771D01*
X182216486Y-195585771D01*
X182073629Y-195657200D01*
X182716486Y-196514343D02*
X182573629Y-196585771D01*
X182216486Y-196585771D01*
X182073629Y-196514343D01*
X182002200Y-196371486D01*
X182002200Y-196228629D01*
X182073629Y-196085771D01*
X182216486Y-196014343D01*
X182573629Y-196014343D01*
X182716486Y-195942914D01*
X184073629Y-196585771D02*
X184073629Y-195085771D01*
X184073629Y-196514343D02*
X183930772Y-196585771D01*
X183645058Y-196585771D01*
X183502200Y-196514343D01*
X183430772Y-196442914D01*
X183359343Y-196300057D01*
X183359343Y-195871486D01*
X183430772Y-195728629D01*
X183502200Y-195657200D01*
X183645058Y-195585771D01*
X183930772Y-195585771D01*
X184073629Y-195657200D01*
X185930772Y-195800057D02*
X186430772Y-195800057D01*
X186645058Y-196585771D02*
X185930772Y-196585771D01*
X185930772Y-195085771D01*
X186645058Y-195085771D01*
X187287915Y-196442914D02*
X187359343Y-196514343D01*
X187287915Y-196585771D01*
X187216486Y-196514343D01*
X187287915Y-196442914D01*
X187287915Y-196585771D01*
X188002201Y-196585771D02*
X188002201Y-195085771D01*
X188359344Y-195085771D01*
X188573629Y-195157200D01*
X188716487Y-195300057D01*
X188787915Y-195442914D01*
X188859344Y-195728629D01*
X188859344Y-195942914D01*
X188787915Y-196228629D01*
X188716487Y-196371486D01*
X188573629Y-196514343D01*
X188359344Y-196585771D01*
X188002201Y-196585771D01*
X189502201Y-196442914D02*
X189573629Y-196514343D01*
X189502201Y-196585771D01*
X189430772Y-196514343D01*
X189502201Y-196442914D01*
X189502201Y-196585771D01*
X190145058Y-196157200D02*
X190859344Y-196157200D01*
X190002201Y-196585771D02*
X190502201Y-195085771D01*
X191002201Y-196585771D01*
X191502201Y-196442914D02*
X191573629Y-196514343D01*
X191502201Y-196585771D01*
X191430772Y-196514343D01*
X191502201Y-196442914D01*
X191502201Y-196585771D01*
X194502201Y-196585771D02*
X194502201Y-195085771D01*
X194645058Y-196014343D02*
X195073629Y-196585771D01*
X195073629Y-195585771D02*
X194502201Y-196157200D01*
X195716487Y-196585771D02*
X195716487Y-195585771D01*
X195716487Y-195085771D02*
X195645058Y-195157200D01*
X195716487Y-195228629D01*
X195787915Y-195157200D01*
X195716487Y-195085771D01*
X195716487Y-195228629D01*
X197073630Y-196514343D02*
X196930773Y-196585771D01*
X196645059Y-196585771D01*
X196502201Y-196514343D01*
X196430773Y-196442914D01*
X196359344Y-196300057D01*
X196359344Y-195871486D01*
X196430773Y-195728629D01*
X196502201Y-195657200D01*
X196645059Y-195585771D01*
X196930773Y-195585771D01*
X197073630Y-195657200D01*
X198359344Y-196585771D02*
X198359344Y-195800057D01*
X198287915Y-195657200D01*
X198145058Y-195585771D01*
X197859344Y-195585771D01*
X197716487Y-195657200D01*
X198359344Y-196514343D02*
X198216487Y-196585771D01*
X197859344Y-196585771D01*
X197716487Y-196514343D01*
X197645058Y-196371486D01*
X197645058Y-196228629D01*
X197716487Y-196085771D01*
X197859344Y-196014343D01*
X198216487Y-196014343D01*
X198359344Y-195942914D01*
X199716487Y-196585771D02*
X199716487Y-195085771D01*
X199716487Y-196514343D02*
X199573630Y-196585771D01*
X199287916Y-196585771D01*
X199145058Y-196514343D01*
X199073630Y-196442914D01*
X199002201Y-196300057D01*
X199002201Y-195871486D01*
X199073630Y-195728629D01*
X199145058Y-195657200D01*
X199287916Y-195585771D01*
X199573630Y-195585771D01*
X199716487Y-195657200D01*
X202216487Y-195585771D02*
X202216487Y-196585771D01*
X201859344Y-195014343D02*
X201502201Y-196085771D01*
X202430773Y-196085771D01*
X203002201Y-196442914D02*
X203073629Y-196514343D01*
X203002201Y-196585771D01*
X202930772Y-196514343D01*
X203002201Y-196442914D01*
X203002201Y-196585771D01*
X204002201Y-195085771D02*
X204145058Y-195085771D01*
X204287915Y-195157200D01*
X204359344Y-195228629D01*
X204430773Y-195371486D01*
X204502201Y-195657200D01*
X204502201Y-196014343D01*
X204430773Y-196300057D01*
X204359344Y-196442914D01*
X204287915Y-196514343D01*
X204145058Y-196585771D01*
X204002201Y-196585771D01*
X203859344Y-196514343D01*
X203787915Y-196442914D01*
X203716487Y-196300057D01*
X203645058Y-196014343D01*
X203645058Y-195657200D01*
X203716487Y-195371486D01*
X203787915Y-195228629D01*
X203859344Y-195157200D01*
X204002201Y-195085771D01*
X205145058Y-196442914D02*
X205216486Y-196514343D01*
X205145058Y-196585771D01*
X205073629Y-196514343D01*
X205145058Y-196442914D01*
X205145058Y-196585771D01*
X206502201Y-195085771D02*
X206216487Y-195085771D01*
X206073630Y-195157200D01*
X206002201Y-195228629D01*
X205859344Y-195442914D01*
X205787915Y-195728629D01*
X205787915Y-196300057D01*
X205859344Y-196442914D01*
X205930772Y-196514343D01*
X206073630Y-196585771D01*
X206359344Y-196585771D01*
X206502201Y-196514343D01*
X206573630Y-196442914D01*
X206645058Y-196300057D01*
X206645058Y-195942914D01*
X206573630Y-195800057D01*
X206502201Y-195728629D01*
X206359344Y-195657200D01*
X206073630Y-195657200D01*
X205930772Y-195728629D01*
X205859344Y-195800057D01*
X205787915Y-195942914D01*
X207287915Y-196014343D02*
X208430772Y-196014343D01*
X209716486Y-196514343D02*
X209573629Y-196585771D01*
X209287915Y-196585771D01*
X209145058Y-196514343D01*
X209073629Y-196371486D01*
X209073629Y-195800057D01*
X209145058Y-195657200D01*
X209287915Y-195585771D01*
X209573629Y-195585771D01*
X209716486Y-195657200D01*
X209787915Y-195800057D01*
X209787915Y-195942914D01*
X209073629Y-196085771D01*
X210716486Y-195085771D02*
X210859343Y-195085771D01*
X211002200Y-195157200D01*
X211073629Y-195228629D01*
X211145058Y-195371486D01*
X211216486Y-195657200D01*
X211216486Y-196014343D01*
X211145058Y-196300057D01*
X211073629Y-196442914D01*
X211002200Y-196514343D01*
X210859343Y-196585771D01*
X210716486Y-196585771D01*
X210573629Y-196514343D01*
X210502200Y-196442914D01*
X210430772Y-196300057D01*
X210359343Y-196014343D01*
X210359343Y-195657200D01*
X210430772Y-195371486D01*
X210502200Y-195228629D01*
X210573629Y-195157200D01*
X210716486Y-195085771D01*
X211859343Y-196014343D02*
X213002200Y-196014343D01*
X214359343Y-195085771D02*
X214073629Y-195085771D01*
X213930772Y-195157200D01*
X213859343Y-195228629D01*
X213716486Y-195442914D01*
X213645057Y-195728629D01*
X213645057Y-196300057D01*
X213716486Y-196442914D01*
X213787914Y-196514343D01*
X213930772Y-196585771D01*
X214216486Y-196585771D01*
X214359343Y-196514343D01*
X214430772Y-196442914D01*
X214502200Y-196300057D01*
X214502200Y-195942914D01*
X214430772Y-195800057D01*
X214359343Y-195728629D01*
X214216486Y-195657200D01*
X213930772Y-195657200D01*
X213787914Y-195728629D01*
X213716486Y-195800057D01*
X213645057Y-195942914D01*
X215002200Y-195085771D02*
X215930771Y-195085771D01*
X215430771Y-195657200D01*
X215645057Y-195657200D01*
X215787914Y-195728629D01*
X215859343Y-195800057D01*
X215930771Y-195942914D01*
X215930771Y-196300057D01*
X215859343Y-196442914D01*
X215787914Y-196514343D01*
X215645057Y-196585771D01*
X215216485Y-196585771D01*
X215073628Y-196514343D01*
X215002200Y-196442914D01*
X217216485Y-195585771D02*
X217216485Y-196585771D01*
X216859342Y-195014343D02*
X216502199Y-196085771D01*
X217430771Y-196085771D01*
X218073627Y-196585771D02*
X218359342Y-196585771D01*
X218502199Y-196514343D01*
X218573627Y-196442914D01*
X218716485Y-196228629D01*
X218787913Y-195942914D01*
X218787913Y-195371486D01*
X218716485Y-195228629D01*
X218645056Y-195157200D01*
X218502199Y-195085771D01*
X218216485Y-195085771D01*
X218073627Y-195157200D01*
X218002199Y-195228629D01*
X217930770Y-195371486D01*
X217930770Y-195728629D01*
X218002199Y-195871486D01*
X218073627Y-195942914D01*
X218216485Y-196014343D01*
X218502199Y-196014343D01*
X218645056Y-195942914D01*
X218716485Y-195871486D01*
X218787913Y-195728629D01*
X220145056Y-195085771D02*
X219430770Y-195085771D01*
X219359341Y-195800057D01*
X219430770Y-195728629D01*
X219573627Y-195657200D01*
X219930770Y-195657200D01*
X220073627Y-195728629D01*
X220145056Y-195800057D01*
X220216484Y-195942914D01*
X220216484Y-196300057D01*
X220145056Y-196442914D01*
X220073627Y-196514343D01*
X219930770Y-196585771D01*
X219573627Y-196585771D01*
X219430770Y-196514343D01*
X219359341Y-196442914D01*
X220716484Y-195085771D02*
X221645055Y-195085771D01*
X221145055Y-195657200D01*
X221359341Y-195657200D01*
X221502198Y-195728629D01*
X221573627Y-195800057D01*
X221645055Y-195942914D01*
X221645055Y-196300057D01*
X221573627Y-196442914D01*
X221502198Y-196514343D01*
X221359341Y-196585771D01*
X220930769Y-196585771D01*
X220787912Y-196514343D01*
X220716484Y-196442914D01*
X219073627Y-194827200D02*
X221930769Y-194827200D01*
X222930769Y-195585771D02*
X222930769Y-196585771D01*
X222287912Y-195585771D02*
X222287912Y-196371486D01*
X222359340Y-196514343D01*
X222502198Y-196585771D01*
X222716483Y-196585771D01*
X222859340Y-196514343D01*
X222930769Y-196442914D01*
X223645055Y-196585771D02*
X223645055Y-195085771D01*
X223645055Y-195657200D02*
X223787912Y-195585771D01*
X224073626Y-195585771D01*
X224216483Y-195657200D01*
X224287912Y-195728629D01*
X224359341Y-195871486D01*
X224359341Y-196300057D01*
X224287912Y-196442914D01*
X224216483Y-196514343D01*
X224073626Y-196585771D01*
X223787912Y-196585771D01*
X223645055Y-196514343D01*
X225645055Y-195585771D02*
X225645055Y-196585771D01*
X225002198Y-195585771D02*
X225002198Y-196371486D01*
X225073626Y-196514343D01*
X225216484Y-196585771D01*
X225430769Y-196585771D01*
X225573626Y-196514343D01*
X225645055Y-196442914D01*
X226359341Y-195585771D02*
X226359341Y-196585771D01*
X226359341Y-195728629D02*
X226430769Y-195657200D01*
X226573627Y-195585771D01*
X226787912Y-195585771D01*
X226930769Y-195657200D01*
X227002198Y-195800057D01*
X227002198Y-196585771D01*
X227502198Y-195585771D02*
X228073627Y-195585771D01*
X227716484Y-195085771D02*
X227716484Y-196371486D01*
X227787912Y-196514343D01*
X227930770Y-196585771D01*
X228073627Y-196585771D01*
X229216484Y-195585771D02*
X229216484Y-196585771D01*
X228573627Y-195585771D02*
X228573627Y-196371486D01*
X228645055Y-196514343D01*
X228787913Y-196585771D01*
X229002198Y-196585771D01*
X229145055Y-196514343D01*
X229216484Y-196442914D01*
X230716484Y-196585771D02*
X229859341Y-196585771D01*
X230287913Y-196585771D02*
X230287913Y-195085771D01*
X230145056Y-195300057D01*
X230002198Y-195442914D01*
X229859341Y-195514343D01*
X232002198Y-195085771D02*
X231716484Y-195085771D01*
X231573627Y-195157200D01*
X231502198Y-195228629D01*
X231359341Y-195442914D01*
X231287912Y-195728629D01*
X231287912Y-196300057D01*
X231359341Y-196442914D01*
X231430769Y-196514343D01*
X231573627Y-196585771D01*
X231859341Y-196585771D01*
X232002198Y-196514343D01*
X232073627Y-196442914D01*
X232145055Y-196300057D01*
X232145055Y-195942914D01*
X232073627Y-195800057D01*
X232002198Y-195728629D01*
X231859341Y-195657200D01*
X231573627Y-195657200D01*
X231430769Y-195728629D01*
X231359341Y-195800057D01*
X231287912Y-195942914D01*
X232787912Y-196442914D02*
X232859340Y-196514343D01*
X232787912Y-196585771D01*
X232716483Y-196514343D01*
X232787912Y-196442914D01*
X232787912Y-196585771D01*
X233787912Y-195085771D02*
X233930769Y-195085771D01*
X234073626Y-195157200D01*
X234145055Y-195228629D01*
X234216484Y-195371486D01*
X234287912Y-195657200D01*
X234287912Y-196014343D01*
X234216484Y-196300057D01*
X234145055Y-196442914D01*
X234073626Y-196514343D01*
X233930769Y-196585771D01*
X233787912Y-196585771D01*
X233645055Y-196514343D01*
X233573626Y-196442914D01*
X233502198Y-196300057D01*
X233430769Y-196014343D01*
X233430769Y-195657200D01*
X233502198Y-195371486D01*
X233573626Y-195228629D01*
X233645055Y-195157200D01*
X233787912Y-195085771D01*
X235573626Y-195585771D02*
X235573626Y-196585771D01*
X235216483Y-195014343D02*
X234859340Y-196085771D01*
X235787912Y-196085771D01*
X236359340Y-196442914D02*
X236430768Y-196514343D01*
X236359340Y-196585771D01*
X236287911Y-196514343D01*
X236359340Y-196442914D01*
X236359340Y-196585771D01*
X237859340Y-196585771D02*
X237002197Y-196585771D01*
X237430769Y-196585771D02*
X237430769Y-195085771D01*
X237287912Y-195300057D01*
X237145054Y-195442914D01*
X237002197Y-195514343D01*
D10*
D11*
X177002200Y-191507200D02*
X285002200Y-191507200D01*
D10*
D12*
X264216486Y-193785771D02*
X263716486Y-193071486D01*
X263359343Y-193785771D02*
X263359343Y-192285771D01*
X263930771Y-192285771D01*
X264073629Y-192357200D01*
X264145057Y-192428629D01*
X264216486Y-192571486D01*
X264216486Y-192785771D01*
X264145057Y-192928629D01*
X264073629Y-193000057D01*
X263930771Y-193071486D01*
X263359343Y-193071486D01*
X265430771Y-193714343D02*
X265287914Y-193785771D01*
X265002200Y-193785771D01*
X264859343Y-193714343D01*
X264787914Y-193571486D01*
X264787914Y-193000057D01*
X264859343Y-192857200D01*
X265002200Y-192785771D01*
X265287914Y-192785771D01*
X265430771Y-192857200D01*
X265502200Y-193000057D01*
X265502200Y-193142914D01*
X264787914Y-193285771D01*
X266002200Y-192785771D02*
X266359343Y-193785771D01*
X266716485Y-192785771D01*
X267287914Y-193642914D02*
X267359342Y-193714343D01*
X267287914Y-193785771D01*
X267216485Y-193714343D01*
X267287914Y-193642914D01*
X267287914Y-193785771D01*
X267287914Y-192857200D02*
X267359342Y-192928629D01*
X267287914Y-193000057D01*
X267216485Y-192928629D01*
X267287914Y-192857200D01*
X267287914Y-193000057D01*
D10*
D11*
X178287914Y-193714343D02*
X178502200Y-193785771D01*
X178859343Y-193785771D01*
X179002200Y-193714343D01*
X179073629Y-193642914D01*
X179145057Y-193500057D01*
X179145057Y-193357200D01*
X179073629Y-193214343D01*
X179002200Y-193142914D01*
X178859343Y-193071486D01*
X178573629Y-193000057D01*
X178430771Y-192928629D01*
X178359343Y-192857200D01*
X178287914Y-192714343D01*
X178287914Y-192571486D01*
X178359343Y-192428629D01*
X178430771Y-192357200D01*
X178573629Y-192285771D01*
X178930771Y-192285771D01*
X179145057Y-192357200D01*
X179787914Y-193785771D02*
X179787914Y-192785771D01*
X179787914Y-192285771D02*
X179716485Y-192357200D01*
X179787914Y-192428629D01*
X179859342Y-192357200D01*
X179787914Y-192285771D01*
X179787914Y-192428629D01*
X180359343Y-192785771D02*
X181145057Y-192785771D01*
X180359343Y-193785771D01*
X181145057Y-193785771D01*
X182287914Y-193714343D02*
X182145057Y-193785771D01*
X181859343Y-193785771D01*
X181716486Y-193714343D01*
X181645057Y-193571486D01*
X181645057Y-193000057D01*
X181716486Y-192857200D01*
X181859343Y-192785771D01*
X182145057Y-192785771D01*
X182287914Y-192857200D01*
X182359343Y-193000057D01*
X182359343Y-193142914D01*
X181645057Y-193285771D01*
X183002200Y-193642914D02*
X183073628Y-193714343D01*
X183002200Y-193785771D01*
X182930771Y-193714343D01*
X183002200Y-193642914D01*
X183002200Y-193785771D01*
X183002200Y-192857200D02*
X183073628Y-192928629D01*
X183002200Y-193000057D01*
X182930771Y-192928629D01*
X183002200Y-192857200D01*
X183002200Y-193000057D01*
X184787914Y-193357200D02*
X185502200Y-193357200D01*
X184645057Y-193785771D02*
X185145057Y-192285771D01*
X185645057Y-193785771D01*
X186787914Y-192785771D02*
X186787914Y-193785771D01*
X186430771Y-192214343D02*
X186073628Y-193285771D01*
X187002200Y-193285771D01*
D10*
D11*
X263359343Y-196585771D02*
X263359343Y-195085771D01*
X264716486Y-196585771D02*
X264716486Y-195085771D01*
X264716486Y-196514343D02*
X264573629Y-196585771D01*
X264287915Y-196585771D01*
X264145057Y-196514343D01*
X264073629Y-196442914D01*
X264002200Y-196300057D01*
X264002200Y-195871486D01*
X264073629Y-195728629D01*
X264145057Y-195657200D01*
X264287915Y-195585771D01*
X264573629Y-195585771D01*
X264716486Y-195657200D01*
X265430772Y-196442914D02*
X265502200Y-196514343D01*
X265430772Y-196585771D01*
X265359343Y-196514343D01*
X265430772Y-196442914D01*
X265430772Y-196585771D01*
X265430772Y-195657200D02*
X265502200Y-195728629D01*
X265430772Y-195800057D01*
X265359343Y-195728629D01*
X265430772Y-195657200D01*
X265430772Y-195800057D01*
X268073629Y-196585771D02*
X267216486Y-196585771D01*
X267645058Y-196585771D02*
X267645058Y-195085771D01*
X267502201Y-195300057D01*
X267359343Y-195442914D01*
X267216486Y-195514343D01*
X269787914Y-195014343D02*
X268502200Y-196942914D01*
X271073629Y-196585771D02*
X270216486Y-196585771D01*
X270645058Y-196585771D02*
X270645058Y-195085771D01*
X270502201Y-195300057D01*
X270359343Y-195442914D01*
X270216486Y-195514343D01*
D10*
D11*
X177002200Y-187507200D02*
X285002200Y-187507200D01*
D10*
D13*
X178454581Y-188211962D02*
X179597438Y-188211962D01*
X178776010Y-190211962D02*
X179026010Y-188211962D01*
X180014105Y-190211962D02*
X180180771Y-188878629D01*
X180264105Y-188211962D02*
X180156962Y-188307200D01*
X180240295Y-188402438D01*
X180347439Y-188307200D01*
X180264105Y-188211962D01*
X180240295Y-188402438D01*
X180847438Y-188878629D02*
X181609343Y-188878629D01*
X181216486Y-188211962D02*
X181002200Y-189926248D01*
X181073630Y-190116724D01*
X181252201Y-190211962D01*
X181442677Y-190211962D01*
X182395058Y-190211962D02*
X182216487Y-190116724D01*
X182145057Y-189926248D01*
X182359343Y-188211962D01*
X183930772Y-190116724D02*
X183728391Y-190211962D01*
X183347439Y-190211962D01*
X183168867Y-190116724D01*
X183097438Y-189926248D01*
X183192676Y-189164343D01*
X183311724Y-188973867D01*
X183514105Y-188878629D01*
X183895057Y-188878629D01*
X184073629Y-188973867D01*
X184145057Y-189164343D01*
X184121248Y-189354819D01*
X183145057Y-189545295D01*
X184895057Y-190021486D02*
X184978392Y-190116724D01*
X184871248Y-190211962D01*
X184787915Y-190116724D01*
X184895057Y-190021486D01*
X184871248Y-190211962D01*
X185026010Y-188973867D02*
X185109344Y-189069105D01*
X185002200Y-189164343D01*
X184918867Y-189069105D01*
X185026010Y-188973867D01*
X185002200Y-189164343D01*
D10*
D11*
X178859343Y-185600057D02*
X178359343Y-185600057D01*
X178359343Y-186385771D02*
X178359343Y-184885771D01*
X179073629Y-184885771D01*
X179645057Y-186385771D02*
X179645057Y-185385771D01*
X179645057Y-184885771D02*
X179573628Y-184957200D01*
X179645057Y-185028629D01*
X179716485Y-184957200D01*
X179645057Y-184885771D01*
X179645057Y-185028629D01*
X180573629Y-186385771D02*
X180430771Y-186314343D01*
X180359343Y-186171486D01*
X180359343Y-184885771D01*
X181716485Y-186314343D02*
X181573628Y-186385771D01*
X181287914Y-186385771D01*
X181145057Y-186314343D01*
X181073628Y-186171486D01*
X181073628Y-185600057D01*
X181145057Y-185457200D01*
X181287914Y-185385771D01*
X181573628Y-185385771D01*
X181716485Y-185457200D01*
X181787914Y-185600057D01*
X181787914Y-185742914D01*
X181073628Y-185885771D01*
X182430771Y-186242914D02*
X182502199Y-186314343D01*
X182430771Y-186385771D01*
X182359342Y-186314343D01*
X182430771Y-186242914D01*
X182430771Y-186385771D01*
X182430771Y-185457200D02*
X182502199Y-185528629D01*
X182430771Y-185600057D01*
X182359342Y-185528629D01*
X182430771Y-185457200D01*
X182430771Y-185600057D01*
X184216485Y-185957200D02*
X184930771Y-185957200D01*
X184073628Y-186385771D02*
X184573628Y-184885771D01*
X185073628Y-186385771D01*
X185573628Y-186385771D02*
X185573628Y-185385771D01*
X185573628Y-185671486D02*
X185645056Y-185528629D01*
X185716485Y-185457200D01*
X185859342Y-185385771D01*
X186002199Y-185385771D01*
X187145056Y-186385771D02*
X187145056Y-184885771D01*
X187145056Y-186314343D02*
X187002199Y-186385771D01*
X186716485Y-186385771D01*
X186573627Y-186314343D01*
X186502199Y-186242914D01*
X186430770Y-186100057D01*
X186430770Y-185671486D01*
X186502199Y-185528629D01*
X186573627Y-185457200D01*
X186716485Y-185385771D01*
X187002199Y-185385771D01*
X187145056Y-185457200D01*
X188502199Y-185385771D02*
X188502199Y-186385771D01*
X187859342Y-185385771D02*
X187859342Y-186171486D01*
X187930770Y-186314343D01*
X188073628Y-186385771D01*
X188287913Y-186385771D01*
X188430770Y-186314343D01*
X188502199Y-186242914D01*
X189216485Y-186385771D02*
X189216485Y-185385771D01*
X189216485Y-184885771D02*
X189145056Y-184957200D01*
X189216485Y-185028629D01*
X189287913Y-184957200D01*
X189216485Y-184885771D01*
X189216485Y-185028629D01*
X189930771Y-185385771D02*
X189930771Y-186385771D01*
X189930771Y-185528629D02*
X190002199Y-185457200D01*
X190145057Y-185385771D01*
X190359342Y-185385771D01*
X190502199Y-185457200D01*
X190573628Y-185600057D01*
X190573628Y-186385771D01*
X191502200Y-186385771D02*
X191359342Y-186314343D01*
X191287914Y-186242914D01*
X191216485Y-186100057D01*
X191216485Y-185671486D01*
X191287914Y-185528629D01*
X191359342Y-185457200D01*
X191502200Y-185385771D01*
X191716485Y-185385771D01*
X191859342Y-185457200D01*
X191930771Y-185528629D01*
X192002200Y-185671486D01*
X192002200Y-186100057D01*
X191930771Y-186242914D01*
X191859342Y-186314343D01*
X191716485Y-186385771D01*
X191502200Y-186385771D01*
X193787914Y-186385771D02*
X193787914Y-184885771D01*
X194359342Y-184885771D01*
X194502200Y-184957200D01*
X194573628Y-185028629D01*
X194645057Y-185171486D01*
X194645057Y-185385771D01*
X194573628Y-185528629D01*
X194502200Y-185600057D01*
X194359342Y-185671486D01*
X193787914Y-185671486D01*
X195287914Y-186385771D02*
X195287914Y-185385771D01*
X195287914Y-185671486D02*
X195359342Y-185528629D01*
X195430771Y-185457200D01*
X195573628Y-185385771D01*
X195716485Y-185385771D01*
X196430771Y-186385771D02*
X196287913Y-186314343D01*
X196216485Y-186242914D01*
X196145056Y-186100057D01*
X196145056Y-185671486D01*
X196216485Y-185528629D01*
X196287913Y-185457200D01*
X196430771Y-185385771D01*
X196645056Y-185385771D01*
X196787913Y-185457200D01*
X196859342Y-185528629D01*
X196930771Y-185671486D01*
X196930771Y-186100057D01*
X196859342Y-186242914D01*
X196787913Y-186314343D01*
X196645056Y-186385771D01*
X196430771Y-186385771D01*
X198716485Y-186385771D02*
X198716485Y-184885771D01*
X199216485Y-185957200D01*
X199716485Y-184885771D01*
X199716485Y-186385771D01*
X200430771Y-186385771D02*
X200430771Y-185385771D01*
X200430771Y-184885771D02*
X200359342Y-184957200D01*
X200430771Y-185028629D01*
X200502199Y-184957200D01*
X200430771Y-184885771D01*
X200430771Y-185028629D01*
X201145057Y-185385771D02*
X201145057Y-186385771D01*
X201145057Y-185528629D02*
X201216485Y-185457200D01*
X201359343Y-185385771D01*
X201573628Y-185385771D01*
X201716485Y-185457200D01*
X201787914Y-185600057D01*
X201787914Y-186385771D01*
X202502200Y-186385771D02*
X202502200Y-185385771D01*
X202502200Y-184885771D02*
X202430771Y-184957200D01*
X202502200Y-185028629D01*
X202573628Y-184957200D01*
X202502200Y-184885771D01*
X202502200Y-185028629D01*
X203216486Y-186242914D02*
X203287914Y-186314343D01*
X203216486Y-186385771D01*
X203145057Y-186314343D01*
X203216486Y-186242914D01*
X203216486Y-186385771D01*
X203930772Y-186385771D02*
X203930772Y-184885771D01*
X204073629Y-185814343D02*
X204502200Y-186385771D01*
X204502200Y-185385771D02*
X203930772Y-185957200D01*
X205145058Y-186385771D02*
X205145058Y-185385771D01*
X205145058Y-184885771D02*
X205073629Y-184957200D01*
X205145058Y-185028629D01*
X205216486Y-184957200D01*
X205145058Y-184885771D01*
X205145058Y-185028629D01*
X206502201Y-186314343D02*
X206359344Y-186385771D01*
X206073630Y-186385771D01*
X205930772Y-186314343D01*
X205859344Y-186242914D01*
X205787915Y-186100057D01*
X205787915Y-185671486D01*
X205859344Y-185528629D01*
X205930772Y-185457200D01*
X206073630Y-185385771D01*
X206359344Y-185385771D01*
X206502201Y-185457200D01*
X207787915Y-186385771D02*
X207787915Y-185600057D01*
X207716486Y-185457200D01*
X207573629Y-185385771D01*
X207287915Y-185385771D01*
X207145058Y-185457200D01*
X207787915Y-186314343D02*
X207645058Y-186385771D01*
X207287915Y-186385771D01*
X207145058Y-186314343D01*
X207073629Y-186171486D01*
X207073629Y-186028629D01*
X207145058Y-185885771D01*
X207287915Y-185814343D01*
X207645058Y-185814343D01*
X207787915Y-185742914D01*
X209145058Y-186385771D02*
X209145058Y-184885771D01*
X209145058Y-186314343D02*
X209002201Y-186385771D01*
X208716487Y-186385771D01*
X208573629Y-186314343D01*
X208502201Y-186242914D01*
X208430772Y-186100057D01*
X208430772Y-185671486D01*
X208502201Y-185528629D01*
X208573629Y-185457200D01*
X208716487Y-185385771D01*
X209002201Y-185385771D01*
X209145058Y-185457200D01*
X209502201Y-186528629D02*
X210645058Y-186528629D01*
X211002201Y-185385771D02*
X211002201Y-186885771D01*
X211002201Y-185457200D02*
X211145058Y-185385771D01*
X211430772Y-185385771D01*
X211573629Y-185457200D01*
X211645058Y-185528629D01*
X211716487Y-185671486D01*
X211716487Y-186100057D01*
X211645058Y-186242914D01*
X211573629Y-186314343D01*
X211430772Y-186385771D01*
X211145058Y-186385771D01*
X211002201Y-186314343D01*
X213002201Y-186314343D02*
X212859344Y-186385771D01*
X212573630Y-186385771D01*
X212430772Y-186314343D01*
X212359344Y-186242914D01*
X212287915Y-186100057D01*
X212287915Y-185671486D01*
X212359344Y-185528629D01*
X212430772Y-185457200D01*
X212573630Y-185385771D01*
X212859344Y-185385771D01*
X213002201Y-185457200D01*
X213645058Y-186385771D02*
X213645058Y-184885771D01*
X213645058Y-185457200D02*
X213787915Y-185385771D01*
X214073629Y-185385771D01*
X214216486Y-185457200D01*
X214287915Y-185528629D01*
X214359344Y-185671486D01*
X214359344Y-186100057D01*
X214287915Y-186242914D01*
X214216486Y-186314343D01*
X214073629Y-186385771D01*
X213787915Y-186385771D01*
X213645058Y-186314343D01*
D10*
D11*
X177002200Y-181507200D02*
X285002200Y-181507200D01*
D10*
D11*
X178287914Y-183614343D02*
X178502200Y-183685771D01*
X178859343Y-183685771D01*
X179002200Y-183614343D01*
X179073629Y-183542914D01*
X179145057Y-183400057D01*
X179145057Y-183257200D01*
X179073629Y-183114343D01*
X179002200Y-183042914D01*
X178859343Y-182971486D01*
X178573629Y-182900057D01*
X178430771Y-182828629D01*
X178359343Y-182757200D01*
X178287914Y-182614343D01*
X178287914Y-182471486D01*
X178359343Y-182328629D01*
X178430771Y-182257200D01*
X178573629Y-182185771D01*
X178930771Y-182185771D01*
X179145057Y-182257200D01*
X179787914Y-183685771D02*
X179787914Y-182185771D01*
X180430771Y-183685771D02*
X180430771Y-182900057D01*
X180359342Y-182757200D01*
X180216485Y-182685771D01*
X180002200Y-182685771D01*
X179859342Y-182757200D01*
X179787914Y-182828629D01*
X181716485Y-183614343D02*
X181573628Y-183685771D01*
X181287914Y-183685771D01*
X181145057Y-183614343D01*
X181073628Y-183471486D01*
X181073628Y-182900057D01*
X181145057Y-182757200D01*
X181287914Y-182685771D01*
X181573628Y-182685771D01*
X181716485Y-182757200D01*
X181787914Y-182900057D01*
X181787914Y-183042914D01*
X181073628Y-183185771D01*
X183002199Y-183614343D02*
X182859342Y-183685771D01*
X182573628Y-183685771D01*
X182430771Y-183614343D01*
X182359342Y-183471486D01*
X182359342Y-182900057D01*
X182430771Y-182757200D01*
X182573628Y-182685771D01*
X182859342Y-182685771D01*
X183002199Y-182757200D01*
X183073628Y-182900057D01*
X183073628Y-183042914D01*
X182359342Y-183185771D01*
X183502199Y-182685771D02*
X184073628Y-182685771D01*
X183716485Y-182185771D02*
X183716485Y-183471486D01*
X183787913Y-183614343D01*
X183930771Y-183685771D01*
X184073628Y-183685771D01*
X184573628Y-183542914D02*
X184645056Y-183614343D01*
X184573628Y-183685771D01*
X184502199Y-183614343D01*
X184573628Y-183542914D01*
X184573628Y-183685771D01*
X184573628Y-182757200D02*
X184645056Y-182828629D01*
X184573628Y-182900057D01*
X184502199Y-182828629D01*
X184573628Y-182757200D01*
X184573628Y-182900057D01*
D10*
D11*
X197002200Y-191507200D02*
X197002200Y-194507200D01*
D10*
D11*
X261002200Y-191507200D02*
X261002200Y-198007200D01*
D14*
X133500000Y-98450000D03*
X133500000Y-99950000D03*
X124300000Y-98550000D03*
X124300000Y-100050000D03*
D15*
X122500000Y-98652300D03*
X122500000Y-99947700D03*
D16*
X126647700Y-101800000D03*
X125352300Y-101800000D03*
D14*
X131300000Y-121550000D03*
X131300000Y-120050000D03*
X133700000Y-112250000D03*
X133700000Y-110750000D03*
D17*
X129300000Y-101900000D03*
X130900000Y-101900000D03*
D18*
X118260000Y-97680000D03*
X118260000Y-100220000D03*
X118260000Y-102760000D03*
X118260000Y-105300000D03*
X118260000Y-107840000D03*
X118260000Y-110380000D03*
X118260000Y-112920000D03*
X118260000Y-115460000D03*
X118260000Y-118000000D03*
X118260000Y-120540000D03*
X136060000Y-97780000D03*
X136060000Y-100320000D03*
X136060000Y-102860000D03*
X136060000Y-105400000D03*
X136060000Y-107940000D03*
X136060000Y-110480000D03*
X136060000Y-113020000D03*
X136060000Y-115560000D03*
X136060000Y-118100000D03*
X136060000Y-120640000D03*
X120910000Y-95810000D03*
X123450000Y-95810000D03*
X125990000Y-95810000D03*
X128530000Y-95810000D03*
X131070000Y-95810000D03*
X133610000Y-95810000D03*
D16*
X129847700Y-103200000D03*
X128552300Y-103200000D03*
D19*
X132250000Y-116800000D03*
X133750000Y-116800000D03*
X128650000Y-104700000D03*
X130150000Y-104700000D03*
X126850000Y-104700000D03*
X125350000Y-104700000D03*
D20*
X123660000Y-120700000D03*
X128740000Y-120700000D03*
D21*
X123107400Y-108600920D03*
X123107400Y-109401020D03*
X123107400Y-110201120D03*
X123107400Y-111001220D03*
X123107400Y-111798780D03*
X123107400Y-112598880D03*
X123107400Y-113398980D03*
X123107400Y-114199080D03*
D22*
X124600920Y-115692600D03*
X125401020Y-115692600D03*
X126201120Y-115692600D03*
X127001220Y-115692600D03*
X127798780Y-115692600D03*
X128598880Y-115692600D03*
X129398980Y-115692600D03*
X130199080Y-115692600D03*
D21*
X131690060Y-114199080D03*
X131690060Y-113398980D03*
X131690060Y-112598880D03*
X131690060Y-111798780D03*
X131690060Y-111001220D03*
X131690060Y-110201120D03*
X131690060Y-109401020D03*
X131690060Y-108600920D03*
D22*
X130199080Y-107109940D03*
X129398980Y-107109940D03*
X128598880Y-107109940D03*
X127798780Y-107109940D03*
X127001220Y-107109940D03*
X126201120Y-107109940D03*
X125401020Y-107109940D03*
X124600920Y-107109940D03*
D23*
X131300000Y-100250000D03*
X131300000Y-99300000D03*
X131300000Y-98350000D03*
X129100000Y-98350000D03*
X129100000Y-100250000D03*
D24*
X121100000Y-104201120D03*
X121100000Y-105400000D03*
X121100000Y-106598880D03*
D25*
X122600000Y-101900000D03*
X121600000Y-100000000D03*
X124400000Y-110200000D03*
X122400000Y-105300000D03*
X128200000Y-109200000D03*
X127800000Y-105500000D03*
X131318000Y-116967000D03*
X132969000Y-113284000D03*
X132600000Y-121500000D03*
X129413000Y-119380000D03*
X127000000Y-108966000D03*
X133800000Y-119200000D03*
X130100000Y-120000000D03*
X133096000Y-118237000D03*
X123500000Y-102500000D03*
X126100000Y-106100000D03*
X131200000Y-104500000D03*
X130000000Y-108800000D03*
X120600000Y-111600000D03*
X119700000Y-104100000D03*
X123000000Y-107300000D03*
X121400000Y-113600000D03*
D26*
X131300000Y-100250000D02*
X132150000Y-100250000D01*
X132500000Y-99900000D02*
X132500000Y-98350000D01*
X132150000Y-100250000D02*
X132500000Y-99900000D01*
X131300000Y-98350000D02*
X132500000Y-98350000D01*
X132500000Y-98350000D02*
X133400000Y-98350000D01*
X133400000Y-98350000D02*
X133500000Y-98450000D01*
X136060000Y-97780000D02*
X134170000Y-97780000D01*
X134170000Y-97780000D02*
X133500000Y-98450000D01*
X122500000Y-99947700D02*
X121652300Y-99947700D01*
X120140000Y-102100000D02*
X118260000Y-100220000D01*
X122400000Y-102100000D02*
X120140000Y-102100000D01*
X122600000Y-101900000D02*
X122400000Y-102100000D01*
X121652300Y-99947700D02*
X121600000Y-100000000D01*
X131690060Y-111001220D02*
X133448780Y-111001220D01*
X133448780Y-111001220D02*
X133700000Y-110750000D01*
X121100000Y-105400000D02*
X122400000Y-105300000D01*
X124398880Y-110201120D02*
X123107400Y-110201120D01*
X124400000Y-110200000D02*
X124398880Y-110201120D01*
X125352300Y-101800000D02*
X125352300Y-102852300D01*
X125500000Y-103000000D02*
X128552300Y-103200000D01*
X125352300Y-102852300D02*
X125500000Y-103000000D01*
X124300000Y-100050000D02*
X124300000Y-100747700D01*
X124300000Y-100747700D02*
X125352300Y-101800000D01*
X133610000Y-95810000D02*
X131070000Y-95810000D01*
X135790000Y-100050000D02*
X136060000Y-100320000D01*
X120142000Y-100584000D02*
X120142000Y-98652300D01*
X120650000Y-101092000D02*
X120142000Y-100584000D01*
X123444000Y-101092000D02*
X120650000Y-101092000D01*
X126850000Y-104700000D02*
X127000000Y-104700000D01*
X127000000Y-104700000D02*
X127800000Y-105500000D01*
X126398780Y-111001220D02*
X123107400Y-111001220D01*
X128200000Y-109200000D02*
X126398780Y-111001220D01*
X126850000Y-104700000D02*
X127150000Y-103701951D01*
X124206000Y-101854000D02*
X123444000Y-101092000D01*
X124206000Y-102616000D02*
X124206000Y-101854000D01*
X125222000Y-103632000D02*
X124206000Y-102616000D01*
X127080049Y-103632000D02*
X125222000Y-103632000D01*
X127150000Y-103701951D02*
X127080049Y-103632000D01*
X131690060Y-113398980D02*
X132956980Y-113398980D01*
X131485000Y-116800000D02*
X132250000Y-116800000D01*
X131318000Y-116967000D02*
X131485000Y-116800000D01*
X132969000Y-113386960D02*
X132969000Y-113284000D01*
X132956980Y-113398980D02*
X132969000Y-113386960D01*
X128650000Y-104700000D02*
X126850000Y-104700000D01*
X118260000Y-97680000D02*
X118380000Y-97680000D01*
X118380000Y-97680000D02*
X119352300Y-98652300D01*
X119352300Y-98652300D02*
X120142000Y-98652300D01*
X120142000Y-98652300D02*
X122500000Y-98652300D01*
X123107400Y-112598880D02*
X129198880Y-112598880D01*
X129998980Y-113398980D02*
X131690060Y-113398980D01*
X129198880Y-112598880D02*
X129998980Y-113398980D01*
X128530000Y-95810000D02*
X128530000Y-97070000D01*
X127600000Y-98750000D02*
X129100000Y-100250000D01*
X127600000Y-98000000D02*
X127600000Y-98750000D01*
X128530000Y-97070000D02*
X127600000Y-98000000D01*
X126647700Y-101800000D02*
X127900000Y-101800000D01*
X127900000Y-101800000D02*
X128000000Y-101900000D01*
X129100000Y-100250000D02*
X128650000Y-100250000D01*
X128650000Y-100250000D02*
X127900000Y-101000000D01*
X127900000Y-101000000D02*
X127900000Y-101800000D01*
X127900000Y-101800000D02*
X128000000Y-101900000D01*
X128000000Y-101900000D02*
X129300000Y-101900000D01*
X124300000Y-98550000D02*
X125450000Y-98550000D01*
X126647700Y-99747700D02*
X126647700Y-101800000D01*
X125450000Y-98550000D02*
X126647700Y-99747700D01*
X124300000Y-98550000D02*
X122602300Y-98550000D01*
X132550000Y-121550000D02*
X131300000Y-121550000D01*
X132600000Y-121500000D02*
X132550000Y-121550000D01*
X130450000Y-121550000D02*
X131300000Y-121550000D01*
X129600000Y-120700000D02*
X130450000Y-121550000D01*
X127001220Y-107109940D02*
X127001220Y-108964780D01*
X128740000Y-120053000D02*
X128740000Y-120700000D01*
X129413000Y-119380000D02*
X128740000Y-120053000D01*
X127001220Y-108964780D02*
X127000000Y-108966000D01*
X133750000Y-116800000D02*
X133750000Y-119350000D01*
X133800000Y-119300000D02*
X133800000Y-119200000D01*
X133750000Y-119350000D02*
X133800000Y-119300000D01*
X128740000Y-120700000D02*
X129600000Y-120700000D01*
X130150000Y-120050000D02*
X131300000Y-120050000D01*
X130100000Y-120000000D02*
X130150000Y-120050000D01*
X133700000Y-112250000D02*
X133150000Y-112250000D01*
X132698780Y-111798780D02*
X131690060Y-111798780D01*
X133150000Y-112250000D02*
X132698780Y-111798780D01*
X130900000Y-101900000D02*
X130900000Y-102700000D01*
X130600000Y-103000000D02*
X129847700Y-103200000D01*
X130900000Y-102700000D02*
X130600000Y-103000000D01*
X118260000Y-102760000D02*
X121423602Y-102760000D01*
X121423602Y-102760000D02*
X124300000Y-105636398D01*
X124300000Y-106809020D02*
X124600920Y-107109940D01*
X124300000Y-105636398D02*
X124300000Y-106809020D01*
X118260000Y-105300000D02*
X118260000Y-105560000D01*
X118260000Y-105560000D02*
X120400000Y-107700000D01*
X122206480Y-107700000D02*
X123107400Y-108600920D01*
X120400000Y-107700000D02*
X122206480Y-107700000D01*
X118260000Y-105300000D02*
X118260000Y-105360000D01*
X118260000Y-107840000D02*
X119840000Y-107840000D01*
X121401020Y-109401020D02*
X123107400Y-109401020D01*
X119840000Y-107840000D02*
X121401020Y-109401020D01*
X124600920Y-115692600D02*
X121307400Y-115992600D01*
X120700000Y-112820000D02*
X118260000Y-110380000D01*
X120700000Y-115385200D02*
X120700000Y-112820000D01*
X121307400Y-115992600D02*
X120700000Y-115385200D01*
X125401020Y-115692600D02*
X125201020Y-117298980D01*
X120100000Y-114760000D02*
X118260000Y-112920000D01*
X120100000Y-116300000D02*
X120100000Y-114760000D01*
X121100000Y-117300000D02*
X120100000Y-116300000D01*
X125200000Y-117300000D02*
X121100000Y-117300000D01*
X125201020Y-117298980D02*
X125200000Y-117300000D01*
X126201120Y-115692600D02*
X126001120Y-117598880D01*
X120800000Y-118000000D02*
X118260000Y-115460000D01*
X125600000Y-118000000D02*
X120800000Y-118000000D01*
X126001120Y-117598880D02*
X125600000Y-118000000D01*
X127001220Y-115692600D02*
X126801220Y-117898780D01*
X119700000Y-118000000D02*
X118260000Y-118000000D01*
X120300000Y-118600000D02*
X119700000Y-118000000D01*
X126100000Y-118600000D02*
X120300000Y-118600000D01*
X126801220Y-117898780D02*
X126100000Y-118600000D01*
X127798780Y-115692600D02*
X127598780Y-118701220D01*
X121760000Y-120540000D02*
X118260000Y-120540000D01*
X123200000Y-119100000D02*
X121760000Y-120540000D01*
X127200000Y-119100000D02*
X123200000Y-119100000D01*
X127598780Y-118701220D02*
X127200000Y-119100000D01*
X129398980Y-107109940D02*
X129398980Y-106501020D01*
X129398980Y-106501020D02*
X130118199Y-105781801D01*
X130118199Y-105781801D02*
X131918199Y-105781801D01*
X131918199Y-105781801D02*
X134840000Y-102860000D01*
X134840000Y-102860000D02*
X136060000Y-102860000D01*
X136060000Y-105400000D02*
X133100000Y-105400000D01*
X131090060Y-107409940D02*
X130199080Y-107109940D01*
X133100000Y-105400000D02*
X131090060Y-107409940D01*
X136060000Y-107940000D02*
X132350980Y-107940000D01*
X132350980Y-107940000D02*
X131690060Y-108600920D01*
X135999080Y-108000920D02*
X136060000Y-107940000D01*
X136060000Y-110480000D02*
X135980000Y-110480000D01*
X135980000Y-110480000D02*
X134300000Y-108800000D01*
X132798980Y-109401020D02*
X131690060Y-109401020D01*
X133400000Y-108800000D02*
X132798980Y-109401020D01*
X134300000Y-108800000D02*
X133400000Y-108800000D01*
X135881020Y-110301020D02*
X136060000Y-110480000D01*
X136060000Y-113020000D02*
X135380000Y-113020000D01*
X135380000Y-113020000D02*
X133900920Y-114499080D01*
X133900920Y-114499080D02*
X131690060Y-114199080D01*
X130199080Y-115692600D02*
X135592600Y-115092600D01*
X135592600Y-115092600D02*
X136060000Y-115560000D01*
X129398980Y-115692600D02*
X129398980Y-117714980D01*
X129921000Y-118237000D02*
X133096000Y-118237000D01*
X129398980Y-117714980D02*
X129921000Y-118237000D01*
X129398980Y-115692600D02*
X129398980Y-115798980D01*
X128598880Y-115692600D02*
X128398880Y-117398880D01*
X133800000Y-120200000D02*
X135620000Y-120200000D01*
X132300000Y-118700000D02*
X133800000Y-120200000D01*
X129700000Y-118700000D02*
X132300000Y-118700000D01*
X128398880Y-117398880D02*
X129700000Y-118700000D01*
X135620000Y-120200000D02*
X136060000Y-120640000D01*
X125401020Y-106101020D02*
X125401020Y-107109940D01*
X123400000Y-104100000D02*
X125401020Y-106101020D01*
X123400000Y-102600000D02*
X123400000Y-104100000D01*
X123500000Y-102500000D02*
X123400000Y-102600000D01*
X126201120Y-107109940D02*
X126201120Y-106201120D01*
X126201120Y-106201120D02*
X126100000Y-106100000D01*
X128598880Y-107109940D02*
X128598880Y-108398880D01*
X131000000Y-104700000D02*
X130150000Y-104700000D01*
X131200000Y-104500000D02*
X131000000Y-104700000D01*
X129000000Y-108800000D02*
X130000000Y-108800000D01*
X128598880Y-108398880D02*
X129000000Y-108800000D01*
X128564331Y-106935669D02*
X128598880Y-107109940D01*
X125350000Y-104700000D02*
X125400000Y-104700000D01*
X125400000Y-104700000D02*
X127000000Y-106000000D01*
X127000000Y-106000000D02*
X127400000Y-106000000D01*
X127400000Y-106000000D02*
X127798780Y-106398780D01*
X127798780Y-106398780D02*
X127798780Y-107109940D01*
X121100000Y-104201120D02*
X119701120Y-104101120D01*
X122398980Y-113398980D02*
X123107400Y-113398980D01*
X120600000Y-111600000D02*
X122398980Y-113398980D01*
X119701120Y-104101120D02*
X119700000Y-104100000D01*
X123107400Y-114199080D02*
X121999080Y-114199080D01*
X122398880Y-106698880D02*
X121100000Y-106598880D01*
X123000000Y-107300000D02*
X122398880Y-106698880D01*
X121999080Y-114199080D02*
X121400000Y-113600000D01*
D27*
G36*
X133765111Y-89077579D02*
X139423000Y-92858060D01*
X139423000Y-123075263D01*
X137045262Y-125453000D01*
X116954737Y-125453000D01*
X114577000Y-123075262D01*
X114577000Y-110630877D01*
X116992981Y-110630877D01*
X117185433Y-111096647D01*
X117541479Y-111453314D01*
X118006912Y-111646580D01*
X118510877Y-111647019D01*
X118777591Y-111536815D01*
X120248000Y-113007224D01*
X120248000Y-114268776D01*
X119416768Y-113437544D01*
X119526580Y-113173088D01*
X119527019Y-112669123D01*
X119334567Y-112203353D01*
X118978521Y-111846686D01*
X118513088Y-111653420D01*
X118009123Y-111652981D01*
X117543353Y-111845433D01*
X117186686Y-112201479D01*
X116993420Y-112666912D01*
X116992981Y-113170877D01*
X117185433Y-113636647D01*
X117541479Y-113993314D01*
X118006912Y-114186580D01*
X118510877Y-114187019D01*
X118777591Y-114076815D01*
X119648000Y-114947224D01*
X119648000Y-116208776D01*
X119416768Y-115977543D01*
X119526580Y-115713088D01*
X119527019Y-115209123D01*
X119334567Y-114743353D01*
X118978521Y-114386686D01*
X118513088Y-114193420D01*
X118009123Y-114192981D01*
X117543353Y-114385433D01*
X117186686Y-114741479D01*
X116993420Y-115206912D01*
X116992981Y-115710877D01*
X117185433Y-116176647D01*
X117541479Y-116533314D01*
X118006912Y-116726580D01*
X118510877Y-116727019D01*
X118777591Y-116616815D01*
X119710954Y-117550179D01*
X119700000Y-117548000D01*
X119443917Y-117548000D01*
X119334567Y-117283353D01*
X118978521Y-116926686D01*
X118513088Y-116733420D01*
X118009123Y-116732981D01*
X117543353Y-116925433D01*
X117186686Y-117281479D01*
X116993420Y-117746912D01*
X116992981Y-118250877D01*
X117185433Y-118716647D01*
X117541479Y-119073314D01*
X118006912Y-119266580D01*
X118510877Y-119267019D01*
X118976647Y-119074567D01*
X119333314Y-118718521D01*
X119443984Y-118452000D01*
X119512776Y-118452000D01*
X119980388Y-118919612D01*
X120127027Y-119017594D01*
X120300000Y-119052000D01*
X122608775Y-119052000D01*
X121572776Y-120088000D01*
X119443917Y-120088000D01*
X119334567Y-119823353D01*
X118978521Y-119466686D01*
X118513088Y-119273420D01*
X118009123Y-119272981D01*
X117543353Y-119465433D01*
X117186686Y-119821479D01*
X116993420Y-120286912D01*
X116992981Y-120790877D01*
X117185433Y-121256647D01*
X117541479Y-121613314D01*
X118006912Y-121806580D01*
X118510877Y-121807019D01*
X118976647Y-121614567D01*
X119333314Y-121258521D01*
X119443984Y-120992000D01*
X121760000Y-120992000D01*
X121932973Y-120957594D01*
X122079612Y-120859612D01*
X122225000Y-120714224D01*
X122225000Y-120827002D01*
X122383748Y-120827002D01*
X122225000Y-120985750D01*
X122225000Y-121206310D01*
X122321673Y-121439699D01*
X122500302Y-121618327D01*
X122733691Y-121715000D01*
X123374250Y-121715000D01*
X123533000Y-121556250D01*
X123533000Y-120827000D01*
X123787000Y-120827000D01*
X123787000Y-121556250D01*
X123945750Y-121715000D01*
X124586309Y-121715000D01*
X124819698Y-121618327D01*
X124998327Y-121439699D01*
X125095000Y-121206310D01*
X125095000Y-120985750D01*
X124936250Y-120827000D01*
X123787000Y-120827000D01*
X123533000Y-120827000D01*
X123513000Y-120827000D01*
X123513000Y-120573000D01*
X123533000Y-120573000D01*
X123533000Y-119843750D01*
X123787000Y-119843750D01*
X123787000Y-120573000D01*
X124936250Y-120573000D01*
X125095000Y-120414250D01*
X125095000Y-120193690D01*
X124998327Y-119960301D01*
X124819698Y-119781673D01*
X124586309Y-119685000D01*
X123945750Y-119685000D01*
X123787000Y-119843750D01*
X123533000Y-119843750D01*
X123374250Y-119685000D01*
X123254225Y-119685000D01*
X123387225Y-119552000D01*
X127200000Y-119552000D01*
X127372973Y-119517594D01*
X127519612Y-119419612D01*
X127918392Y-119020832D01*
X127959203Y-118959755D01*
X128003981Y-118901511D01*
X128007929Y-118886832D01*
X128016374Y-118874193D01*
X128030705Y-118802144D01*
X128049785Y-118731201D01*
X128114747Y-117753971D01*
X129164881Y-118804105D01*
X129058297Y-118848145D01*
X128881765Y-119024369D01*
X128786109Y-119254735D01*
X128786010Y-119367766D01*
X128420388Y-119733388D01*
X128322406Y-119880027D01*
X128301209Y-119986594D01*
X127940000Y-119986594D01*
X127818821Y-120009395D01*
X127707526Y-120081012D01*
X127632862Y-120190286D01*
X127606594Y-120320000D01*
X127606594Y-121080000D01*
X127629395Y-121201179D01*
X127701012Y-121312474D01*
X127810286Y-121387138D01*
X127940000Y-121413406D01*
X129540000Y-121413406D01*
X129652932Y-121392157D01*
X130130388Y-121869613D01*
X130250696Y-121950000D01*
X130277027Y-121967594D01*
X130450000Y-122002000D01*
X130601378Y-122002000D01*
X130614395Y-122071179D01*
X130686012Y-122182474D01*
X130795286Y-122257138D01*
X130925000Y-122283406D01*
X131675000Y-122283406D01*
X131796179Y-122260605D01*
X131907474Y-122188988D01*
X131982138Y-122079714D01*
X131997876Y-122002000D01*
X132215185Y-122002000D01*
X132244369Y-122031235D01*
X132474735Y-122126891D01*
X132724171Y-122127109D01*
X132954703Y-122031855D01*
X133131235Y-121855631D01*
X133226891Y-121625265D01*
X133227109Y-121375829D01*
X133131855Y-121145297D01*
X132955631Y-120968765D01*
X132725265Y-120873109D01*
X132475829Y-120872891D01*
X132245297Y-120968145D01*
X132115215Y-121098000D01*
X131998622Y-121098000D01*
X131985605Y-121028821D01*
X131913988Y-120917526D01*
X131804714Y-120842862D01*
X131675000Y-120816594D01*
X130925000Y-120816594D01*
X130803821Y-120839395D01*
X130692526Y-120911012D01*
X130617862Y-121020286D01*
X130608035Y-121068811D01*
X130166283Y-120627058D01*
X130224171Y-120627109D01*
X130454703Y-120531855D01*
X130484610Y-120502000D01*
X130601378Y-120502000D01*
X130614395Y-120571179D01*
X130686012Y-120682474D01*
X130795286Y-120757138D01*
X130925000Y-120783406D01*
X131675000Y-120783406D01*
X131796179Y-120760605D01*
X131907474Y-120688988D01*
X131982138Y-120579714D01*
X132008406Y-120450000D01*
X132008406Y-119650000D01*
X131985605Y-119528821D01*
X131913988Y-119417526D01*
X131804714Y-119342862D01*
X131675000Y-119316594D01*
X130925000Y-119316594D01*
X130803821Y-119339395D01*
X130692526Y-119411012D01*
X130617862Y-119520286D01*
X130602124Y-119598000D01*
X130584641Y-119598000D01*
X130455631Y-119468765D01*
X130225265Y-119373109D01*
X130040007Y-119372947D01*
X130040109Y-119255829D01*
X129997208Y-119152000D01*
X132112776Y-119152000D01*
X133480387Y-120519612D01*
X133560288Y-120573000D01*
X133627027Y-120617594D01*
X133800000Y-120652000D01*
X134793189Y-120652000D01*
X134792981Y-120890877D01*
X134985433Y-121356647D01*
X135341479Y-121713314D01*
X135806912Y-121906580D01*
X136310877Y-121907019D01*
X136776647Y-121714567D01*
X137133314Y-121358521D01*
X137326580Y-120893088D01*
X137327019Y-120389123D01*
X137134567Y-119923353D01*
X136778521Y-119566686D01*
X136313088Y-119373420D01*
X135809123Y-119372981D01*
X135343353Y-119565433D01*
X135160468Y-119748000D01*
X134115629Y-119748000D01*
X134154703Y-119731855D01*
X134331235Y-119555631D01*
X134426891Y-119325265D01*
X134427109Y-119075829D01*
X134331855Y-118845297D01*
X134202000Y-118715215D01*
X134202000Y-118350877D01*
X134792981Y-118350877D01*
X134985433Y-118816647D01*
X135341479Y-119173314D01*
X135806912Y-119366580D01*
X136310877Y-119367019D01*
X136776647Y-119174567D01*
X137133314Y-118818521D01*
X137326580Y-118353088D01*
X137327019Y-117849123D01*
X137134567Y-117383353D01*
X136778521Y-117026686D01*
X136313088Y-116833420D01*
X135809123Y-116832981D01*
X135343353Y-117025433D01*
X134986686Y-117381479D01*
X134793420Y-117846912D01*
X134792981Y-118350877D01*
X134202000Y-118350877D01*
X134202000Y-117508598D01*
X134232474Y-117488988D01*
X134307138Y-117379714D01*
X134333406Y-117250000D01*
X134333406Y-116350000D01*
X134310605Y-116228821D01*
X134238988Y-116117526D01*
X134129714Y-116042862D01*
X134000000Y-116016594D01*
X133500000Y-116016594D01*
X133378821Y-116039395D01*
X133267526Y-116111012D01*
X133192862Y-116220286D01*
X133166594Y-116350000D01*
X133166594Y-117250000D01*
X133189395Y-117371179D01*
X133261012Y-117482474D01*
X133298000Y-117507747D01*
X133298000Y-117641972D01*
X133221265Y-117610109D01*
X132971829Y-117609891D01*
X132741297Y-117705145D01*
X132661302Y-117785000D01*
X130108224Y-117785000D01*
X129850980Y-117527756D01*
X129850980Y-117091171D01*
X130690891Y-117091171D01*
X130786145Y-117321703D01*
X130962369Y-117498235D01*
X131192735Y-117593891D01*
X131442171Y-117594109D01*
X131672703Y-117498855D01*
X131732891Y-117438772D01*
X131761012Y-117482474D01*
X131870286Y-117557138D01*
X132000000Y-117583406D01*
X132500000Y-117583406D01*
X132621179Y-117560605D01*
X132732474Y-117488988D01*
X132807138Y-117379714D01*
X132833406Y-117250000D01*
X132833406Y-116350000D01*
X132810605Y-116228821D01*
X132738988Y-116117526D01*
X132629714Y-116042862D01*
X132500000Y-116016594D01*
X132000000Y-116016594D01*
X131878821Y-116039395D01*
X131767526Y-116111012D01*
X131692862Y-116220286D01*
X131666999Y-116348000D01*
X131485000Y-116348000D01*
X131469631Y-116351057D01*
X131443265Y-116340109D01*
X131193829Y-116339891D01*
X130963297Y-116435145D01*
X130786765Y-116611369D01*
X130691109Y-116841735D01*
X130690891Y-117091171D01*
X129850980Y-117091171D01*
X129850980Y-116647094D01*
X129919680Y-116661006D01*
X130478480Y-116661006D01*
X130599659Y-116638205D01*
X130710954Y-116566588D01*
X130785618Y-116457314D01*
X130811886Y-116327600D01*
X130811886Y-116079217D01*
X134793133Y-115636325D01*
X134792981Y-115810877D01*
X134985433Y-116276647D01*
X135341479Y-116633314D01*
X135806912Y-116826580D01*
X136310877Y-116827019D01*
X136776647Y-116634567D01*
X137133314Y-116278521D01*
X137326580Y-115813088D01*
X137327019Y-115309123D01*
X137134567Y-114843353D01*
X136778521Y-114486686D01*
X136313088Y-114293420D01*
X135809123Y-114292981D01*
X135343353Y-114485433D01*
X135140305Y-114688127D01*
X134252313Y-114786911D01*
X135143867Y-113895357D01*
X135341479Y-114093314D01*
X135806912Y-114286580D01*
X136310877Y-114287019D01*
X136776647Y-114094567D01*
X137133314Y-113738521D01*
X137326580Y-113273088D01*
X137327019Y-112769123D01*
X137134567Y-112303353D01*
X136778521Y-111946686D01*
X136313088Y-111753420D01*
X135809123Y-111752981D01*
X135343353Y-111945433D01*
X134986686Y-112301479D01*
X134793420Y-112766912D01*
X134793245Y-112967531D01*
X133739713Y-114021063D01*
X132928340Y-113910965D01*
X133093171Y-113911109D01*
X133323703Y-113815855D01*
X133500235Y-113639631D01*
X133595891Y-113409265D01*
X133596109Y-113159829D01*
X133523212Y-112983406D01*
X134075000Y-112983406D01*
X134196179Y-112960605D01*
X134307474Y-112888988D01*
X134382138Y-112779714D01*
X134408406Y-112650000D01*
X134408406Y-111850000D01*
X134385605Y-111728821D01*
X134375363Y-111712905D01*
X134434699Y-111688327D01*
X134613327Y-111509698D01*
X134710000Y-111276309D01*
X134710000Y-111035750D01*
X134551250Y-110877000D01*
X133827000Y-110877000D01*
X133827000Y-110897000D01*
X133573000Y-110897000D01*
X133573000Y-110877000D01*
X133553000Y-110877000D01*
X133553000Y-110623000D01*
X133573000Y-110623000D01*
X133573000Y-109873750D01*
X133827000Y-109873750D01*
X133827000Y-110623000D01*
X134551250Y-110623000D01*
X134710000Y-110464250D01*
X134710000Y-110223691D01*
X134613327Y-109990302D01*
X134434699Y-109811673D01*
X134201310Y-109715000D01*
X133985750Y-109715000D01*
X133827000Y-109873750D01*
X133573000Y-109873750D01*
X133414250Y-109715000D01*
X133198690Y-109715000D01*
X133010132Y-109793103D01*
X133118592Y-109720632D01*
X133587225Y-109252000D01*
X134112776Y-109252000D01*
X134879760Y-110018984D01*
X134793420Y-110226912D01*
X134792981Y-110730877D01*
X134985433Y-111196647D01*
X135341479Y-111553314D01*
X135806912Y-111746580D01*
X136310877Y-111747019D01*
X136776647Y-111554567D01*
X137133314Y-111198521D01*
X137326580Y-110733088D01*
X137327019Y-110229123D01*
X137134567Y-109763353D01*
X136778521Y-109406686D01*
X136313088Y-109213420D01*
X135809123Y-109212981D01*
X135485799Y-109346575D01*
X134619612Y-108480388D01*
X134487331Y-108392000D01*
X134876083Y-108392000D01*
X134985433Y-108656647D01*
X135341479Y-109013314D01*
X135806912Y-109206580D01*
X136310877Y-109207019D01*
X136776647Y-109014567D01*
X137133314Y-108658521D01*
X137326580Y-108193088D01*
X137327019Y-107689123D01*
X137134567Y-107223353D01*
X136778521Y-106866686D01*
X136313088Y-106673420D01*
X135809123Y-106672981D01*
X135343353Y-106865433D01*
X134986686Y-107221479D01*
X134876016Y-107488000D01*
X132350980Y-107488000D01*
X132178007Y-107522406D01*
X132031368Y-107620388D01*
X131663642Y-107988114D01*
X131055060Y-107988114D01*
X130933881Y-108010915D01*
X130822586Y-108082532D01*
X130747922Y-108191806D01*
X130721654Y-108321520D01*
X130721654Y-108880320D01*
X130744455Y-109001499D01*
X130745614Y-109003301D01*
X130721654Y-109121620D01*
X130721654Y-109680420D01*
X130744455Y-109801599D01*
X130745614Y-109803401D01*
X130721654Y-109921720D01*
X130721654Y-110172602D01*
X130695362Y-110183493D01*
X130516733Y-110362121D01*
X130420060Y-110595510D01*
X130420060Y-110715470D01*
X130578810Y-110874220D01*
X131563060Y-110874220D01*
X131563060Y-110854220D01*
X131817060Y-110854220D01*
X131817060Y-110874220D01*
X131837060Y-110874220D01*
X131837060Y-111128220D01*
X131817060Y-111128220D01*
X131817060Y-111148220D01*
X131563060Y-111148220D01*
X131563060Y-111128220D01*
X130578810Y-111128220D01*
X130420060Y-111286970D01*
X130420060Y-111406930D01*
X130516733Y-111640319D01*
X130695362Y-111818947D01*
X130721654Y-111829838D01*
X130721654Y-112078180D01*
X130744455Y-112199359D01*
X130745614Y-112201161D01*
X130721654Y-112319480D01*
X130721654Y-112878280D01*
X130734581Y-112946980D01*
X130186204Y-112946980D01*
X129518492Y-112279268D01*
X129371853Y-112181286D01*
X129198880Y-112146880D01*
X124377400Y-112146880D01*
X124377400Y-112084530D01*
X124218650Y-111925780D01*
X123234400Y-111925780D01*
X123234400Y-111945780D01*
X122980400Y-111945780D01*
X122980400Y-111925780D01*
X121996150Y-111925780D01*
X121837400Y-112084530D01*
X121837400Y-112198176D01*
X121227011Y-111587787D01*
X121227109Y-111475829D01*
X121131855Y-111245297D01*
X120955631Y-111068765D01*
X120725265Y-110973109D01*
X120475829Y-110972891D01*
X120245297Y-111068145D01*
X120068765Y-111244369D01*
X119979226Y-111460002D01*
X119416768Y-110897544D01*
X119526580Y-110633088D01*
X119527019Y-110129123D01*
X119334567Y-109663353D01*
X118978521Y-109306686D01*
X118513088Y-109113420D01*
X118009123Y-109112981D01*
X117543353Y-109305433D01*
X117186686Y-109661479D01*
X116993420Y-110126912D01*
X116992981Y-110630877D01*
X114577000Y-110630877D01*
X114577000Y-99969833D01*
X116673955Y-99969833D01*
X116698951Y-100595828D01*
X116890420Y-101058077D01*
X117151032Y-101149363D01*
X118080395Y-100220000D01*
X117151032Y-99290637D01*
X116890420Y-99381923D01*
X116673955Y-99969833D01*
X114577000Y-99969833D01*
X114577000Y-97930877D01*
X116992981Y-97930877D01*
X117185433Y-98396647D01*
X117541479Y-98753314D01*
X117598848Y-98777136D01*
X117421923Y-98850420D01*
X117330637Y-99111032D01*
X118260000Y-100040395D01*
X118274143Y-100026253D01*
X118453748Y-100205858D01*
X118439605Y-100220000D01*
X119368968Y-101149363D01*
X119629580Y-101058077D01*
X119734747Y-100772449D01*
X119822388Y-100903612D01*
X120330387Y-101411612D01*
X120477026Y-101509594D01*
X120505724Y-101515302D01*
X120650000Y-101544000D01*
X123256776Y-101544000D01*
X123585851Y-101873075D01*
X123375829Y-101872891D01*
X123145297Y-101968145D01*
X122968765Y-102144369D01*
X122873109Y-102374735D01*
X122872891Y-102624171D01*
X122948000Y-102805948D01*
X122948000Y-103645174D01*
X121743214Y-102440388D01*
X121596575Y-102342406D01*
X121423602Y-102308000D01*
X119443917Y-102308000D01*
X119334567Y-102043353D01*
X118978521Y-101686686D01*
X118921152Y-101662864D01*
X119098077Y-101589580D01*
X119189363Y-101328968D01*
X118260000Y-100399605D01*
X117330637Y-101328968D01*
X117421923Y-101589580D01*
X117608805Y-101658389D01*
X117543353Y-101685433D01*
X117186686Y-102041479D01*
X116993420Y-102506912D01*
X116992981Y-103010877D01*
X117185433Y-103476647D01*
X117541479Y-103833314D01*
X118006912Y-104026580D01*
X118510877Y-104027019D01*
X118976647Y-103834567D01*
X119333314Y-103478521D01*
X119443984Y-103212000D01*
X121236378Y-103212000D01*
X121542842Y-103518464D01*
X120250370Y-103518464D01*
X120129191Y-103541265D01*
X120067687Y-103580842D01*
X120055631Y-103568765D01*
X119825265Y-103473109D01*
X119575829Y-103472891D01*
X119345297Y-103568145D01*
X119168765Y-103744369D01*
X119073109Y-103974735D01*
X119072891Y-104224171D01*
X119141311Y-104389760D01*
X118978521Y-104226686D01*
X118513088Y-104033420D01*
X118009123Y-104032981D01*
X117543353Y-104225433D01*
X117186686Y-104581479D01*
X116993420Y-105046912D01*
X116992981Y-105550877D01*
X117185433Y-106016647D01*
X117541479Y-106373314D01*
X118006912Y-106566580D01*
X118510877Y-106567019D01*
X118593610Y-106532834D01*
X118720195Y-106659419D01*
X118513088Y-106573420D01*
X118009123Y-106572981D01*
X117543353Y-106765433D01*
X117186686Y-107121479D01*
X116993420Y-107586912D01*
X116992981Y-108090877D01*
X117185433Y-108556647D01*
X117541479Y-108913314D01*
X118006912Y-109106580D01*
X118510877Y-109107019D01*
X118976647Y-108914567D01*
X119333314Y-108558521D01*
X119443984Y-108292000D01*
X119652776Y-108292000D01*
X121081408Y-109720633D01*
X121228047Y-109818614D01*
X121401020Y-109853020D01*
X121837400Y-109853020D01*
X121837400Y-109915370D01*
X121996150Y-110074120D01*
X122980400Y-110074120D01*
X122980400Y-110054120D01*
X123234400Y-110054120D01*
X123234400Y-110074120D01*
X124218650Y-110074120D01*
X124377400Y-109915370D01*
X124377400Y-109795410D01*
X124280727Y-109562021D01*
X124102098Y-109383393D01*
X124075806Y-109372502D01*
X124075806Y-109121620D01*
X124053005Y-109000441D01*
X124051846Y-108998639D01*
X124075806Y-108880320D01*
X124075806Y-108321520D01*
X124053005Y-108200341D01*
X123981388Y-108089046D01*
X123872114Y-108014382D01*
X123742400Y-107988114D01*
X123133818Y-107988114D01*
X123072768Y-107927064D01*
X123124171Y-107927109D01*
X123354703Y-107831855D01*
X123531235Y-107655631D01*
X123626891Y-107425265D01*
X123627109Y-107175829D01*
X123531855Y-106945297D01*
X123355631Y-106768765D01*
X123125265Y-106673109D01*
X123012234Y-106673010D01*
X122718492Y-106379268D01*
X122659342Y-106339745D01*
X122603398Y-106295796D01*
X122586470Y-106291053D01*
X122571853Y-106281286D01*
X122502076Y-106267407D01*
X122433577Y-106248214D01*
X122354760Y-106242146D01*
X122487957Y-106108948D01*
X122584630Y-105875559D01*
X122584630Y-105685750D01*
X122425880Y-105527000D01*
X121227000Y-105527000D01*
X121227000Y-105547000D01*
X120973000Y-105547000D01*
X120973000Y-105527000D01*
X119774120Y-105527000D01*
X119615370Y-105685750D01*
X119615370Y-105875559D01*
X119712043Y-106108948D01*
X119890671Y-106287577D01*
X119916964Y-106298468D01*
X119916964Y-106577740D01*
X119340482Y-106001258D01*
X119526580Y-105553088D01*
X119527019Y-105049123D01*
X119356419Y-104636239D01*
X119574735Y-104726891D01*
X119697154Y-104726998D01*
X119615370Y-104924441D01*
X119615370Y-105114250D01*
X119774120Y-105273000D01*
X120973000Y-105273000D01*
X120973000Y-105253000D01*
X121227000Y-105253000D01*
X121227000Y-105273000D01*
X122425880Y-105273000D01*
X122584630Y-105114250D01*
X122584630Y-104924441D01*
X122487957Y-104691052D01*
X122309329Y-104512423D01*
X122283036Y-104501532D01*
X122283036Y-104258658D01*
X123848000Y-105823622D01*
X123848000Y-106809020D01*
X123882406Y-106981993D01*
X123980388Y-107128632D01*
X123988114Y-107136358D01*
X123988114Y-107744940D01*
X124010915Y-107866119D01*
X124082532Y-107977414D01*
X124191806Y-108052078D01*
X124321520Y-108078346D01*
X124880320Y-108078346D01*
X125001499Y-108055545D01*
X125003301Y-108054386D01*
X125121620Y-108078346D01*
X125680420Y-108078346D01*
X125801599Y-108055545D01*
X125803401Y-108054386D01*
X125921720Y-108078346D01*
X126480520Y-108078346D01*
X126549220Y-108065419D01*
X126549220Y-108530054D01*
X126468765Y-108610369D01*
X126373109Y-108840735D01*
X126372891Y-109090171D01*
X126468145Y-109320703D01*
X126644369Y-109497235D01*
X126874735Y-109592891D01*
X127124171Y-109593109D01*
X127198294Y-109562482D01*
X126211556Y-110549220D01*
X124377400Y-110549220D01*
X124377400Y-110486870D01*
X124218650Y-110328120D01*
X123234400Y-110328120D01*
X123234400Y-110348120D01*
X122980400Y-110348120D01*
X122980400Y-110328120D01*
X121996150Y-110328120D01*
X121837400Y-110486870D01*
X121837400Y-110606830D01*
X121934073Y-110840219D01*
X122093805Y-110999950D01*
X121934073Y-111159681D01*
X121837400Y-111393070D01*
X121837400Y-111513030D01*
X121996150Y-111671780D01*
X122980400Y-111671780D01*
X122980400Y-111651780D01*
X123234400Y-111651780D01*
X123234400Y-111671780D01*
X124218650Y-111671780D01*
X124377400Y-111513030D01*
X124377400Y-111453220D01*
X126398780Y-111453220D01*
X126571753Y-111418814D01*
X126718392Y-111320832D01*
X128212213Y-109827011D01*
X128324171Y-109827109D01*
X128554703Y-109731855D01*
X128731235Y-109555631D01*
X128826891Y-109325265D01*
X128826985Y-109217566D01*
X128827027Y-109217594D01*
X129000000Y-109252000D01*
X129565272Y-109252000D01*
X129644369Y-109331235D01*
X129874735Y-109426891D01*
X130124171Y-109427109D01*
X130354703Y-109331855D01*
X130531235Y-109155631D01*
X130626891Y-108925265D01*
X130627109Y-108675829D01*
X130531855Y-108445297D01*
X130355631Y-108268765D01*
X130125265Y-108173109D01*
X129875829Y-108172891D01*
X129645297Y-108268145D01*
X129565302Y-108348000D01*
X129187225Y-108348000D01*
X129050880Y-108211656D01*
X129050880Y-108064434D01*
X129119580Y-108078346D01*
X129678380Y-108078346D01*
X129799559Y-108055545D01*
X129801361Y-108054386D01*
X129919680Y-108078346D01*
X130478480Y-108078346D01*
X130599659Y-108055545D01*
X130710954Y-107983928D01*
X130785618Y-107874654D01*
X130802735Y-107790129D01*
X130945825Y-107838309D01*
X131018345Y-107847675D01*
X131090060Y-107861940D01*
X131105309Y-107858907D01*
X131120734Y-107860899D01*
X131191318Y-107841799D01*
X131263033Y-107827534D01*
X131275965Y-107818893D01*
X131290973Y-107814832D01*
X131348875Y-107770176D01*
X131409672Y-107729552D01*
X133287225Y-105852000D01*
X134876083Y-105852000D01*
X134985433Y-106116647D01*
X135341479Y-106473314D01*
X135806912Y-106666580D01*
X136310877Y-106667019D01*
X136776647Y-106474567D01*
X137133314Y-106118521D01*
X137326580Y-105653088D01*
X137327019Y-105149123D01*
X137134567Y-104683353D01*
X136778521Y-104326686D01*
X136313088Y-104133420D01*
X135809123Y-104132981D01*
X135343353Y-104325433D01*
X134986686Y-104681479D01*
X134876016Y-104948000D01*
X133391224Y-104948000D01*
X134920274Y-103418951D01*
X134985433Y-103576647D01*
X135341479Y-103933314D01*
X135806912Y-104126580D01*
X136310877Y-104127019D01*
X136776647Y-103934567D01*
X137133314Y-103578521D01*
X137326580Y-103113088D01*
X137327019Y-102609123D01*
X137134567Y-102143353D01*
X136778521Y-101786686D01*
X136721152Y-101762864D01*
X136898077Y-101689580D01*
X136989363Y-101428968D01*
X136060000Y-100499605D01*
X135130637Y-101428968D01*
X135221923Y-101689580D01*
X135408805Y-101758389D01*
X135343353Y-101785433D01*
X134986686Y-102141479D01*
X134876016Y-102408000D01*
X134840000Y-102408000D01*
X134667027Y-102442406D01*
X134520388Y-102540387D01*
X131730975Y-105329801D01*
X130672915Y-105329801D01*
X130707138Y-105279714D01*
X130733001Y-105152000D01*
X131000000Y-105152000D01*
X131126008Y-105126936D01*
X131324171Y-105127109D01*
X131554703Y-105031855D01*
X131731235Y-104855631D01*
X131826891Y-104625265D01*
X131827109Y-104375829D01*
X131731855Y-104145297D01*
X131555631Y-103968765D01*
X131325265Y-103873109D01*
X131075829Y-103872891D01*
X130845297Y-103968145D01*
X130700332Y-104112857D01*
X130638988Y-104017526D01*
X130529714Y-103942862D01*
X130400000Y-103916594D01*
X130385871Y-103916594D01*
X130429424Y-103888568D01*
X130504088Y-103779294D01*
X130530356Y-103649580D01*
X130530356Y-103486216D01*
X130716131Y-103436827D01*
X130743295Y-103423497D01*
X130772973Y-103417594D01*
X130821771Y-103384988D01*
X130874457Y-103359134D01*
X130894453Y-103336423D01*
X130919612Y-103319612D01*
X131219612Y-103019612D01*
X131317594Y-102872973D01*
X131352000Y-102700000D01*
X131352000Y-102623622D01*
X131421179Y-102610605D01*
X131532474Y-102538988D01*
X131607138Y-102429714D01*
X131633406Y-102300000D01*
X131633406Y-101500000D01*
X131610605Y-101378821D01*
X131538988Y-101267526D01*
X131429714Y-101192862D01*
X131300000Y-101166594D01*
X130500000Y-101166594D01*
X130378821Y-101189395D01*
X130267526Y-101261012D01*
X130192862Y-101370286D01*
X130166594Y-101500000D01*
X130166594Y-102300000D01*
X130188611Y-102417014D01*
X130009710Y-102417014D01*
X130033406Y-102300000D01*
X130033406Y-101500000D01*
X130010605Y-101378821D01*
X129938988Y-101267526D01*
X129829714Y-101192862D01*
X129700000Y-101166594D01*
X128900000Y-101166594D01*
X128778821Y-101189395D01*
X128667526Y-101261012D01*
X128592862Y-101370286D01*
X128577124Y-101448000D01*
X128352000Y-101448000D01*
X128352000Y-101187224D01*
X128630818Y-100908406D01*
X129630000Y-100908406D01*
X129751179Y-100885605D01*
X129862474Y-100813988D01*
X129937138Y-100704714D01*
X129963406Y-100575000D01*
X129963406Y-99925000D01*
X129940605Y-99803821D01*
X129868988Y-99692526D01*
X129759714Y-99617862D01*
X129630000Y-99591594D01*
X129080819Y-99591594D01*
X128479254Y-98990029D01*
X128570000Y-99008406D01*
X129630000Y-99008406D01*
X129751179Y-98985605D01*
X129862474Y-98913988D01*
X129907090Y-98848690D01*
X130135000Y-98848690D01*
X130135000Y-99014250D01*
X130293750Y-99173000D01*
X131173000Y-99173000D01*
X131173000Y-99153000D01*
X131427000Y-99153000D01*
X131427000Y-99173000D01*
X131447000Y-99173000D01*
X131447000Y-99427000D01*
X131427000Y-99427000D01*
X131427000Y-99447000D01*
X131173000Y-99447000D01*
X131173000Y-99427000D01*
X130293750Y-99427000D01*
X130135000Y-99585750D01*
X130135000Y-99751310D01*
X130231673Y-99984699D01*
X130410302Y-100163327D01*
X130436594Y-100174218D01*
X130436594Y-100575000D01*
X130459395Y-100696179D01*
X130531012Y-100807474D01*
X130640286Y-100882138D01*
X130770000Y-100908406D01*
X131830000Y-100908406D01*
X131951179Y-100885605D01*
X132062474Y-100813988D01*
X132137138Y-100704714D01*
X132137688Y-100702000D01*
X132150000Y-100702000D01*
X132322973Y-100667594D01*
X132469612Y-100569612D01*
X132511356Y-100527868D01*
X132586673Y-100709698D01*
X132765301Y-100888327D01*
X132998690Y-100985000D01*
X133214250Y-100985000D01*
X133373000Y-100826250D01*
X133373000Y-100077000D01*
X133627000Y-100077000D01*
X133627000Y-100826250D01*
X133785750Y-100985000D01*
X134001310Y-100985000D01*
X134234699Y-100888327D01*
X134413327Y-100709698D01*
X134491928Y-100519939D01*
X134498951Y-100695828D01*
X134690420Y-101158077D01*
X134951032Y-101249363D01*
X135880395Y-100320000D01*
X136239605Y-100320000D01*
X137168968Y-101249363D01*
X137429580Y-101158077D01*
X137646045Y-100570167D01*
X137621049Y-99944172D01*
X137429580Y-99481923D01*
X137168968Y-99390637D01*
X136239605Y-100320000D01*
X135880395Y-100320000D01*
X134951032Y-99390637D01*
X134690420Y-99481923D01*
X134473955Y-100069833D01*
X134479356Y-100205106D01*
X134351250Y-100077000D01*
X133627000Y-100077000D01*
X133373000Y-100077000D01*
X133353000Y-100077000D01*
X133353000Y-99823000D01*
X133373000Y-99823000D01*
X133373000Y-99803000D01*
X133627000Y-99803000D01*
X133627000Y-99823000D01*
X134351250Y-99823000D01*
X134510000Y-99664250D01*
X134510000Y-99423691D01*
X134413327Y-99190302D01*
X134234699Y-99011673D01*
X134176713Y-98987654D01*
X134182138Y-98979714D01*
X134208406Y-98850000D01*
X134208406Y-98380818D01*
X134357224Y-98232000D01*
X134876083Y-98232000D01*
X134985433Y-98496647D01*
X135341479Y-98853314D01*
X135398848Y-98877136D01*
X135221923Y-98950420D01*
X135130637Y-99211032D01*
X136060000Y-100140395D01*
X136989363Y-99211032D01*
X136898077Y-98950420D01*
X136711195Y-98881611D01*
X136776647Y-98854567D01*
X137133314Y-98498521D01*
X137326580Y-98033088D01*
X137327019Y-97529123D01*
X137134567Y-97063353D01*
X136778521Y-96706686D01*
X136313088Y-96513420D01*
X135809123Y-96512981D01*
X135343353Y-96705433D01*
X134986686Y-97061479D01*
X134876016Y-97328000D01*
X134170000Y-97328000D01*
X134015625Y-97358707D01*
X134448077Y-97179580D01*
X134539363Y-96918968D01*
X133610000Y-95989605D01*
X132680637Y-96918968D01*
X132771923Y-97179580D01*
X133359833Y-97396045D01*
X133983982Y-97371123D01*
X133850388Y-97460388D01*
X133594182Y-97716594D01*
X133125000Y-97716594D01*
X133003821Y-97739395D01*
X132892526Y-97811012D01*
X132833089Y-97898000D01*
X132136859Y-97898000D01*
X132068988Y-97792526D01*
X131959714Y-97717862D01*
X131830000Y-97691594D01*
X130770000Y-97691594D01*
X130648821Y-97714395D01*
X130537526Y-97786012D01*
X130462862Y-97895286D01*
X130436594Y-98025000D01*
X130436594Y-98425782D01*
X130410302Y-98436673D01*
X130231673Y-98615301D01*
X130135000Y-98848690D01*
X129907090Y-98848690D01*
X129937138Y-98804714D01*
X129963406Y-98675000D01*
X129963406Y-98025000D01*
X129940605Y-97903821D01*
X129868988Y-97792526D01*
X129759714Y-97717862D01*
X129630000Y-97691594D01*
X128570000Y-97691594D01*
X128542446Y-97696779D01*
X128849613Y-97389612D01*
X128947594Y-97242973D01*
X128982000Y-97070000D01*
X128982000Y-96993917D01*
X129163390Y-96918968D01*
X130140637Y-96918968D01*
X130231923Y-97179580D01*
X130819833Y-97396045D01*
X131445828Y-97371049D01*
X131908077Y-97179580D01*
X131999363Y-96918968D01*
X131070000Y-95989605D01*
X130140637Y-96918968D01*
X129163390Y-96918968D01*
X129246647Y-96884567D01*
X129603314Y-96528521D01*
X129627136Y-96471152D01*
X129700420Y-96648077D01*
X129961032Y-96739363D01*
X130890395Y-95810000D01*
X131249605Y-95810000D01*
X132178968Y-96739363D01*
X132340000Y-96682957D01*
X132501032Y-96739363D01*
X133430395Y-95810000D01*
X133789605Y-95810000D01*
X134718968Y-96739363D01*
X134979580Y-96648077D01*
X135196045Y-96060167D01*
X135171049Y-95434172D01*
X134979580Y-94971923D01*
X134718968Y-94880637D01*
X133789605Y-95810000D01*
X133430395Y-95810000D01*
X132501032Y-94880637D01*
X132340000Y-94937043D01*
X132178968Y-94880637D01*
X131249605Y-95810000D01*
X130890395Y-95810000D01*
X129961032Y-94880637D01*
X129700420Y-94971923D01*
X129631611Y-95158805D01*
X129604567Y-95093353D01*
X129248521Y-94736686D01*
X129162658Y-94701032D01*
X130140637Y-94701032D01*
X131070000Y-95630395D01*
X131999363Y-94701032D01*
X132680637Y-94701032D01*
X133610000Y-95630395D01*
X134539363Y-94701032D01*
X134448077Y-94440420D01*
X133860167Y-94223955D01*
X133234172Y-94248951D01*
X132771923Y-94440420D01*
X132680637Y-94701032D01*
X131999363Y-94701032D01*
X131908077Y-94440420D01*
X131320167Y-94223955D01*
X130694172Y-94248951D01*
X130231923Y-94440420D01*
X130140637Y-94701032D01*
X129162658Y-94701032D01*
X128783088Y-94543420D01*
X128279123Y-94542981D01*
X127813353Y-94735433D01*
X127456686Y-95091479D01*
X127263420Y-95556912D01*
X127262981Y-96060877D01*
X127455433Y-96526647D01*
X127811479Y-96883314D01*
X127999421Y-96961355D01*
X127280388Y-97680388D01*
X127182406Y-97827027D01*
X127148000Y-98000000D01*
X127148000Y-98750000D01*
X127182406Y-98922973D01*
X127280388Y-99069612D01*
X128235776Y-100025000D01*
X127580388Y-100680388D01*
X127482406Y-100827027D01*
X127448000Y-101000000D01*
X127448000Y-101348000D01*
X127329901Y-101348000D01*
X127307555Y-101229241D01*
X127235938Y-101117946D01*
X127126664Y-101043282D01*
X127099700Y-101037822D01*
X127099700Y-99747700D01*
X127065294Y-99574727D01*
X127031193Y-99523691D01*
X126967313Y-99428088D01*
X125769612Y-98230388D01*
X125622973Y-98132406D01*
X125450000Y-98098000D01*
X124998622Y-98098000D01*
X124985605Y-98028821D01*
X124913988Y-97917526D01*
X124804714Y-97842862D01*
X124675000Y-97816594D01*
X123925000Y-97816594D01*
X123803821Y-97839395D01*
X123692526Y-97911012D01*
X123617862Y-98020286D01*
X123602124Y-98098000D01*
X123206215Y-98098000D01*
X123188568Y-98070576D01*
X123079294Y-97995912D01*
X122949580Y-97969644D01*
X122050420Y-97969644D01*
X121929241Y-97992445D01*
X121817946Y-98064062D01*
X121743282Y-98173336D01*
X121737822Y-98200300D01*
X119539524Y-98200300D01*
X119451976Y-98112752D01*
X119526580Y-97933088D01*
X119527019Y-97429123D01*
X119334567Y-96963353D01*
X118978521Y-96606686D01*
X118513088Y-96413420D01*
X118009123Y-96412981D01*
X117543353Y-96605433D01*
X117186686Y-96961479D01*
X116993420Y-97426912D01*
X116992981Y-97930877D01*
X114577000Y-97930877D01*
X114577000Y-96060877D01*
X119642981Y-96060877D01*
X119835433Y-96526647D01*
X120191479Y-96883314D01*
X120656912Y-97076580D01*
X121160877Y-97077019D01*
X121626647Y-96884567D01*
X121983314Y-96528521D01*
X122176580Y-96063088D01*
X122176581Y-96060877D01*
X122182981Y-96060877D01*
X122375433Y-96526647D01*
X122731479Y-96883314D01*
X123196912Y-97076580D01*
X123700877Y-97077019D01*
X124166647Y-96884567D01*
X124523314Y-96528521D01*
X124716580Y-96063088D01*
X124716581Y-96060877D01*
X124722981Y-96060877D01*
X124915433Y-96526647D01*
X125271479Y-96883314D01*
X125736912Y-97076580D01*
X126240877Y-97077019D01*
X126706647Y-96884567D01*
X127063314Y-96528521D01*
X127256580Y-96063088D01*
X127257019Y-95559123D01*
X127064567Y-95093353D01*
X126708521Y-94736686D01*
X126243088Y-94543420D01*
X125739123Y-94542981D01*
X125273353Y-94735433D01*
X124916686Y-95091479D01*
X124723420Y-95556912D01*
X124722981Y-96060877D01*
X124716581Y-96060877D01*
X124717019Y-95559123D01*
X124524567Y-95093353D01*
X124168521Y-94736686D01*
X123703088Y-94543420D01*
X123199123Y-94542981D01*
X122733353Y-94735433D01*
X122376686Y-95091479D01*
X122183420Y-95556912D01*
X122182981Y-96060877D01*
X122176581Y-96060877D01*
X122177019Y-95559123D01*
X121984567Y-95093353D01*
X121628521Y-94736686D01*
X121163088Y-94543420D01*
X120659123Y-94542981D01*
X120193353Y-94735433D01*
X119836686Y-95091479D01*
X119643420Y-95556912D01*
X119642981Y-96060877D01*
X114577000Y-96060877D01*
X114577000Y-92858060D01*
X120234889Y-89077579D01*
X126999998Y-87731915D01*
X133765111Y-89077579D01*
X133765111Y-89077579D01*
G37*
X133765111Y-89077579D02*
X139423000Y-92858060D01*
X139423000Y-123075263D01*
X137045262Y-125453000D01*
X116954737Y-125453000D01*
X114577000Y-123075262D01*
X114577000Y-110630877D01*
X116992981Y-110630877D01*
X117185433Y-111096647D01*
X117541479Y-111453314D01*
X118006912Y-111646580D01*
X118510877Y-111647019D01*
X118777591Y-111536815D01*
X120248000Y-113007224D01*
X120248000Y-114268776D01*
X119416768Y-113437544D01*
X119526580Y-113173088D01*
X119527019Y-112669123D01*
X119334567Y-112203353D01*
X118978521Y-111846686D01*
X118513088Y-111653420D01*
X118009123Y-111652981D01*
X117543353Y-111845433D01*
X117186686Y-112201479D01*
X116993420Y-112666912D01*
X116992981Y-113170877D01*
X117185433Y-113636647D01*
X117541479Y-113993314D01*
X118006912Y-114186580D01*
X118510877Y-114187019D01*
X118777591Y-114076815D01*
X119648000Y-114947224D01*
X119648000Y-116208776D01*
X119416768Y-115977543D01*
X119526580Y-115713088D01*
X119527019Y-115209123D01*
X119334567Y-114743353D01*
X118978521Y-114386686D01*
X118513088Y-114193420D01*
X118009123Y-114192981D01*
X117543353Y-114385433D01*
X117186686Y-114741479D01*
X116993420Y-115206912D01*
X116992981Y-115710877D01*
X117185433Y-116176647D01*
X117541479Y-116533314D01*
X118006912Y-116726580D01*
X118510877Y-116727019D01*
X118777591Y-116616815D01*
X119710954Y-117550179D01*
X119700000Y-117548000D01*
X119443917Y-117548000D01*
X119334567Y-117283353D01*
X118978521Y-116926686D01*
X118513088Y-116733420D01*
X118009123Y-116732981D01*
X117543353Y-116925433D01*
X117186686Y-117281479D01*
X116993420Y-117746912D01*
X116992981Y-118250877D01*
X117185433Y-118716647D01*
X117541479Y-119073314D01*
X118006912Y-119266580D01*
X118510877Y-119267019D01*
X118976647Y-119074567D01*
X119333314Y-118718521D01*
X119443984Y-118452000D01*
X119512776Y-118452000D01*
X119980388Y-118919612D01*
X120127027Y-119017594D01*
X120300000Y-119052000D01*
X122608775Y-119052000D01*
X121572776Y-120088000D01*
X119443917Y-120088000D01*
X119334567Y-119823353D01*
X118978521Y-119466686D01*
X118513088Y-119273420D01*
X118009123Y-119272981D01*
X117543353Y-119465433D01*
X117186686Y-119821479D01*
X116993420Y-120286912D01*
X116992981Y-120790877D01*
X117185433Y-121256647D01*
X117541479Y-121613314D01*
X118006912Y-121806580D01*
X118510877Y-121807019D01*
X118976647Y-121614567D01*
X119333314Y-121258521D01*
X119443984Y-120992000D01*
X121760000Y-120992000D01*
X121932973Y-120957594D01*
X122079612Y-120859612D01*
X122225000Y-120714224D01*
X122225000Y-120827002D01*
X122383748Y-120827002D01*
X122225000Y-120985750D01*
X122225000Y-121206310D01*
X122321673Y-121439699D01*
X122500302Y-121618327D01*
X122733691Y-121715000D01*
X123374250Y-121715000D01*
X123533000Y-121556250D01*
X123533000Y-120827000D01*
X123787000Y-120827000D01*
X123787000Y-121556250D01*
X123945750Y-121715000D01*
X124586309Y-121715000D01*
X124819698Y-121618327D01*
X124998327Y-121439699D01*
X125095000Y-121206310D01*
X125095000Y-120985750D01*
X124936250Y-120827000D01*
X123787000Y-120827000D01*
X123533000Y-120827000D01*
X123513000Y-120827000D01*
X123513000Y-120573000D01*
X123533000Y-120573000D01*
X123533000Y-119843750D01*
X123787000Y-119843750D01*
X123787000Y-120573000D01*
X124936250Y-120573000D01*
X125095000Y-120414250D01*
X125095000Y-120193690D01*
X124998327Y-119960301D01*
X124819698Y-119781673D01*
X124586309Y-119685000D01*
X123945750Y-119685000D01*
X123787000Y-119843750D01*
X123533000Y-119843750D01*
X123374250Y-119685000D01*
X123254225Y-119685000D01*
X123387225Y-119552000D01*
X127200000Y-119552000D01*
X127372973Y-119517594D01*
X127519612Y-119419612D01*
X127918392Y-119020832D01*
X127959203Y-118959755D01*
X128003981Y-118901511D01*
X128007929Y-118886832D01*
X128016374Y-118874193D01*
X128030705Y-118802144D01*
X128049785Y-118731201D01*
X128114747Y-117753971D01*
X129164881Y-118804105D01*
X129058297Y-118848145D01*
X128881765Y-119024369D01*
X128786109Y-119254735D01*
X128786010Y-119367766D01*
X128420388Y-119733388D01*
X128322406Y-119880027D01*
X128301209Y-119986594D01*
X127940000Y-119986594D01*
X127818821Y-120009395D01*
X127707526Y-120081012D01*
X127632862Y-120190286D01*
X127606594Y-120320000D01*
X127606594Y-121080000D01*
X127629395Y-121201179D01*
X127701012Y-121312474D01*
X127810286Y-121387138D01*
X127940000Y-121413406D01*
X129540000Y-121413406D01*
X129652932Y-121392157D01*
X130130388Y-121869613D01*
X130250696Y-121950000D01*
X130277027Y-121967594D01*
X130450000Y-122002000D01*
X130601378Y-122002000D01*
X130614395Y-122071179D01*
X130686012Y-122182474D01*
X130795286Y-122257138D01*
X130925000Y-122283406D01*
X131675000Y-122283406D01*
X131796179Y-122260605D01*
X131907474Y-122188988D01*
X131982138Y-122079714D01*
X131997876Y-122002000D01*
X132215185Y-122002000D01*
X132244369Y-122031235D01*
X132474735Y-122126891D01*
X132724171Y-122127109D01*
X132954703Y-122031855D01*
X133131235Y-121855631D01*
X133226891Y-121625265D01*
X133227109Y-121375829D01*
X133131855Y-121145297D01*
X132955631Y-120968765D01*
X132725265Y-120873109D01*
X132475829Y-120872891D01*
X132245297Y-120968145D01*
X132115215Y-121098000D01*
X131998622Y-121098000D01*
X131985605Y-121028821D01*
X131913988Y-120917526D01*
X131804714Y-120842862D01*
X131675000Y-120816594D01*
X130925000Y-120816594D01*
X130803821Y-120839395D01*
X130692526Y-120911012D01*
X130617862Y-121020286D01*
X130608035Y-121068811D01*
X130166283Y-120627058D01*
X130224171Y-120627109D01*
X130454703Y-120531855D01*
X130484610Y-120502000D01*
X130601378Y-120502000D01*
X130614395Y-120571179D01*
X130686012Y-120682474D01*
X130795286Y-120757138D01*
X130925000Y-120783406D01*
X131675000Y-120783406D01*
X131796179Y-120760605D01*
X131907474Y-120688988D01*
X131982138Y-120579714D01*
X132008406Y-120450000D01*
X132008406Y-119650000D01*
X131985605Y-119528821D01*
X131913988Y-119417526D01*
X131804714Y-119342862D01*
X131675000Y-119316594D01*
X130925000Y-119316594D01*
X130803821Y-119339395D01*
X130692526Y-119411012D01*
X130617862Y-119520286D01*
X130602124Y-119598000D01*
X130584641Y-119598000D01*
X130455631Y-119468765D01*
X130225265Y-119373109D01*
X130040007Y-119372947D01*
X130040109Y-119255829D01*
X129997208Y-119152000D01*
X132112776Y-119152000D01*
X133480387Y-120519612D01*
X133560288Y-120573000D01*
X133627027Y-120617594D01*
X133800000Y-120652000D01*
X134793189Y-120652000D01*
X134792981Y-120890877D01*
X134985433Y-121356647D01*
X135341479Y-121713314D01*
X135806912Y-121906580D01*
X136310877Y-121907019D01*
X136776647Y-121714567D01*
X137133314Y-121358521D01*
X137326580Y-120893088D01*
X137327019Y-120389123D01*
X137134567Y-119923353D01*
X136778521Y-119566686D01*
X136313088Y-119373420D01*
X135809123Y-119372981D01*
X135343353Y-119565433D01*
X135160468Y-119748000D01*
X134115629Y-119748000D01*
X134154703Y-119731855D01*
X134331235Y-119555631D01*
X134426891Y-119325265D01*
X134427109Y-119075829D01*
X134331855Y-118845297D01*
X134202000Y-118715215D01*
X134202000Y-118350877D01*
X134792981Y-118350877D01*
X134985433Y-118816647D01*
X135341479Y-119173314D01*
X135806912Y-119366580D01*
X136310877Y-119367019D01*
X136776647Y-119174567D01*
X137133314Y-118818521D01*
X137326580Y-118353088D01*
X137327019Y-117849123D01*
X137134567Y-117383353D01*
X136778521Y-117026686D01*
X136313088Y-116833420D01*
X135809123Y-116832981D01*
X135343353Y-117025433D01*
X134986686Y-117381479D01*
X134793420Y-117846912D01*
X134792981Y-118350877D01*
X134202000Y-118350877D01*
X134202000Y-117508598D01*
X134232474Y-117488988D01*
X134307138Y-117379714D01*
X134333406Y-117250000D01*
X134333406Y-116350000D01*
X134310605Y-116228821D01*
X134238988Y-116117526D01*
X134129714Y-116042862D01*
X134000000Y-116016594D01*
X133500000Y-116016594D01*
X133378821Y-116039395D01*
X133267526Y-116111012D01*
X133192862Y-116220286D01*
X133166594Y-116350000D01*
X133166594Y-117250000D01*
X133189395Y-117371179D01*
X133261012Y-117482474D01*
X133298000Y-117507747D01*
X133298000Y-117641972D01*
X133221265Y-117610109D01*
X132971829Y-117609891D01*
X132741297Y-117705145D01*
X132661302Y-117785000D01*
X130108224Y-117785000D01*
X129850980Y-117527756D01*
X129850980Y-117091171D01*
X130690891Y-117091171D01*
X130786145Y-117321703D01*
X130962369Y-117498235D01*
X131192735Y-117593891D01*
X131442171Y-117594109D01*
X131672703Y-117498855D01*
X131732891Y-117438772D01*
X131761012Y-117482474D01*
X131870286Y-117557138D01*
X132000000Y-117583406D01*
X132500000Y-117583406D01*
X132621179Y-117560605D01*
X132732474Y-117488988D01*
X132807138Y-117379714D01*
X132833406Y-117250000D01*
X132833406Y-116350000D01*
X132810605Y-116228821D01*
X132738988Y-116117526D01*
X132629714Y-116042862D01*
X132500000Y-116016594D01*
X132000000Y-116016594D01*
X131878821Y-116039395D01*
X131767526Y-116111012D01*
X131692862Y-116220286D01*
X131666999Y-116348000D01*
X131485000Y-116348000D01*
X131469631Y-116351057D01*
X131443265Y-116340109D01*
X131193829Y-116339891D01*
X130963297Y-116435145D01*
X130786765Y-116611369D01*
X130691109Y-116841735D01*
X130690891Y-117091171D01*
X129850980Y-117091171D01*
X129850980Y-116647094D01*
X129919680Y-116661006D01*
X130478480Y-116661006D01*
X130599659Y-116638205D01*
X130710954Y-116566588D01*
X130785618Y-116457314D01*
X130811886Y-116327600D01*
X130811886Y-116079217D01*
X134793133Y-115636325D01*
X134792981Y-115810877D01*
X134985433Y-116276647D01*
X135341479Y-116633314D01*
X135806912Y-116826580D01*
X136310877Y-116827019D01*
X136776647Y-116634567D01*
X137133314Y-116278521D01*
X137326580Y-115813088D01*
X137327019Y-115309123D01*
X137134567Y-114843353D01*
X136778521Y-114486686D01*
X136313088Y-114293420D01*
X135809123Y-114292981D01*
X135343353Y-114485433D01*
X135140305Y-114688127D01*
X134252313Y-114786911D01*
X135143867Y-113895357D01*
X135341479Y-114093314D01*
X135806912Y-114286580D01*
X136310877Y-114287019D01*
X136776647Y-114094567D01*
X137133314Y-113738521D01*
X137326580Y-113273088D01*
X137327019Y-112769123D01*
X137134567Y-112303353D01*
X136778521Y-111946686D01*
X136313088Y-111753420D01*
X135809123Y-111752981D01*
X135343353Y-111945433D01*
X134986686Y-112301479D01*
X134793420Y-112766912D01*
X134793245Y-112967531D01*
X133739713Y-114021063D01*
X132928340Y-113910965D01*
X133093171Y-113911109D01*
X133323703Y-113815855D01*
X133500235Y-113639631D01*
X133595891Y-113409265D01*
X133596109Y-113159829D01*
X133523212Y-112983406D01*
X134075000Y-112983406D01*
X134196179Y-112960605D01*
X134307474Y-112888988D01*
X134382138Y-112779714D01*
X134408406Y-112650000D01*
X134408406Y-111850000D01*
X134385605Y-111728821D01*
X134375363Y-111712905D01*
X134434699Y-111688327D01*
X134613327Y-111509698D01*
X134710000Y-111276309D01*
X134710000Y-111035750D01*
X134551250Y-110877000D01*
X133827000Y-110877000D01*
X133827000Y-110897000D01*
X133573000Y-110897000D01*
X133573000Y-110877000D01*
X133553000Y-110877000D01*
X133553000Y-110623000D01*
X133573000Y-110623000D01*
X133573000Y-109873750D01*
X133827000Y-109873750D01*
X133827000Y-110623000D01*
X134551250Y-110623000D01*
X134710000Y-110464250D01*
X134710000Y-110223691D01*
X134613327Y-109990302D01*
X134434699Y-109811673D01*
X134201310Y-109715000D01*
X133985750Y-109715000D01*
X133827000Y-109873750D01*
X133573000Y-109873750D01*
X133414250Y-109715000D01*
X133198690Y-109715000D01*
X133010132Y-109793103D01*
X133118592Y-109720632D01*
X133587225Y-109252000D01*
X134112776Y-109252000D01*
X134879760Y-110018984D01*
X134793420Y-110226912D01*
X134792981Y-110730877D01*
X134985433Y-111196647D01*
X135341479Y-111553314D01*
X135806912Y-111746580D01*
X136310877Y-111747019D01*
X136776647Y-111554567D01*
X137133314Y-111198521D01*
X137326580Y-110733088D01*
X137327019Y-110229123D01*
X137134567Y-109763353D01*
X136778521Y-109406686D01*
X136313088Y-109213420D01*
X135809123Y-109212981D01*
X135485799Y-109346575D01*
X134619612Y-108480388D01*
X134487331Y-108392000D01*
X134876083Y-108392000D01*
X134985433Y-108656647D01*
X135341479Y-109013314D01*
X135806912Y-109206580D01*
X136310877Y-109207019D01*
X136776647Y-109014567D01*
X137133314Y-108658521D01*
X137326580Y-108193088D01*
X137327019Y-107689123D01*
X137134567Y-107223353D01*
X136778521Y-106866686D01*
X136313088Y-106673420D01*
X135809123Y-106672981D01*
X135343353Y-106865433D01*
X134986686Y-107221479D01*
X134876016Y-107488000D01*
X132350980Y-107488000D01*
X132178007Y-107522406D01*
X132031368Y-107620388D01*
X131663642Y-107988114D01*
X131055060Y-107988114D01*
X130933881Y-108010915D01*
X130822586Y-108082532D01*
X130747922Y-108191806D01*
X130721654Y-108321520D01*
X130721654Y-108880320D01*
X130744455Y-109001499D01*
X130745614Y-109003301D01*
X130721654Y-109121620D01*
X130721654Y-109680420D01*
X130744455Y-109801599D01*
X130745614Y-109803401D01*
X130721654Y-109921720D01*
X130721654Y-110172602D01*
X130695362Y-110183493D01*
X130516733Y-110362121D01*
X130420060Y-110595510D01*
X130420060Y-110715470D01*
X130578810Y-110874220D01*
X131563060Y-110874220D01*
X131563060Y-110854220D01*
X131817060Y-110854220D01*
X131817060Y-110874220D01*
X131837060Y-110874220D01*
X131837060Y-111128220D01*
X131817060Y-111128220D01*
X131817060Y-111148220D01*
X131563060Y-111148220D01*
X131563060Y-111128220D01*
X130578810Y-111128220D01*
X130420060Y-111286970D01*
X130420060Y-111406930D01*
X130516733Y-111640319D01*
X130695362Y-111818947D01*
X130721654Y-111829838D01*
X130721654Y-112078180D01*
X130744455Y-112199359D01*
X130745614Y-112201161D01*
X130721654Y-112319480D01*
X130721654Y-112878280D01*
X130734581Y-112946980D01*
X130186204Y-112946980D01*
X129518492Y-112279268D01*
X129371853Y-112181286D01*
X129198880Y-112146880D01*
X124377400Y-112146880D01*
X124377400Y-112084530D01*
X124218650Y-111925780D01*
X123234400Y-111925780D01*
X123234400Y-111945780D01*
X122980400Y-111945780D01*
X122980400Y-111925780D01*
X121996150Y-111925780D01*
X121837400Y-112084530D01*
X121837400Y-112198176D01*
X121227011Y-111587787D01*
X121227109Y-111475829D01*
X121131855Y-111245297D01*
X120955631Y-111068765D01*
X120725265Y-110973109D01*
X120475829Y-110972891D01*
X120245297Y-111068145D01*
X120068765Y-111244369D01*
X119979226Y-111460002D01*
X119416768Y-110897544D01*
X119526580Y-110633088D01*
X119527019Y-110129123D01*
X119334567Y-109663353D01*
X118978521Y-109306686D01*
X118513088Y-109113420D01*
X118009123Y-109112981D01*
X117543353Y-109305433D01*
X117186686Y-109661479D01*
X116993420Y-110126912D01*
X116992981Y-110630877D01*
X114577000Y-110630877D01*
X114577000Y-99969833D01*
X116673955Y-99969833D01*
X116698951Y-100595828D01*
X116890420Y-101058077D01*
X117151032Y-101149363D01*
X118080395Y-100220000D01*
X117151032Y-99290637D01*
X116890420Y-99381923D01*
X116673955Y-99969833D01*
X114577000Y-99969833D01*
X114577000Y-97930877D01*
X116992981Y-97930877D01*
X117185433Y-98396647D01*
X117541479Y-98753314D01*
X117598848Y-98777136D01*
X117421923Y-98850420D01*
X117330637Y-99111032D01*
X118260000Y-100040395D01*
X118274143Y-100026253D01*
X118453748Y-100205858D01*
X118439605Y-100220000D01*
X119368968Y-101149363D01*
X119629580Y-101058077D01*
X119734747Y-100772449D01*
X119822388Y-100903612D01*
X120330387Y-101411612D01*
X120477026Y-101509594D01*
X120505724Y-101515302D01*
X120650000Y-101544000D01*
X123256776Y-101544000D01*
X123585851Y-101873075D01*
X123375829Y-101872891D01*
X123145297Y-101968145D01*
X122968765Y-102144369D01*
X122873109Y-102374735D01*
X122872891Y-102624171D01*
X122948000Y-102805948D01*
X122948000Y-103645174D01*
X121743214Y-102440388D01*
X121596575Y-102342406D01*
X121423602Y-102308000D01*
X119443917Y-102308000D01*
X119334567Y-102043353D01*
X118978521Y-101686686D01*
X118921152Y-101662864D01*
X119098077Y-101589580D01*
X119189363Y-101328968D01*
X118260000Y-100399605D01*
X117330637Y-101328968D01*
X117421923Y-101589580D01*
X117608805Y-101658389D01*
X117543353Y-101685433D01*
X117186686Y-102041479D01*
X116993420Y-102506912D01*
X116992981Y-103010877D01*
X117185433Y-103476647D01*
X117541479Y-103833314D01*
X118006912Y-104026580D01*
X118510877Y-104027019D01*
X118976647Y-103834567D01*
X119333314Y-103478521D01*
X119443984Y-103212000D01*
X121236378Y-103212000D01*
X121542842Y-103518464D01*
X120250370Y-103518464D01*
X120129191Y-103541265D01*
X120067687Y-103580842D01*
X120055631Y-103568765D01*
X119825265Y-103473109D01*
X119575829Y-103472891D01*
X119345297Y-103568145D01*
X119168765Y-103744369D01*
X119073109Y-103974735D01*
X119072891Y-104224171D01*
X119141311Y-104389760D01*
X118978521Y-104226686D01*
X118513088Y-104033420D01*
X118009123Y-104032981D01*
X117543353Y-104225433D01*
X117186686Y-104581479D01*
X116993420Y-105046912D01*
X116992981Y-105550877D01*
X117185433Y-106016647D01*
X117541479Y-106373314D01*
X118006912Y-106566580D01*
X118510877Y-106567019D01*
X118593610Y-106532834D01*
X118720195Y-106659419D01*
X118513088Y-106573420D01*
X118009123Y-106572981D01*
X117543353Y-106765433D01*
X117186686Y-107121479D01*
X116993420Y-107586912D01*
X116992981Y-108090877D01*
X117185433Y-108556647D01*
X117541479Y-108913314D01*
X118006912Y-109106580D01*
X118510877Y-109107019D01*
X118976647Y-108914567D01*
X119333314Y-108558521D01*
X119443984Y-108292000D01*
X119652776Y-108292000D01*
X121081408Y-109720633D01*
X121228047Y-109818614D01*
X121401020Y-109853020D01*
X121837400Y-109853020D01*
X121837400Y-109915370D01*
X121996150Y-110074120D01*
X122980400Y-110074120D01*
X122980400Y-110054120D01*
X123234400Y-110054120D01*
X123234400Y-110074120D01*
X124218650Y-110074120D01*
X124377400Y-109915370D01*
X124377400Y-109795410D01*
X124280727Y-109562021D01*
X124102098Y-109383393D01*
X124075806Y-109372502D01*
X124075806Y-109121620D01*
X124053005Y-109000441D01*
X124051846Y-108998639D01*
X124075806Y-108880320D01*
X124075806Y-108321520D01*
X124053005Y-108200341D01*
X123981388Y-108089046D01*
X123872114Y-108014382D01*
X123742400Y-107988114D01*
X123133818Y-107988114D01*
X123072768Y-107927064D01*
X123124171Y-107927109D01*
X123354703Y-107831855D01*
X123531235Y-107655631D01*
X123626891Y-107425265D01*
X123627109Y-107175829D01*
X123531855Y-106945297D01*
X123355631Y-106768765D01*
X123125265Y-106673109D01*
X123012234Y-106673010D01*
X122718492Y-106379268D01*
X122659342Y-106339745D01*
X122603398Y-106295796D01*
X122586470Y-106291053D01*
X122571853Y-106281286D01*
X122502076Y-106267407D01*
X122433577Y-106248214D01*
X122354760Y-106242146D01*
X122487957Y-106108948D01*
X122584630Y-105875559D01*
X122584630Y-105685750D01*
X122425880Y-105527000D01*
X121227000Y-105527000D01*
X121227000Y-105547000D01*
X120973000Y-105547000D01*
X120973000Y-105527000D01*
X119774120Y-105527000D01*
X119615370Y-105685750D01*
X119615370Y-105875559D01*
X119712043Y-106108948D01*
X119890671Y-106287577D01*
X119916964Y-106298468D01*
X119916964Y-106577740D01*
X119340482Y-106001258D01*
X119526580Y-105553088D01*
X119527019Y-105049123D01*
X119356419Y-104636239D01*
X119574735Y-104726891D01*
X119697154Y-104726998D01*
X119615370Y-104924441D01*
X119615370Y-105114250D01*
X119774120Y-105273000D01*
X120973000Y-105273000D01*
X120973000Y-105253000D01*
X121227000Y-105253000D01*
X121227000Y-105273000D01*
X122425880Y-105273000D01*
X122584630Y-105114250D01*
X122584630Y-104924441D01*
X122487957Y-104691052D01*
X122309329Y-104512423D01*
X122283036Y-104501532D01*
X122283036Y-104258658D01*
X123848000Y-105823622D01*
X123848000Y-106809020D01*
X123882406Y-106981993D01*
X123980388Y-107128632D01*
X123988114Y-107136358D01*
X123988114Y-107744940D01*
X124010915Y-107866119D01*
X124082532Y-107977414D01*
X124191806Y-108052078D01*
X124321520Y-108078346D01*
X124880320Y-108078346D01*
X125001499Y-108055545D01*
X125003301Y-108054386D01*
X125121620Y-108078346D01*
X125680420Y-108078346D01*
X125801599Y-108055545D01*
X125803401Y-108054386D01*
X125921720Y-108078346D01*
X126480520Y-108078346D01*
X126549220Y-108065419D01*
X126549220Y-108530054D01*
X126468765Y-108610369D01*
X126373109Y-108840735D01*
X126372891Y-109090171D01*
X126468145Y-109320703D01*
X126644369Y-109497235D01*
X126874735Y-109592891D01*
X127124171Y-109593109D01*
X127198294Y-109562482D01*
X126211556Y-110549220D01*
X124377400Y-110549220D01*
X124377400Y-110486870D01*
X124218650Y-110328120D01*
X123234400Y-110328120D01*
X123234400Y-110348120D01*
X122980400Y-110348120D01*
X122980400Y-110328120D01*
X121996150Y-110328120D01*
X121837400Y-110486870D01*
X121837400Y-110606830D01*
X121934073Y-110840219D01*
X122093805Y-110999950D01*
X121934073Y-111159681D01*
X121837400Y-111393070D01*
X121837400Y-111513030D01*
X121996150Y-111671780D01*
X122980400Y-111671780D01*
X122980400Y-111651780D01*
X123234400Y-111651780D01*
X123234400Y-111671780D01*
X124218650Y-111671780D01*
X124377400Y-111513030D01*
X124377400Y-111453220D01*
X126398780Y-111453220D01*
X126571753Y-111418814D01*
X126718392Y-111320832D01*
X128212213Y-109827011D01*
X128324171Y-109827109D01*
X128554703Y-109731855D01*
X128731235Y-109555631D01*
X128826891Y-109325265D01*
X128826985Y-109217566D01*
X128827027Y-109217594D01*
X129000000Y-109252000D01*
X129565272Y-109252000D01*
X129644369Y-109331235D01*
X129874735Y-109426891D01*
X130124171Y-109427109D01*
X130354703Y-109331855D01*
X130531235Y-109155631D01*
X130626891Y-108925265D01*
X130627109Y-108675829D01*
X130531855Y-108445297D01*
X130355631Y-108268765D01*
X130125265Y-108173109D01*
X129875829Y-108172891D01*
X129645297Y-108268145D01*
X129565302Y-108348000D01*
X129187225Y-108348000D01*
X129050880Y-108211656D01*
X129050880Y-108064434D01*
X129119580Y-108078346D01*
X129678380Y-108078346D01*
X129799559Y-108055545D01*
X129801361Y-108054386D01*
X129919680Y-108078346D01*
X130478480Y-108078346D01*
X130599659Y-108055545D01*
X130710954Y-107983928D01*
X130785618Y-107874654D01*
X130802735Y-107790129D01*
X130945825Y-107838309D01*
X131018345Y-107847675D01*
X131090060Y-107861940D01*
X131105309Y-107858907D01*
X131120734Y-107860899D01*
X131191318Y-107841799D01*
X131263033Y-107827534D01*
X131275965Y-107818893D01*
X131290973Y-107814832D01*
X131348875Y-107770176D01*
X131409672Y-107729552D01*
X133287225Y-105852000D01*
X134876083Y-105852000D01*
X134985433Y-106116647D01*
X135341479Y-106473314D01*
X135806912Y-106666580D01*
X136310877Y-106667019D01*
X136776647Y-106474567D01*
X137133314Y-106118521D01*
X137326580Y-105653088D01*
X137327019Y-105149123D01*
X137134567Y-104683353D01*
X136778521Y-104326686D01*
X136313088Y-104133420D01*
X135809123Y-104132981D01*
X135343353Y-104325433D01*
X134986686Y-104681479D01*
X134876016Y-104948000D01*
X133391224Y-104948000D01*
X134920274Y-103418951D01*
X134985433Y-103576647D01*
X135341479Y-103933314D01*
X135806912Y-104126580D01*
X136310877Y-104127019D01*
X136776647Y-103934567D01*
X137133314Y-103578521D01*
X137326580Y-103113088D01*
X137327019Y-102609123D01*
X137134567Y-102143353D01*
X136778521Y-101786686D01*
X136721152Y-101762864D01*
X136898077Y-101689580D01*
X136989363Y-101428968D01*
X136060000Y-100499605D01*
X135130637Y-101428968D01*
X135221923Y-101689580D01*
X135408805Y-101758389D01*
X135343353Y-101785433D01*
X134986686Y-102141479D01*
X134876016Y-102408000D01*
X134840000Y-102408000D01*
X134667027Y-102442406D01*
X134520388Y-102540387D01*
X131730975Y-105329801D01*
X130672915Y-105329801D01*
X130707138Y-105279714D01*
X130733001Y-105152000D01*
X131000000Y-105152000D01*
X131126008Y-105126936D01*
X131324171Y-105127109D01*
X131554703Y-105031855D01*
X131731235Y-104855631D01*
X131826891Y-104625265D01*
X131827109Y-104375829D01*
X131731855Y-104145297D01*
X131555631Y-103968765D01*
X131325265Y-103873109D01*
X131075829Y-103872891D01*
X130845297Y-103968145D01*
X130700332Y-104112857D01*
X130638988Y-104017526D01*
X130529714Y-103942862D01*
X130400000Y-103916594D01*
X130385871Y-103916594D01*
X130429424Y-103888568D01*
X130504088Y-103779294D01*
X130530356Y-103649580D01*
X130530356Y-103486216D01*
X130716131Y-103436827D01*
X130743295Y-103423497D01*
X130772973Y-103417594D01*
X130821771Y-103384988D01*
X130874457Y-103359134D01*
X130894453Y-103336423D01*
X130919612Y-103319612D01*
X131219612Y-103019612D01*
X131317594Y-102872973D01*
X131352000Y-102700000D01*
X131352000Y-102623622D01*
X131421179Y-102610605D01*
X131532474Y-102538988D01*
X131607138Y-102429714D01*
X131633406Y-102300000D01*
X131633406Y-101500000D01*
X131610605Y-101378821D01*
X131538988Y-101267526D01*
X131429714Y-101192862D01*
X131300000Y-101166594D01*
X130500000Y-101166594D01*
X130378821Y-101189395D01*
X130267526Y-101261012D01*
X130192862Y-101370286D01*
X130166594Y-101500000D01*
X130166594Y-102300000D01*
X130188611Y-102417014D01*
X130009710Y-102417014D01*
X130033406Y-102300000D01*
X130033406Y-101500000D01*
X130010605Y-101378821D01*
X129938988Y-101267526D01*
X129829714Y-101192862D01*
X129700000Y-101166594D01*
X128900000Y-101166594D01*
X128778821Y-101189395D01*
X128667526Y-101261012D01*
X128592862Y-101370286D01*
X128577124Y-101448000D01*
X128352000Y-101448000D01*
X128352000Y-101187224D01*
X128630818Y-100908406D01*
X129630000Y-100908406D01*
X129751179Y-100885605D01*
X129862474Y-100813988D01*
X129937138Y-100704714D01*
X129963406Y-100575000D01*
X129963406Y-99925000D01*
X129940605Y-99803821D01*
X129868988Y-99692526D01*
X129759714Y-99617862D01*
X129630000Y-99591594D01*
X129080819Y-99591594D01*
X128479254Y-98990029D01*
X128570000Y-99008406D01*
X129630000Y-99008406D01*
X129751179Y-98985605D01*
X129862474Y-98913988D01*
X129907090Y-98848690D01*
X130135000Y-98848690D01*
X130135000Y-99014250D01*
X130293750Y-99173000D01*
X131173000Y-99173000D01*
X131173000Y-99153000D01*
X131427000Y-99153000D01*
X131427000Y-99173000D01*
X131447000Y-99173000D01*
X131447000Y-99427000D01*
X131427000Y-99427000D01*
X131427000Y-99447000D01*
X131173000Y-99447000D01*
X131173000Y-99427000D01*
X130293750Y-99427000D01*
X130135000Y-99585750D01*
X130135000Y-99751310D01*
X130231673Y-99984699D01*
X130410302Y-100163327D01*
X130436594Y-100174218D01*
X130436594Y-100575000D01*
X130459395Y-100696179D01*
X130531012Y-100807474D01*
X130640286Y-100882138D01*
X130770000Y-100908406D01*
X131830000Y-100908406D01*
X131951179Y-100885605D01*
X132062474Y-100813988D01*
X132137138Y-100704714D01*
X132137688Y-100702000D01*
X132150000Y-100702000D01*
X132322973Y-100667594D01*
X132469612Y-100569612D01*
X132511356Y-100527868D01*
X132586673Y-100709698D01*
X132765301Y-100888327D01*
X132998690Y-100985000D01*
X133214250Y-100985000D01*
X133373000Y-100826250D01*
X133373000Y-100077000D01*
X133627000Y-100077000D01*
X133627000Y-100826250D01*
X133785750Y-100985000D01*
X134001310Y-100985000D01*
X134234699Y-100888327D01*
X134413327Y-100709698D01*
X134491928Y-100519939D01*
X134498951Y-100695828D01*
X134690420Y-101158077D01*
X134951032Y-101249363D01*
X135880395Y-100320000D01*
X136239605Y-100320000D01*
X137168968Y-101249363D01*
X137429580Y-101158077D01*
X137646045Y-100570167D01*
X137621049Y-99944172D01*
X137429580Y-99481923D01*
X137168968Y-99390637D01*
X136239605Y-100320000D01*
X135880395Y-100320000D01*
X134951032Y-99390637D01*
X134690420Y-99481923D01*
X134473955Y-100069833D01*
X134479356Y-100205106D01*
X134351250Y-100077000D01*
X133627000Y-100077000D01*
X133373000Y-100077000D01*
X133353000Y-100077000D01*
X133353000Y-99823000D01*
X133373000Y-99823000D01*
X133373000Y-99803000D01*
X133627000Y-99803000D01*
X133627000Y-99823000D01*
X134351250Y-99823000D01*
X134510000Y-99664250D01*
X134510000Y-99423691D01*
X134413327Y-99190302D01*
X134234699Y-99011673D01*
X134176713Y-98987654D01*
X134182138Y-98979714D01*
X134208406Y-98850000D01*
X134208406Y-98380818D01*
X134357224Y-98232000D01*
X134876083Y-98232000D01*
X134985433Y-98496647D01*
X135341479Y-98853314D01*
X135398848Y-98877136D01*
X135221923Y-98950420D01*
X135130637Y-99211032D01*
X136060000Y-100140395D01*
X136989363Y-99211032D01*
X136898077Y-98950420D01*
X136711195Y-98881611D01*
X136776647Y-98854567D01*
X137133314Y-98498521D01*
X137326580Y-98033088D01*
X137327019Y-97529123D01*
X137134567Y-97063353D01*
X136778521Y-96706686D01*
X136313088Y-96513420D01*
X135809123Y-96512981D01*
X135343353Y-96705433D01*
X134986686Y-97061479D01*
X134876016Y-97328000D01*
X134170000Y-97328000D01*
X134015625Y-97358707D01*
X134448077Y-97179580D01*
X134539363Y-96918968D01*
X133610000Y-95989605D01*
X132680637Y-96918968D01*
X132771923Y-97179580D01*
X133359833Y-97396045D01*
X133983982Y-97371123D01*
X133850388Y-97460388D01*
X133594182Y-97716594D01*
X133125000Y-97716594D01*
X133003821Y-97739395D01*
X132892526Y-97811012D01*
X132833089Y-97898000D01*
X132136859Y-97898000D01*
X132068988Y-97792526D01*
X131959714Y-97717862D01*
X131830000Y-97691594D01*
X130770000Y-97691594D01*
X130648821Y-97714395D01*
X130537526Y-97786012D01*
X130462862Y-97895286D01*
X130436594Y-98025000D01*
X130436594Y-98425782D01*
X130410302Y-98436673D01*
X130231673Y-98615301D01*
X130135000Y-98848690D01*
X129907090Y-98848690D01*
X129937138Y-98804714D01*
X129963406Y-98675000D01*
X129963406Y-98025000D01*
X129940605Y-97903821D01*
X129868988Y-97792526D01*
X129759714Y-97717862D01*
X129630000Y-97691594D01*
X128570000Y-97691594D01*
X128542446Y-97696779D01*
X128849613Y-97389612D01*
X128947594Y-97242973D01*
X128982000Y-97070000D01*
X128982000Y-96993917D01*
X129163390Y-96918968D01*
X130140637Y-96918968D01*
X130231923Y-97179580D01*
X130819833Y-97396045D01*
X131445828Y-97371049D01*
X131908077Y-97179580D01*
X131999363Y-96918968D01*
X131070000Y-95989605D01*
X130140637Y-96918968D01*
X129163390Y-96918968D01*
X129246647Y-96884567D01*
X129603314Y-96528521D01*
X129627136Y-96471152D01*
X129700420Y-96648077D01*
X129961032Y-96739363D01*
X130890395Y-95810000D01*
X131249605Y-95810000D01*
X132178968Y-96739363D01*
X132340000Y-96682957D01*
X132501032Y-96739363D01*
X133430395Y-95810000D01*
X133789605Y-95810000D01*
X134718968Y-96739363D01*
X134979580Y-96648077D01*
X135196045Y-96060167D01*
X135171049Y-95434172D01*
X134979580Y-94971923D01*
X134718968Y-94880637D01*
X133789605Y-95810000D01*
X133430395Y-95810000D01*
X132501032Y-94880637D01*
X132340000Y-94937043D01*
X132178968Y-94880637D01*
X131249605Y-95810000D01*
X130890395Y-95810000D01*
X129961032Y-94880637D01*
X129700420Y-94971923D01*
X129631611Y-95158805D01*
X129604567Y-95093353D01*
X129248521Y-94736686D01*
X129162658Y-94701032D01*
X130140637Y-94701032D01*
X131070000Y-95630395D01*
X131999363Y-94701032D01*
X132680637Y-94701032D01*
X133610000Y-95630395D01*
X134539363Y-94701032D01*
X134448077Y-94440420D01*
X133860167Y-94223955D01*
X133234172Y-94248951D01*
X132771923Y-94440420D01*
X132680637Y-94701032D01*
X131999363Y-94701032D01*
X131908077Y-94440420D01*
X131320167Y-94223955D01*
X130694172Y-94248951D01*
X130231923Y-94440420D01*
X130140637Y-94701032D01*
X129162658Y-94701032D01*
X128783088Y-94543420D01*
X128279123Y-94542981D01*
X127813353Y-94735433D01*
X127456686Y-95091479D01*
X127263420Y-95556912D01*
X127262981Y-96060877D01*
X127455433Y-96526647D01*
X127811479Y-96883314D01*
X127999421Y-96961355D01*
X127280388Y-97680388D01*
X127182406Y-97827027D01*
X127148000Y-98000000D01*
X127148000Y-98750000D01*
X127182406Y-98922973D01*
X127280388Y-99069612D01*
X128235776Y-100025000D01*
X127580388Y-100680388D01*
X127482406Y-100827027D01*
X127448000Y-101000000D01*
X127448000Y-101348000D01*
X127329901Y-101348000D01*
X127307555Y-101229241D01*
X127235938Y-101117946D01*
X127126664Y-101043282D01*
X127099700Y-101037822D01*
X127099700Y-99747700D01*
X127065294Y-99574727D01*
X127031193Y-99523691D01*
X126967313Y-99428088D01*
X125769612Y-98230388D01*
X125622973Y-98132406D01*
X125450000Y-98098000D01*
X124998622Y-98098000D01*
X124985605Y-98028821D01*
X124913988Y-97917526D01*
X124804714Y-97842862D01*
X124675000Y-97816594D01*
X123925000Y-97816594D01*
X123803821Y-97839395D01*
X123692526Y-97911012D01*
X123617862Y-98020286D01*
X123602124Y-98098000D01*
X123206215Y-98098000D01*
X123188568Y-98070576D01*
X123079294Y-97995912D01*
X122949580Y-97969644D01*
X122050420Y-97969644D01*
X121929241Y-97992445D01*
X121817946Y-98064062D01*
X121743282Y-98173336D01*
X121737822Y-98200300D01*
X119539524Y-98200300D01*
X119451976Y-98112752D01*
X119526580Y-97933088D01*
X119527019Y-97429123D01*
X119334567Y-96963353D01*
X118978521Y-96606686D01*
X118513088Y-96413420D01*
X118009123Y-96412981D01*
X117543353Y-96605433D01*
X117186686Y-96961479D01*
X116993420Y-97426912D01*
X116992981Y-97930877D01*
X114577000Y-97930877D01*
X114577000Y-96060877D01*
X119642981Y-96060877D01*
X119835433Y-96526647D01*
X120191479Y-96883314D01*
X120656912Y-97076580D01*
X121160877Y-97077019D01*
X121626647Y-96884567D01*
X121983314Y-96528521D01*
X122176580Y-96063088D01*
X122176581Y-96060877D01*
X122182981Y-96060877D01*
X122375433Y-96526647D01*
X122731479Y-96883314D01*
X123196912Y-97076580D01*
X123700877Y-97077019D01*
X124166647Y-96884567D01*
X124523314Y-96528521D01*
X124716580Y-96063088D01*
X124716581Y-96060877D01*
X124722981Y-96060877D01*
X124915433Y-96526647D01*
X125271479Y-96883314D01*
X125736912Y-97076580D01*
X126240877Y-97077019D01*
X126706647Y-96884567D01*
X127063314Y-96528521D01*
X127256580Y-96063088D01*
X127257019Y-95559123D01*
X127064567Y-95093353D01*
X126708521Y-94736686D01*
X126243088Y-94543420D01*
X125739123Y-94542981D01*
X125273353Y-94735433D01*
X124916686Y-95091479D01*
X124723420Y-95556912D01*
X124722981Y-96060877D01*
X124716581Y-96060877D01*
X124717019Y-95559123D01*
X124524567Y-95093353D01*
X124168521Y-94736686D01*
X123703088Y-94543420D01*
X123199123Y-94542981D01*
X122733353Y-94735433D01*
X122376686Y-95091479D01*
X122183420Y-95556912D01*
X122182981Y-96060877D01*
X122176581Y-96060877D01*
X122177019Y-95559123D01*
X121984567Y-95093353D01*
X121628521Y-94736686D01*
X121163088Y-94543420D01*
X120659123Y-94542981D01*
X120193353Y-94735433D01*
X119836686Y-95091479D01*
X119643420Y-95556912D01*
X119642981Y-96060877D01*
X114577000Y-96060877D01*
X114577000Y-92858060D01*
X120234889Y-89077579D01*
X126999998Y-87731915D01*
X133765111Y-89077579D01*
G36*
X126195700Y-99934925D02*
X126195700Y-100946544D01*
X126061248Y-100812093D01*
X125827859Y-100715420D01*
X125638050Y-100715420D01*
X125479300Y-100874170D01*
X125479300Y-101673000D01*
X125499300Y-101673000D01*
X125499300Y-101927000D01*
X125479300Y-101927000D01*
X125479300Y-102725830D01*
X125638050Y-102884580D01*
X125827859Y-102884580D01*
X126061248Y-102787907D01*
X126239877Y-102609279D01*
X126254458Y-102574077D01*
X126298450Y-102582986D01*
X126996950Y-102582986D01*
X127118129Y-102560185D01*
X127229424Y-102488568D01*
X127304088Y-102379294D01*
X127329866Y-102252000D01*
X127728859Y-102252000D01*
X127773570Y-102281875D01*
X127664723Y-102390721D01*
X127568050Y-102624110D01*
X127568050Y-102914250D01*
X127726800Y-103073000D01*
X128425300Y-103073000D01*
X128425300Y-103053000D01*
X128679300Y-103053000D01*
X128679300Y-103073000D01*
X128699300Y-103073000D01*
X128699300Y-103327000D01*
X128679300Y-103327000D01*
X128679300Y-103347000D01*
X128425300Y-103347000D01*
X128425300Y-103327000D01*
X127726800Y-103327000D01*
X127568050Y-103485750D01*
X127568050Y-103531270D01*
X127567594Y-103528978D01*
X127554818Y-103509857D01*
X127548088Y-103487872D01*
X127506194Y-103437087D01*
X127469613Y-103382339D01*
X127399661Y-103312388D01*
X127253022Y-103214406D01*
X127080049Y-103180000D01*
X125409224Y-103180000D01*
X125090177Y-102860953D01*
X125225300Y-102725830D01*
X125225300Y-101927000D01*
X125205300Y-101927000D01*
X125205300Y-101673000D01*
X125225300Y-101673000D01*
X125225300Y-100874170D01*
X125187078Y-100835948D01*
X125213327Y-100809698D01*
X125310000Y-100576309D01*
X125310000Y-100335750D01*
X125151250Y-100177000D01*
X124427000Y-100177000D01*
X124427000Y-100926250D01*
X124478097Y-100977347D01*
X124464723Y-100990721D01*
X124368050Y-101224110D01*
X124368050Y-101376826D01*
X124045237Y-101054013D01*
X124173000Y-100926250D01*
X124173000Y-100177000D01*
X123528130Y-100177000D01*
X123425830Y-100074700D01*
X122627000Y-100074700D01*
X122627000Y-100094700D01*
X122373000Y-100094700D01*
X122373000Y-100074700D01*
X121574170Y-100074700D01*
X121415420Y-100233450D01*
X121415420Y-100423259D01*
X121505197Y-100640000D01*
X120837225Y-100640000D01*
X120594000Y-100396776D01*
X120594000Y-99104300D01*
X121646544Y-99104300D01*
X121512093Y-99238752D01*
X121415420Y-99472141D01*
X121415420Y-99661950D01*
X121574170Y-99820700D01*
X122373000Y-99820700D01*
X122373000Y-99800700D01*
X122627000Y-99800700D01*
X122627000Y-99820700D01*
X123346450Y-99820700D01*
X123448750Y-99923000D01*
X124173000Y-99923000D01*
X124173000Y-99903000D01*
X124427000Y-99903000D01*
X124427000Y-99923000D01*
X125151250Y-99923000D01*
X125310000Y-99764250D01*
X125310000Y-99523691D01*
X125213327Y-99290302D01*
X125034699Y-99111673D01*
X124976713Y-99087654D01*
X124982138Y-99079714D01*
X124997876Y-99002000D01*
X125262776Y-99002000D01*
X126195700Y-99934925D01*
X126195700Y-99934925D01*
G37*
X126195700Y-99934925D02*
X126195700Y-100946544D01*
X126061248Y-100812093D01*
X125827859Y-100715420D01*
X125638050Y-100715420D01*
X125479300Y-100874170D01*
X125479300Y-101673000D01*
X125499300Y-101673000D01*
X125499300Y-101927000D01*
X125479300Y-101927000D01*
X125479300Y-102725830D01*
X125638050Y-102884580D01*
X125827859Y-102884580D01*
X126061248Y-102787907D01*
X126239877Y-102609279D01*
X126254458Y-102574077D01*
X126298450Y-102582986D01*
X126996950Y-102582986D01*
X127118129Y-102560185D01*
X127229424Y-102488568D01*
X127304088Y-102379294D01*
X127329866Y-102252000D01*
X127728859Y-102252000D01*
X127773570Y-102281875D01*
X127664723Y-102390721D01*
X127568050Y-102624110D01*
X127568050Y-102914250D01*
X127726800Y-103073000D01*
X128425300Y-103073000D01*
X128425300Y-103053000D01*
X128679300Y-103053000D01*
X128679300Y-103073000D01*
X128699300Y-103073000D01*
X128699300Y-103327000D01*
X128679300Y-103327000D01*
X128679300Y-103347000D01*
X128425300Y-103347000D01*
X128425300Y-103327000D01*
X127726800Y-103327000D01*
X127568050Y-103485750D01*
X127568050Y-103531270D01*
X127567594Y-103528978D01*
X127554818Y-103509857D01*
X127548088Y-103487872D01*
X127506194Y-103437087D01*
X127469613Y-103382339D01*
X127399661Y-103312388D01*
X127253022Y-103214406D01*
X127080049Y-103180000D01*
X125409224Y-103180000D01*
X125090177Y-102860953D01*
X125225300Y-102725830D01*
X125225300Y-101927000D01*
X125205300Y-101927000D01*
X125205300Y-101673000D01*
X125225300Y-101673000D01*
X125225300Y-100874170D01*
X125187078Y-100835948D01*
X125213327Y-100809698D01*
X125310000Y-100576309D01*
X125310000Y-100335750D01*
X125151250Y-100177000D01*
X124427000Y-100177000D01*
X124427000Y-100926250D01*
X124478097Y-100977347D01*
X124464723Y-100990721D01*
X124368050Y-101224110D01*
X124368050Y-101376826D01*
X124045237Y-101054013D01*
X124173000Y-100926250D01*
X124173000Y-100177000D01*
X123528130Y-100177000D01*
X123425830Y-100074700D01*
X122627000Y-100074700D01*
X122627000Y-100094700D01*
X122373000Y-100094700D01*
X122373000Y-100074700D01*
X121574170Y-100074700D01*
X121415420Y-100233450D01*
X121415420Y-100423259D01*
X121505197Y-100640000D01*
X120837225Y-100640000D01*
X120594000Y-100396776D01*
X120594000Y-99104300D01*
X121646544Y-99104300D01*
X121512093Y-99238752D01*
X121415420Y-99472141D01*
X121415420Y-99661950D01*
X121574170Y-99820700D01*
X122373000Y-99820700D01*
X122373000Y-99800700D01*
X122627000Y-99800700D01*
X122627000Y-99820700D01*
X123346450Y-99820700D01*
X123448750Y-99923000D01*
X124173000Y-99923000D01*
X124173000Y-99903000D01*
X124427000Y-99903000D01*
X124427000Y-99923000D01*
X125151250Y-99923000D01*
X125310000Y-99764250D01*
X125310000Y-99523691D01*
X125213327Y-99290302D01*
X125034699Y-99111673D01*
X124976713Y-99087654D01*
X124982138Y-99079714D01*
X124997876Y-99002000D01*
X125262776Y-99002000D01*
X126195700Y-99934925D01*
M02*
