G04 #@! TF.FileFunction,Legend,Top*
%FSLAX46Y46*%
G04 Gerber Fmt 4.6, Leading zero omitted, Abs format (unit mm)*
G04 Created by KiCad (PCBNEW 4.0.6-e0-6349~53~ubuntu16.04.1) date Wed Jun 21 16:24:44 2017*
%MOMM*%
%LPD*%
G01*
G04 APERTURE LIST*
%ADD10C,0.100000*%
%ADD11C,0.150000*%
%ADD12C,0.300000*%
%ADD13C,0.400000*%
%ADD14C,0.120000*%
%ADD15C,0.066040*%
%ADD16C,0.050800*%
%ADD17C,0.203200*%
%ADD18C,0.050000*%
%ADD19C,0.152400*%
%ADD20C,0.101600*%
G04 APERTURE END LIST*
D10*
D11*
X177002200Y-166007200D02*
X177002200Y-198007200D01*
X285002200Y-198007200D01*
X285002200Y-166007200D01*
X177002200Y-166007200D01*
D10*
D11*
X10000000Y-10000000D02*
X10000000Y-200007200D01*
X287002200Y-200007200D01*
X287002200Y-10000000D01*
X10000000Y-10000000D01*
D10*
D11*
X12000000Y-12000000D02*
X12000000Y-198007200D01*
X285002200Y-198007200D01*
X285002200Y-12000000D01*
X12000000Y-12000000D01*
D10*
D11*
X60000000Y-12000000D02*
X60000000Y-10000000D01*
D10*
D11*
X110000000Y-12000000D02*
X110000000Y-10000000D01*
D10*
D11*
X160000000Y-12000000D02*
X160000000Y-10000000D01*
D10*
D11*
X210000000Y-12000000D02*
X210000000Y-10000000D01*
D10*
D11*
X260000000Y-12000000D02*
X260000000Y-10000000D01*
D10*
D11*
X35990476Y-11588095D02*
X35247619Y-11588095D01*
X35619048Y-11588095D02*
X35619048Y-10288095D01*
X35495238Y-10473810D01*
X35371429Y-10597619D01*
X35247619Y-10659524D01*
D10*
D11*
X85247619Y-10411905D02*
X85309524Y-10350000D01*
X85433333Y-10288095D01*
X85742857Y-10288095D01*
X85866667Y-10350000D01*
X85928571Y-10411905D01*
X85990476Y-10535714D01*
X85990476Y-10659524D01*
X85928571Y-10845238D01*
X85185714Y-11588095D01*
X85990476Y-11588095D01*
D10*
D11*
X135185714Y-10288095D02*
X135990476Y-10288095D01*
X135557143Y-10783333D01*
X135742857Y-10783333D01*
X135866667Y-10845238D01*
X135928571Y-10907143D01*
X135990476Y-11030952D01*
X135990476Y-11340476D01*
X135928571Y-11464286D01*
X135866667Y-11526190D01*
X135742857Y-11588095D01*
X135371429Y-11588095D01*
X135247619Y-11526190D01*
X135185714Y-11464286D01*
D10*
D11*
X185866667Y-10721429D02*
X185866667Y-11588095D01*
X185557143Y-10226190D02*
X185247619Y-11154762D01*
X186052381Y-11154762D01*
D10*
D11*
X235928571Y-10288095D02*
X235309524Y-10288095D01*
X235247619Y-10907143D01*
X235309524Y-10845238D01*
X235433333Y-10783333D01*
X235742857Y-10783333D01*
X235866667Y-10845238D01*
X235928571Y-10907143D01*
X235990476Y-11030952D01*
X235990476Y-11340476D01*
X235928571Y-11464286D01*
X235866667Y-11526190D01*
X235742857Y-11588095D01*
X235433333Y-11588095D01*
X235309524Y-11526190D01*
X235247619Y-11464286D01*
D10*
D11*
X285866667Y-10288095D02*
X285619048Y-10288095D01*
X285495238Y-10350000D01*
X285433333Y-10411905D01*
X285309524Y-10597619D01*
X285247619Y-10845238D01*
X285247619Y-11340476D01*
X285309524Y-11464286D01*
X285371429Y-11526190D01*
X285495238Y-11588095D01*
X285742857Y-11588095D01*
X285866667Y-11526190D01*
X285928571Y-11464286D01*
X285990476Y-11340476D01*
X285990476Y-11030952D01*
X285928571Y-10907143D01*
X285866667Y-10845238D01*
X285742857Y-10783333D01*
X285495238Y-10783333D01*
X285371429Y-10845238D01*
X285309524Y-10907143D01*
X285247619Y-11030952D01*
D10*
D11*
X60000000Y-198007200D02*
X60000000Y-200007200D01*
D10*
D11*
X110000000Y-198007200D02*
X110000000Y-200007200D01*
D10*
D11*
X160000000Y-198007200D02*
X160000000Y-200007200D01*
D10*
D11*
X210000000Y-198007200D02*
X210000000Y-200007200D01*
D10*
D11*
X260000000Y-198007200D02*
X260000000Y-200007200D01*
D10*
D11*
X35990476Y-199595295D02*
X35247619Y-199595295D01*
X35619048Y-199595295D02*
X35619048Y-198295295D01*
X35495238Y-198481010D01*
X35371429Y-198604819D01*
X35247619Y-198666724D01*
D10*
D11*
X85247619Y-198419105D02*
X85309524Y-198357200D01*
X85433333Y-198295295D01*
X85742857Y-198295295D01*
X85866667Y-198357200D01*
X85928571Y-198419105D01*
X85990476Y-198542914D01*
X85990476Y-198666724D01*
X85928571Y-198852438D01*
X85185714Y-199595295D01*
X85990476Y-199595295D01*
D10*
D11*
X135185714Y-198295295D02*
X135990476Y-198295295D01*
X135557143Y-198790533D01*
X135742857Y-198790533D01*
X135866667Y-198852438D01*
X135928571Y-198914343D01*
X135990476Y-199038152D01*
X135990476Y-199347676D01*
X135928571Y-199471486D01*
X135866667Y-199533390D01*
X135742857Y-199595295D01*
X135371429Y-199595295D01*
X135247619Y-199533390D01*
X135185714Y-199471486D01*
D10*
D11*
X185866667Y-198728629D02*
X185866667Y-199595295D01*
X185557143Y-198233390D02*
X185247619Y-199161962D01*
X186052381Y-199161962D01*
D10*
D11*
X235928571Y-198295295D02*
X235309524Y-198295295D01*
X235247619Y-198914343D01*
X235309524Y-198852438D01*
X235433333Y-198790533D01*
X235742857Y-198790533D01*
X235866667Y-198852438D01*
X235928571Y-198914343D01*
X235990476Y-199038152D01*
X235990476Y-199347676D01*
X235928571Y-199471486D01*
X235866667Y-199533390D01*
X235742857Y-199595295D01*
X235433333Y-199595295D01*
X235309524Y-199533390D01*
X235247619Y-199471486D01*
D10*
D11*
X285866667Y-198295295D02*
X285619048Y-198295295D01*
X285495238Y-198357200D01*
X285433333Y-198419105D01*
X285309524Y-198604819D01*
X285247619Y-198852438D01*
X285247619Y-199347676D01*
X285309524Y-199471486D01*
X285371429Y-199533390D01*
X285495238Y-199595295D01*
X285742857Y-199595295D01*
X285866667Y-199533390D01*
X285928571Y-199471486D01*
X285990476Y-199347676D01*
X285990476Y-199038152D01*
X285928571Y-198914343D01*
X285866667Y-198852438D01*
X285742857Y-198790533D01*
X285495238Y-198790533D01*
X285371429Y-198852438D01*
X285309524Y-198914343D01*
X285247619Y-199038152D01*
D10*
D11*
X10000000Y-60000000D02*
X12000000Y-60000000D01*
D10*
D11*
X10000000Y-110000000D02*
X12000000Y-110000000D01*
D10*
D11*
X10000000Y-160000000D02*
X12000000Y-160000000D01*
D10*
D11*
X10690476Y-35216667D02*
X11309524Y-35216667D01*
X10566667Y-35588095D02*
X11000000Y-34288095D01*
X11433333Y-35588095D01*
D10*
D11*
X11092857Y-84907143D02*
X11278571Y-84969048D01*
X11340476Y-85030952D01*
X11402381Y-85154762D01*
X11402381Y-85340476D01*
X11340476Y-85464286D01*
X11278571Y-85526190D01*
X11154762Y-85588095D01*
X10659524Y-85588095D01*
X10659524Y-84288095D01*
X11092857Y-84288095D01*
X11216667Y-84350000D01*
X11278571Y-84411905D01*
X11340476Y-84535714D01*
X11340476Y-84659524D01*
X11278571Y-84783333D01*
X11216667Y-84845238D01*
X11092857Y-84907143D01*
X10659524Y-84907143D01*
D10*
D11*
X11402381Y-135464286D02*
X11340476Y-135526190D01*
X11154762Y-135588095D01*
X11030952Y-135588095D01*
X10845238Y-135526190D01*
X10721429Y-135402381D01*
X10659524Y-135278571D01*
X10597619Y-135030952D01*
X10597619Y-134845238D01*
X10659524Y-134597619D01*
X10721429Y-134473810D01*
X10845238Y-134350000D01*
X11030952Y-134288095D01*
X11154762Y-134288095D01*
X11340476Y-134350000D01*
X11402381Y-134411905D01*
D10*
D11*
X10659524Y-185588095D02*
X10659524Y-184288095D01*
X10969048Y-184288095D01*
X11154762Y-184350000D01*
X11278571Y-184473810D01*
X11340476Y-184597619D01*
X11402381Y-184845238D01*
X11402381Y-185030952D01*
X11340476Y-185278571D01*
X11278571Y-185402381D01*
X11154762Y-185526190D01*
X10969048Y-185588095D01*
X10659524Y-185588095D01*
D10*
D11*
X287002200Y-60000000D02*
X285002200Y-60000000D01*
D10*
D11*
X287002200Y-110000000D02*
X285002200Y-110000000D01*
D10*
D11*
X287002200Y-160000000D02*
X285002200Y-160000000D01*
D10*
D11*
X285692676Y-35216667D02*
X286311724Y-35216667D01*
X285568867Y-35588095D02*
X286002200Y-34288095D01*
X286435533Y-35588095D01*
D10*
D11*
X286095057Y-84907143D02*
X286280771Y-84969048D01*
X286342676Y-85030952D01*
X286404581Y-85154762D01*
X286404581Y-85340476D01*
X286342676Y-85464286D01*
X286280771Y-85526190D01*
X286156962Y-85588095D01*
X285661724Y-85588095D01*
X285661724Y-84288095D01*
X286095057Y-84288095D01*
X286218867Y-84350000D01*
X286280771Y-84411905D01*
X286342676Y-84535714D01*
X286342676Y-84659524D01*
X286280771Y-84783333D01*
X286218867Y-84845238D01*
X286095057Y-84907143D01*
X285661724Y-84907143D01*
D10*
D11*
X286404581Y-135464286D02*
X286342676Y-135526190D01*
X286156962Y-135588095D01*
X286033152Y-135588095D01*
X285847438Y-135526190D01*
X285723629Y-135402381D01*
X285661724Y-135278571D01*
X285599819Y-135030952D01*
X285599819Y-134845238D01*
X285661724Y-134597619D01*
X285723629Y-134473810D01*
X285847438Y-134350000D01*
X286033152Y-134288095D01*
X286156962Y-134288095D01*
X286342676Y-134350000D01*
X286404581Y-134411905D01*
D10*
D11*
X285661724Y-185588095D02*
X285661724Y-184288095D01*
X285971248Y-184288095D01*
X286156962Y-184350000D01*
X286280771Y-184473810D01*
X286342676Y-184597619D01*
X286404581Y-184845238D01*
X286404581Y-185030952D01*
X286342676Y-185278571D01*
X286280771Y-185402381D01*
X286156962Y-185526190D01*
X285971248Y-185588095D01*
X285661724Y-185588095D01*
D10*
D11*
X200359343Y-193785771D02*
X200359343Y-192285771D01*
X200716486Y-192285771D01*
X200930771Y-192357200D01*
X201073629Y-192500057D01*
X201145057Y-192642914D01*
X201216486Y-192928629D01*
X201216486Y-193142914D01*
X201145057Y-193428629D01*
X201073629Y-193571486D01*
X200930771Y-193714343D01*
X200716486Y-193785771D01*
X200359343Y-193785771D01*
X202502200Y-193785771D02*
X202502200Y-193000057D01*
X202430771Y-192857200D01*
X202287914Y-192785771D01*
X202002200Y-192785771D01*
X201859343Y-192857200D01*
X202502200Y-193714343D02*
X202359343Y-193785771D01*
X202002200Y-193785771D01*
X201859343Y-193714343D01*
X201787914Y-193571486D01*
X201787914Y-193428629D01*
X201859343Y-193285771D01*
X202002200Y-193214343D01*
X202359343Y-193214343D01*
X202502200Y-193142914D01*
X203002200Y-192785771D02*
X203573629Y-192785771D01*
X203216486Y-192285771D02*
X203216486Y-193571486D01*
X203287914Y-193714343D01*
X203430772Y-193785771D01*
X203573629Y-193785771D01*
X204645057Y-193714343D02*
X204502200Y-193785771D01*
X204216486Y-193785771D01*
X204073629Y-193714343D01*
X204002200Y-193571486D01*
X204002200Y-193000057D01*
X204073629Y-192857200D01*
X204216486Y-192785771D01*
X204502200Y-192785771D01*
X204645057Y-192857200D01*
X204716486Y-193000057D01*
X204716486Y-193142914D01*
X204002200Y-193285771D01*
X205359343Y-193642914D02*
X205430771Y-193714343D01*
X205359343Y-193785771D01*
X205287914Y-193714343D01*
X205359343Y-193642914D01*
X205359343Y-193785771D01*
X205359343Y-192857200D02*
X205430771Y-192928629D01*
X205359343Y-193000057D01*
X205287914Y-192928629D01*
X205359343Y-192857200D01*
X205359343Y-193000057D01*
D10*
D11*
X177002200Y-194507200D02*
X285002200Y-194507200D01*
D10*
D11*
X178359343Y-196585771D02*
X178359343Y-195085771D01*
X179216486Y-196585771D02*
X178573629Y-195728629D01*
X179216486Y-195085771D02*
X178359343Y-195942914D01*
X179859343Y-196585771D02*
X179859343Y-195585771D01*
X179859343Y-195085771D02*
X179787914Y-195157200D01*
X179859343Y-195228629D01*
X179930771Y-195157200D01*
X179859343Y-195085771D01*
X179859343Y-195228629D01*
X181430772Y-196442914D02*
X181359343Y-196514343D01*
X181145057Y-196585771D01*
X181002200Y-196585771D01*
X180787915Y-196514343D01*
X180645057Y-196371486D01*
X180573629Y-196228629D01*
X180502200Y-195942914D01*
X180502200Y-195728629D01*
X180573629Y-195442914D01*
X180645057Y-195300057D01*
X180787915Y-195157200D01*
X181002200Y-195085771D01*
X181145057Y-195085771D01*
X181359343Y-195157200D01*
X181430772Y-195228629D01*
X182716486Y-196585771D02*
X182716486Y-195800057D01*
X182645057Y-195657200D01*
X182502200Y-195585771D01*
X182216486Y-195585771D01*
X182073629Y-195657200D01*
X182716486Y-196514343D02*
X182573629Y-196585771D01*
X182216486Y-196585771D01*
X182073629Y-196514343D01*
X182002200Y-196371486D01*
X182002200Y-196228629D01*
X182073629Y-196085771D01*
X182216486Y-196014343D01*
X182573629Y-196014343D01*
X182716486Y-195942914D01*
X184073629Y-196585771D02*
X184073629Y-195085771D01*
X184073629Y-196514343D02*
X183930772Y-196585771D01*
X183645058Y-196585771D01*
X183502200Y-196514343D01*
X183430772Y-196442914D01*
X183359343Y-196300057D01*
X183359343Y-195871486D01*
X183430772Y-195728629D01*
X183502200Y-195657200D01*
X183645058Y-195585771D01*
X183930772Y-195585771D01*
X184073629Y-195657200D01*
X185930772Y-195800057D02*
X186430772Y-195800057D01*
X186645058Y-196585771D02*
X185930772Y-196585771D01*
X185930772Y-195085771D01*
X186645058Y-195085771D01*
X187287915Y-196442914D02*
X187359343Y-196514343D01*
X187287915Y-196585771D01*
X187216486Y-196514343D01*
X187287915Y-196442914D01*
X187287915Y-196585771D01*
X188002201Y-196585771D02*
X188002201Y-195085771D01*
X188359344Y-195085771D01*
X188573629Y-195157200D01*
X188716487Y-195300057D01*
X188787915Y-195442914D01*
X188859344Y-195728629D01*
X188859344Y-195942914D01*
X188787915Y-196228629D01*
X188716487Y-196371486D01*
X188573629Y-196514343D01*
X188359344Y-196585771D01*
X188002201Y-196585771D01*
X189502201Y-196442914D02*
X189573629Y-196514343D01*
X189502201Y-196585771D01*
X189430772Y-196514343D01*
X189502201Y-196442914D01*
X189502201Y-196585771D01*
X190145058Y-196157200D02*
X190859344Y-196157200D01*
X190002201Y-196585771D02*
X190502201Y-195085771D01*
X191002201Y-196585771D01*
X191502201Y-196442914D02*
X191573629Y-196514343D01*
X191502201Y-196585771D01*
X191430772Y-196514343D01*
X191502201Y-196442914D01*
X191502201Y-196585771D01*
X194502201Y-196585771D02*
X194502201Y-195085771D01*
X194645058Y-196014343D02*
X195073629Y-196585771D01*
X195073629Y-195585771D02*
X194502201Y-196157200D01*
X195716487Y-196585771D02*
X195716487Y-195585771D01*
X195716487Y-195085771D02*
X195645058Y-195157200D01*
X195716487Y-195228629D01*
X195787915Y-195157200D01*
X195716487Y-195085771D01*
X195716487Y-195228629D01*
X197073630Y-196514343D02*
X196930773Y-196585771D01*
X196645059Y-196585771D01*
X196502201Y-196514343D01*
X196430773Y-196442914D01*
X196359344Y-196300057D01*
X196359344Y-195871486D01*
X196430773Y-195728629D01*
X196502201Y-195657200D01*
X196645059Y-195585771D01*
X196930773Y-195585771D01*
X197073630Y-195657200D01*
X198359344Y-196585771D02*
X198359344Y-195800057D01*
X198287915Y-195657200D01*
X198145058Y-195585771D01*
X197859344Y-195585771D01*
X197716487Y-195657200D01*
X198359344Y-196514343D02*
X198216487Y-196585771D01*
X197859344Y-196585771D01*
X197716487Y-196514343D01*
X197645058Y-196371486D01*
X197645058Y-196228629D01*
X197716487Y-196085771D01*
X197859344Y-196014343D01*
X198216487Y-196014343D01*
X198359344Y-195942914D01*
X199716487Y-196585771D02*
X199716487Y-195085771D01*
X199716487Y-196514343D02*
X199573630Y-196585771D01*
X199287916Y-196585771D01*
X199145058Y-196514343D01*
X199073630Y-196442914D01*
X199002201Y-196300057D01*
X199002201Y-195871486D01*
X199073630Y-195728629D01*
X199145058Y-195657200D01*
X199287916Y-195585771D01*
X199573630Y-195585771D01*
X199716487Y-195657200D01*
X202216487Y-195585771D02*
X202216487Y-196585771D01*
X201859344Y-195014343D02*
X201502201Y-196085771D01*
X202430773Y-196085771D01*
X203002201Y-196442914D02*
X203073629Y-196514343D01*
X203002201Y-196585771D01*
X202930772Y-196514343D01*
X203002201Y-196442914D01*
X203002201Y-196585771D01*
X204002201Y-195085771D02*
X204145058Y-195085771D01*
X204287915Y-195157200D01*
X204359344Y-195228629D01*
X204430773Y-195371486D01*
X204502201Y-195657200D01*
X204502201Y-196014343D01*
X204430773Y-196300057D01*
X204359344Y-196442914D01*
X204287915Y-196514343D01*
X204145058Y-196585771D01*
X204002201Y-196585771D01*
X203859344Y-196514343D01*
X203787915Y-196442914D01*
X203716487Y-196300057D01*
X203645058Y-196014343D01*
X203645058Y-195657200D01*
X203716487Y-195371486D01*
X203787915Y-195228629D01*
X203859344Y-195157200D01*
X204002201Y-195085771D01*
X205145058Y-196442914D02*
X205216486Y-196514343D01*
X205145058Y-196585771D01*
X205073629Y-196514343D01*
X205145058Y-196442914D01*
X205145058Y-196585771D01*
X206502201Y-195085771D02*
X206216487Y-195085771D01*
X206073630Y-195157200D01*
X206002201Y-195228629D01*
X205859344Y-195442914D01*
X205787915Y-195728629D01*
X205787915Y-196300057D01*
X205859344Y-196442914D01*
X205930772Y-196514343D01*
X206073630Y-196585771D01*
X206359344Y-196585771D01*
X206502201Y-196514343D01*
X206573630Y-196442914D01*
X206645058Y-196300057D01*
X206645058Y-195942914D01*
X206573630Y-195800057D01*
X206502201Y-195728629D01*
X206359344Y-195657200D01*
X206073630Y-195657200D01*
X205930772Y-195728629D01*
X205859344Y-195800057D01*
X205787915Y-195942914D01*
X207287915Y-196014343D02*
X208430772Y-196014343D01*
X209716486Y-196514343D02*
X209573629Y-196585771D01*
X209287915Y-196585771D01*
X209145058Y-196514343D01*
X209073629Y-196371486D01*
X209073629Y-195800057D01*
X209145058Y-195657200D01*
X209287915Y-195585771D01*
X209573629Y-195585771D01*
X209716486Y-195657200D01*
X209787915Y-195800057D01*
X209787915Y-195942914D01*
X209073629Y-196085771D01*
X210716486Y-195085771D02*
X210859343Y-195085771D01*
X211002200Y-195157200D01*
X211073629Y-195228629D01*
X211145058Y-195371486D01*
X211216486Y-195657200D01*
X211216486Y-196014343D01*
X211145058Y-196300057D01*
X211073629Y-196442914D01*
X211002200Y-196514343D01*
X210859343Y-196585771D01*
X210716486Y-196585771D01*
X210573629Y-196514343D01*
X210502200Y-196442914D01*
X210430772Y-196300057D01*
X210359343Y-196014343D01*
X210359343Y-195657200D01*
X210430772Y-195371486D01*
X210502200Y-195228629D01*
X210573629Y-195157200D01*
X210716486Y-195085771D01*
X211859343Y-196014343D02*
X213002200Y-196014343D01*
X214359343Y-195085771D02*
X214073629Y-195085771D01*
X213930772Y-195157200D01*
X213859343Y-195228629D01*
X213716486Y-195442914D01*
X213645057Y-195728629D01*
X213645057Y-196300057D01*
X213716486Y-196442914D01*
X213787914Y-196514343D01*
X213930772Y-196585771D01*
X214216486Y-196585771D01*
X214359343Y-196514343D01*
X214430772Y-196442914D01*
X214502200Y-196300057D01*
X214502200Y-195942914D01*
X214430772Y-195800057D01*
X214359343Y-195728629D01*
X214216486Y-195657200D01*
X213930772Y-195657200D01*
X213787914Y-195728629D01*
X213716486Y-195800057D01*
X213645057Y-195942914D01*
X215002200Y-195085771D02*
X215930771Y-195085771D01*
X215430771Y-195657200D01*
X215645057Y-195657200D01*
X215787914Y-195728629D01*
X215859343Y-195800057D01*
X215930771Y-195942914D01*
X215930771Y-196300057D01*
X215859343Y-196442914D01*
X215787914Y-196514343D01*
X215645057Y-196585771D01*
X215216485Y-196585771D01*
X215073628Y-196514343D01*
X215002200Y-196442914D01*
X217216485Y-195585771D02*
X217216485Y-196585771D01*
X216859342Y-195014343D02*
X216502199Y-196085771D01*
X217430771Y-196085771D01*
X218073627Y-196585771D02*
X218359342Y-196585771D01*
X218502199Y-196514343D01*
X218573627Y-196442914D01*
X218716485Y-196228629D01*
X218787913Y-195942914D01*
X218787913Y-195371486D01*
X218716485Y-195228629D01*
X218645056Y-195157200D01*
X218502199Y-195085771D01*
X218216485Y-195085771D01*
X218073627Y-195157200D01*
X218002199Y-195228629D01*
X217930770Y-195371486D01*
X217930770Y-195728629D01*
X218002199Y-195871486D01*
X218073627Y-195942914D01*
X218216485Y-196014343D01*
X218502199Y-196014343D01*
X218645056Y-195942914D01*
X218716485Y-195871486D01*
X218787913Y-195728629D01*
X220145056Y-195085771D02*
X219430770Y-195085771D01*
X219359341Y-195800057D01*
X219430770Y-195728629D01*
X219573627Y-195657200D01*
X219930770Y-195657200D01*
X220073627Y-195728629D01*
X220145056Y-195800057D01*
X220216484Y-195942914D01*
X220216484Y-196300057D01*
X220145056Y-196442914D01*
X220073627Y-196514343D01*
X219930770Y-196585771D01*
X219573627Y-196585771D01*
X219430770Y-196514343D01*
X219359341Y-196442914D01*
X220716484Y-195085771D02*
X221645055Y-195085771D01*
X221145055Y-195657200D01*
X221359341Y-195657200D01*
X221502198Y-195728629D01*
X221573627Y-195800057D01*
X221645055Y-195942914D01*
X221645055Y-196300057D01*
X221573627Y-196442914D01*
X221502198Y-196514343D01*
X221359341Y-196585771D01*
X220930769Y-196585771D01*
X220787912Y-196514343D01*
X220716484Y-196442914D01*
X219073627Y-194827200D02*
X221930769Y-194827200D01*
X222930769Y-195585771D02*
X222930769Y-196585771D01*
X222287912Y-195585771D02*
X222287912Y-196371486D01*
X222359340Y-196514343D01*
X222502198Y-196585771D01*
X222716483Y-196585771D01*
X222859340Y-196514343D01*
X222930769Y-196442914D01*
X223645055Y-196585771D02*
X223645055Y-195085771D01*
X223645055Y-195657200D02*
X223787912Y-195585771D01*
X224073626Y-195585771D01*
X224216483Y-195657200D01*
X224287912Y-195728629D01*
X224359341Y-195871486D01*
X224359341Y-196300057D01*
X224287912Y-196442914D01*
X224216483Y-196514343D01*
X224073626Y-196585771D01*
X223787912Y-196585771D01*
X223645055Y-196514343D01*
X225645055Y-195585771D02*
X225645055Y-196585771D01*
X225002198Y-195585771D02*
X225002198Y-196371486D01*
X225073626Y-196514343D01*
X225216484Y-196585771D01*
X225430769Y-196585771D01*
X225573626Y-196514343D01*
X225645055Y-196442914D01*
X226359341Y-195585771D02*
X226359341Y-196585771D01*
X226359341Y-195728629D02*
X226430769Y-195657200D01*
X226573627Y-195585771D01*
X226787912Y-195585771D01*
X226930769Y-195657200D01*
X227002198Y-195800057D01*
X227002198Y-196585771D01*
X227502198Y-195585771D02*
X228073627Y-195585771D01*
X227716484Y-195085771D02*
X227716484Y-196371486D01*
X227787912Y-196514343D01*
X227930770Y-196585771D01*
X228073627Y-196585771D01*
X229216484Y-195585771D02*
X229216484Y-196585771D01*
X228573627Y-195585771D02*
X228573627Y-196371486D01*
X228645055Y-196514343D01*
X228787913Y-196585771D01*
X229002198Y-196585771D01*
X229145055Y-196514343D01*
X229216484Y-196442914D01*
X230716484Y-196585771D02*
X229859341Y-196585771D01*
X230287913Y-196585771D02*
X230287913Y-195085771D01*
X230145056Y-195300057D01*
X230002198Y-195442914D01*
X229859341Y-195514343D01*
X232002198Y-195085771D02*
X231716484Y-195085771D01*
X231573627Y-195157200D01*
X231502198Y-195228629D01*
X231359341Y-195442914D01*
X231287912Y-195728629D01*
X231287912Y-196300057D01*
X231359341Y-196442914D01*
X231430769Y-196514343D01*
X231573627Y-196585771D01*
X231859341Y-196585771D01*
X232002198Y-196514343D01*
X232073627Y-196442914D01*
X232145055Y-196300057D01*
X232145055Y-195942914D01*
X232073627Y-195800057D01*
X232002198Y-195728629D01*
X231859341Y-195657200D01*
X231573627Y-195657200D01*
X231430769Y-195728629D01*
X231359341Y-195800057D01*
X231287912Y-195942914D01*
X232787912Y-196442914D02*
X232859340Y-196514343D01*
X232787912Y-196585771D01*
X232716483Y-196514343D01*
X232787912Y-196442914D01*
X232787912Y-196585771D01*
X233787912Y-195085771D02*
X233930769Y-195085771D01*
X234073626Y-195157200D01*
X234145055Y-195228629D01*
X234216484Y-195371486D01*
X234287912Y-195657200D01*
X234287912Y-196014343D01*
X234216484Y-196300057D01*
X234145055Y-196442914D01*
X234073626Y-196514343D01*
X233930769Y-196585771D01*
X233787912Y-196585771D01*
X233645055Y-196514343D01*
X233573626Y-196442914D01*
X233502198Y-196300057D01*
X233430769Y-196014343D01*
X233430769Y-195657200D01*
X233502198Y-195371486D01*
X233573626Y-195228629D01*
X233645055Y-195157200D01*
X233787912Y-195085771D01*
X235573626Y-195585771D02*
X235573626Y-196585771D01*
X235216483Y-195014343D02*
X234859340Y-196085771D01*
X235787912Y-196085771D01*
X236359340Y-196442914D02*
X236430768Y-196514343D01*
X236359340Y-196585771D01*
X236287911Y-196514343D01*
X236359340Y-196442914D01*
X236359340Y-196585771D01*
X237859340Y-196585771D02*
X237002197Y-196585771D01*
X237430769Y-196585771D02*
X237430769Y-195085771D01*
X237287912Y-195300057D01*
X237145054Y-195442914D01*
X237002197Y-195514343D01*
D10*
D11*
X177002200Y-191507200D02*
X285002200Y-191507200D01*
D10*
D12*
X264216486Y-193785771D02*
X263716486Y-193071486D01*
X263359343Y-193785771D02*
X263359343Y-192285771D01*
X263930771Y-192285771D01*
X264073629Y-192357200D01*
X264145057Y-192428629D01*
X264216486Y-192571486D01*
X264216486Y-192785771D01*
X264145057Y-192928629D01*
X264073629Y-193000057D01*
X263930771Y-193071486D01*
X263359343Y-193071486D01*
X265430771Y-193714343D02*
X265287914Y-193785771D01*
X265002200Y-193785771D01*
X264859343Y-193714343D01*
X264787914Y-193571486D01*
X264787914Y-193000057D01*
X264859343Y-192857200D01*
X265002200Y-192785771D01*
X265287914Y-192785771D01*
X265430771Y-192857200D01*
X265502200Y-193000057D01*
X265502200Y-193142914D01*
X264787914Y-193285771D01*
X266002200Y-192785771D02*
X266359343Y-193785771D01*
X266716485Y-192785771D01*
X267287914Y-193642914D02*
X267359342Y-193714343D01*
X267287914Y-193785771D01*
X267216485Y-193714343D01*
X267287914Y-193642914D01*
X267287914Y-193785771D01*
X267287914Y-192857200D02*
X267359342Y-192928629D01*
X267287914Y-193000057D01*
X267216485Y-192928629D01*
X267287914Y-192857200D01*
X267287914Y-193000057D01*
D10*
D11*
X178287914Y-193714343D02*
X178502200Y-193785771D01*
X178859343Y-193785771D01*
X179002200Y-193714343D01*
X179073629Y-193642914D01*
X179145057Y-193500057D01*
X179145057Y-193357200D01*
X179073629Y-193214343D01*
X179002200Y-193142914D01*
X178859343Y-193071486D01*
X178573629Y-193000057D01*
X178430771Y-192928629D01*
X178359343Y-192857200D01*
X178287914Y-192714343D01*
X178287914Y-192571486D01*
X178359343Y-192428629D01*
X178430771Y-192357200D01*
X178573629Y-192285771D01*
X178930771Y-192285771D01*
X179145057Y-192357200D01*
X179787914Y-193785771D02*
X179787914Y-192785771D01*
X179787914Y-192285771D02*
X179716485Y-192357200D01*
X179787914Y-192428629D01*
X179859342Y-192357200D01*
X179787914Y-192285771D01*
X179787914Y-192428629D01*
X180359343Y-192785771D02*
X181145057Y-192785771D01*
X180359343Y-193785771D01*
X181145057Y-193785771D01*
X182287914Y-193714343D02*
X182145057Y-193785771D01*
X181859343Y-193785771D01*
X181716486Y-193714343D01*
X181645057Y-193571486D01*
X181645057Y-193000057D01*
X181716486Y-192857200D01*
X181859343Y-192785771D01*
X182145057Y-192785771D01*
X182287914Y-192857200D01*
X182359343Y-193000057D01*
X182359343Y-193142914D01*
X181645057Y-193285771D01*
X183002200Y-193642914D02*
X183073628Y-193714343D01*
X183002200Y-193785771D01*
X182930771Y-193714343D01*
X183002200Y-193642914D01*
X183002200Y-193785771D01*
X183002200Y-192857200D02*
X183073628Y-192928629D01*
X183002200Y-193000057D01*
X182930771Y-192928629D01*
X183002200Y-192857200D01*
X183002200Y-193000057D01*
X184787914Y-193357200D02*
X185502200Y-193357200D01*
X184645057Y-193785771D02*
X185145057Y-192285771D01*
X185645057Y-193785771D01*
X186787914Y-192785771D02*
X186787914Y-193785771D01*
X186430771Y-192214343D02*
X186073628Y-193285771D01*
X187002200Y-193285771D01*
D10*
D11*
X263359343Y-196585771D02*
X263359343Y-195085771D01*
X264716486Y-196585771D02*
X264716486Y-195085771D01*
X264716486Y-196514343D02*
X264573629Y-196585771D01*
X264287915Y-196585771D01*
X264145057Y-196514343D01*
X264073629Y-196442914D01*
X264002200Y-196300057D01*
X264002200Y-195871486D01*
X264073629Y-195728629D01*
X264145057Y-195657200D01*
X264287915Y-195585771D01*
X264573629Y-195585771D01*
X264716486Y-195657200D01*
X265430772Y-196442914D02*
X265502200Y-196514343D01*
X265430772Y-196585771D01*
X265359343Y-196514343D01*
X265430772Y-196442914D01*
X265430772Y-196585771D01*
X265430772Y-195657200D02*
X265502200Y-195728629D01*
X265430772Y-195800057D01*
X265359343Y-195728629D01*
X265430772Y-195657200D01*
X265430772Y-195800057D01*
X268073629Y-196585771D02*
X267216486Y-196585771D01*
X267645058Y-196585771D02*
X267645058Y-195085771D01*
X267502201Y-195300057D01*
X267359343Y-195442914D01*
X267216486Y-195514343D01*
X269787914Y-195014343D02*
X268502200Y-196942914D01*
X271073629Y-196585771D02*
X270216486Y-196585771D01*
X270645058Y-196585771D02*
X270645058Y-195085771D01*
X270502201Y-195300057D01*
X270359343Y-195442914D01*
X270216486Y-195514343D01*
D10*
D11*
X177002200Y-187507200D02*
X285002200Y-187507200D01*
D10*
D13*
X178454581Y-188211962D02*
X179597438Y-188211962D01*
X178776010Y-190211962D02*
X179026010Y-188211962D01*
X180014105Y-190211962D02*
X180180771Y-188878629D01*
X180264105Y-188211962D02*
X180156962Y-188307200D01*
X180240295Y-188402438D01*
X180347439Y-188307200D01*
X180264105Y-188211962D01*
X180240295Y-188402438D01*
X180847438Y-188878629D02*
X181609343Y-188878629D01*
X181216486Y-188211962D02*
X181002200Y-189926248D01*
X181073630Y-190116724D01*
X181252201Y-190211962D01*
X181442677Y-190211962D01*
X182395058Y-190211962D02*
X182216487Y-190116724D01*
X182145057Y-189926248D01*
X182359343Y-188211962D01*
X183930772Y-190116724D02*
X183728391Y-190211962D01*
X183347439Y-190211962D01*
X183168867Y-190116724D01*
X183097438Y-189926248D01*
X183192676Y-189164343D01*
X183311724Y-188973867D01*
X183514105Y-188878629D01*
X183895057Y-188878629D01*
X184073629Y-188973867D01*
X184145057Y-189164343D01*
X184121248Y-189354819D01*
X183145057Y-189545295D01*
X184895057Y-190021486D02*
X184978392Y-190116724D01*
X184871248Y-190211962D01*
X184787915Y-190116724D01*
X184895057Y-190021486D01*
X184871248Y-190211962D01*
X185026010Y-188973867D02*
X185109344Y-189069105D01*
X185002200Y-189164343D01*
X184918867Y-189069105D01*
X185026010Y-188973867D01*
X185002200Y-189164343D01*
D10*
D11*
X178859343Y-185600057D02*
X178359343Y-185600057D01*
X178359343Y-186385771D02*
X178359343Y-184885771D01*
X179073629Y-184885771D01*
X179645057Y-186385771D02*
X179645057Y-185385771D01*
X179645057Y-184885771D02*
X179573628Y-184957200D01*
X179645057Y-185028629D01*
X179716485Y-184957200D01*
X179645057Y-184885771D01*
X179645057Y-185028629D01*
X180573629Y-186385771D02*
X180430771Y-186314343D01*
X180359343Y-186171486D01*
X180359343Y-184885771D01*
X181716485Y-186314343D02*
X181573628Y-186385771D01*
X181287914Y-186385771D01*
X181145057Y-186314343D01*
X181073628Y-186171486D01*
X181073628Y-185600057D01*
X181145057Y-185457200D01*
X181287914Y-185385771D01*
X181573628Y-185385771D01*
X181716485Y-185457200D01*
X181787914Y-185600057D01*
X181787914Y-185742914D01*
X181073628Y-185885771D01*
X182430771Y-186242914D02*
X182502199Y-186314343D01*
X182430771Y-186385771D01*
X182359342Y-186314343D01*
X182430771Y-186242914D01*
X182430771Y-186385771D01*
X182430771Y-185457200D02*
X182502199Y-185528629D01*
X182430771Y-185600057D01*
X182359342Y-185528629D01*
X182430771Y-185457200D01*
X182430771Y-185600057D01*
X184216485Y-185957200D02*
X184930771Y-185957200D01*
X184073628Y-186385771D02*
X184573628Y-184885771D01*
X185073628Y-186385771D01*
X185573628Y-186385771D02*
X185573628Y-185385771D01*
X185573628Y-185671486D02*
X185645056Y-185528629D01*
X185716485Y-185457200D01*
X185859342Y-185385771D01*
X186002199Y-185385771D01*
X187145056Y-186385771D02*
X187145056Y-184885771D01*
X187145056Y-186314343D02*
X187002199Y-186385771D01*
X186716485Y-186385771D01*
X186573627Y-186314343D01*
X186502199Y-186242914D01*
X186430770Y-186100057D01*
X186430770Y-185671486D01*
X186502199Y-185528629D01*
X186573627Y-185457200D01*
X186716485Y-185385771D01*
X187002199Y-185385771D01*
X187145056Y-185457200D01*
X188502199Y-185385771D02*
X188502199Y-186385771D01*
X187859342Y-185385771D02*
X187859342Y-186171486D01*
X187930770Y-186314343D01*
X188073628Y-186385771D01*
X188287913Y-186385771D01*
X188430770Y-186314343D01*
X188502199Y-186242914D01*
X189216485Y-186385771D02*
X189216485Y-185385771D01*
X189216485Y-184885771D02*
X189145056Y-184957200D01*
X189216485Y-185028629D01*
X189287913Y-184957200D01*
X189216485Y-184885771D01*
X189216485Y-185028629D01*
X189930771Y-185385771D02*
X189930771Y-186385771D01*
X189930771Y-185528629D02*
X190002199Y-185457200D01*
X190145057Y-185385771D01*
X190359342Y-185385771D01*
X190502199Y-185457200D01*
X190573628Y-185600057D01*
X190573628Y-186385771D01*
X191502200Y-186385771D02*
X191359342Y-186314343D01*
X191287914Y-186242914D01*
X191216485Y-186100057D01*
X191216485Y-185671486D01*
X191287914Y-185528629D01*
X191359342Y-185457200D01*
X191502200Y-185385771D01*
X191716485Y-185385771D01*
X191859342Y-185457200D01*
X191930771Y-185528629D01*
X192002200Y-185671486D01*
X192002200Y-186100057D01*
X191930771Y-186242914D01*
X191859342Y-186314343D01*
X191716485Y-186385771D01*
X191502200Y-186385771D01*
X193787914Y-186385771D02*
X193787914Y-184885771D01*
X194359342Y-184885771D01*
X194502200Y-184957200D01*
X194573628Y-185028629D01*
X194645057Y-185171486D01*
X194645057Y-185385771D01*
X194573628Y-185528629D01*
X194502200Y-185600057D01*
X194359342Y-185671486D01*
X193787914Y-185671486D01*
X195287914Y-186385771D02*
X195287914Y-185385771D01*
X195287914Y-185671486D02*
X195359342Y-185528629D01*
X195430771Y-185457200D01*
X195573628Y-185385771D01*
X195716485Y-185385771D01*
X196430771Y-186385771D02*
X196287913Y-186314343D01*
X196216485Y-186242914D01*
X196145056Y-186100057D01*
X196145056Y-185671486D01*
X196216485Y-185528629D01*
X196287913Y-185457200D01*
X196430771Y-185385771D01*
X196645056Y-185385771D01*
X196787913Y-185457200D01*
X196859342Y-185528629D01*
X196930771Y-185671486D01*
X196930771Y-186100057D01*
X196859342Y-186242914D01*
X196787913Y-186314343D01*
X196645056Y-186385771D01*
X196430771Y-186385771D01*
X198716485Y-186385771D02*
X198716485Y-184885771D01*
X199216485Y-185957200D01*
X199716485Y-184885771D01*
X199716485Y-186385771D01*
X200430771Y-186385771D02*
X200430771Y-185385771D01*
X200430771Y-184885771D02*
X200359342Y-184957200D01*
X200430771Y-185028629D01*
X200502199Y-184957200D01*
X200430771Y-184885771D01*
X200430771Y-185028629D01*
X201145057Y-185385771D02*
X201145057Y-186385771D01*
X201145057Y-185528629D02*
X201216485Y-185457200D01*
X201359343Y-185385771D01*
X201573628Y-185385771D01*
X201716485Y-185457200D01*
X201787914Y-185600057D01*
X201787914Y-186385771D01*
X202502200Y-186385771D02*
X202502200Y-185385771D01*
X202502200Y-184885771D02*
X202430771Y-184957200D01*
X202502200Y-185028629D01*
X202573628Y-184957200D01*
X202502200Y-184885771D01*
X202502200Y-185028629D01*
X203216486Y-186242914D02*
X203287914Y-186314343D01*
X203216486Y-186385771D01*
X203145057Y-186314343D01*
X203216486Y-186242914D01*
X203216486Y-186385771D01*
X203930772Y-186385771D02*
X203930772Y-184885771D01*
X204073629Y-185814343D02*
X204502200Y-186385771D01*
X204502200Y-185385771D02*
X203930772Y-185957200D01*
X205145058Y-186385771D02*
X205145058Y-185385771D01*
X205145058Y-184885771D02*
X205073629Y-184957200D01*
X205145058Y-185028629D01*
X205216486Y-184957200D01*
X205145058Y-184885771D01*
X205145058Y-185028629D01*
X206502201Y-186314343D02*
X206359344Y-186385771D01*
X206073630Y-186385771D01*
X205930772Y-186314343D01*
X205859344Y-186242914D01*
X205787915Y-186100057D01*
X205787915Y-185671486D01*
X205859344Y-185528629D01*
X205930772Y-185457200D01*
X206073630Y-185385771D01*
X206359344Y-185385771D01*
X206502201Y-185457200D01*
X207787915Y-186385771D02*
X207787915Y-185600057D01*
X207716486Y-185457200D01*
X207573629Y-185385771D01*
X207287915Y-185385771D01*
X207145058Y-185457200D01*
X207787915Y-186314343D02*
X207645058Y-186385771D01*
X207287915Y-186385771D01*
X207145058Y-186314343D01*
X207073629Y-186171486D01*
X207073629Y-186028629D01*
X207145058Y-185885771D01*
X207287915Y-185814343D01*
X207645058Y-185814343D01*
X207787915Y-185742914D01*
X209145058Y-186385771D02*
X209145058Y-184885771D01*
X209145058Y-186314343D02*
X209002201Y-186385771D01*
X208716487Y-186385771D01*
X208573629Y-186314343D01*
X208502201Y-186242914D01*
X208430772Y-186100057D01*
X208430772Y-185671486D01*
X208502201Y-185528629D01*
X208573629Y-185457200D01*
X208716487Y-185385771D01*
X209002201Y-185385771D01*
X209145058Y-185457200D01*
X209502201Y-186528629D02*
X210645058Y-186528629D01*
X211002201Y-185385771D02*
X211002201Y-186885771D01*
X211002201Y-185457200D02*
X211145058Y-185385771D01*
X211430772Y-185385771D01*
X211573629Y-185457200D01*
X211645058Y-185528629D01*
X211716487Y-185671486D01*
X211716487Y-186100057D01*
X211645058Y-186242914D01*
X211573629Y-186314343D01*
X211430772Y-186385771D01*
X211145058Y-186385771D01*
X211002201Y-186314343D01*
X213002201Y-186314343D02*
X212859344Y-186385771D01*
X212573630Y-186385771D01*
X212430772Y-186314343D01*
X212359344Y-186242914D01*
X212287915Y-186100057D01*
X212287915Y-185671486D01*
X212359344Y-185528629D01*
X212430772Y-185457200D01*
X212573630Y-185385771D01*
X212859344Y-185385771D01*
X213002201Y-185457200D01*
X213645058Y-186385771D02*
X213645058Y-184885771D01*
X213645058Y-185457200D02*
X213787915Y-185385771D01*
X214073629Y-185385771D01*
X214216486Y-185457200D01*
X214287915Y-185528629D01*
X214359344Y-185671486D01*
X214359344Y-186100057D01*
X214287915Y-186242914D01*
X214216486Y-186314343D01*
X214073629Y-186385771D01*
X213787915Y-186385771D01*
X213645058Y-186314343D01*
D10*
D11*
X177002200Y-181507200D02*
X285002200Y-181507200D01*
D10*
D11*
X178287914Y-183614343D02*
X178502200Y-183685771D01*
X178859343Y-183685771D01*
X179002200Y-183614343D01*
X179073629Y-183542914D01*
X179145057Y-183400057D01*
X179145057Y-183257200D01*
X179073629Y-183114343D01*
X179002200Y-183042914D01*
X178859343Y-182971486D01*
X178573629Y-182900057D01*
X178430771Y-182828629D01*
X178359343Y-182757200D01*
X178287914Y-182614343D01*
X178287914Y-182471486D01*
X178359343Y-182328629D01*
X178430771Y-182257200D01*
X178573629Y-182185771D01*
X178930771Y-182185771D01*
X179145057Y-182257200D01*
X179787914Y-183685771D02*
X179787914Y-182185771D01*
X180430771Y-183685771D02*
X180430771Y-182900057D01*
X180359342Y-182757200D01*
X180216485Y-182685771D01*
X180002200Y-182685771D01*
X179859342Y-182757200D01*
X179787914Y-182828629D01*
X181716485Y-183614343D02*
X181573628Y-183685771D01*
X181287914Y-183685771D01*
X181145057Y-183614343D01*
X181073628Y-183471486D01*
X181073628Y-182900057D01*
X181145057Y-182757200D01*
X181287914Y-182685771D01*
X181573628Y-182685771D01*
X181716485Y-182757200D01*
X181787914Y-182900057D01*
X181787914Y-183042914D01*
X181073628Y-183185771D01*
X183002199Y-183614343D02*
X182859342Y-183685771D01*
X182573628Y-183685771D01*
X182430771Y-183614343D01*
X182359342Y-183471486D01*
X182359342Y-182900057D01*
X182430771Y-182757200D01*
X182573628Y-182685771D01*
X182859342Y-182685771D01*
X183002199Y-182757200D01*
X183073628Y-182900057D01*
X183073628Y-183042914D01*
X182359342Y-183185771D01*
X183502199Y-182685771D02*
X184073628Y-182685771D01*
X183716485Y-182185771D02*
X183716485Y-183471486D01*
X183787913Y-183614343D01*
X183930771Y-183685771D01*
X184073628Y-183685771D01*
X184573628Y-183542914D02*
X184645056Y-183614343D01*
X184573628Y-183685771D01*
X184502199Y-183614343D01*
X184573628Y-183542914D01*
X184573628Y-183685771D01*
X184573628Y-182757200D02*
X184645056Y-182828629D01*
X184573628Y-182900057D01*
X184502199Y-182828629D01*
X184573628Y-182757200D01*
X184573628Y-182900057D01*
D10*
D11*
X197002200Y-191507200D02*
X197002200Y-194507200D01*
D10*
D11*
X261002200Y-191507200D02*
X261002200Y-198007200D01*
D12*
X116241964Y-92910000D02*
X116956250Y-92910000D01*
X116056250Y-93252857D02*
X116706250Y-92052857D01*
X117056250Y-93252857D01*
X117491964Y-93195714D02*
X117627678Y-93252857D01*
X117913393Y-93252857D01*
X118063393Y-93195714D01*
X118149106Y-93081429D01*
X118156249Y-93024286D01*
X118099107Y-92910000D01*
X117963393Y-92852857D01*
X117749107Y-92852857D01*
X117613393Y-92795714D01*
X117556249Y-92681429D01*
X117563392Y-92624286D01*
X117649107Y-92510000D01*
X117799107Y-92452857D01*
X118013393Y-92452857D01*
X118149107Y-92510000D01*
X118656250Y-92452857D02*
X119227679Y-92452857D01*
X118920536Y-92052857D02*
X118791964Y-93081429D01*
X118849107Y-93195714D01*
X118984822Y-93252857D01*
X119127679Y-93252857D01*
X119627679Y-93252857D02*
X119727679Y-92452857D01*
X119699107Y-92681429D02*
X119784821Y-92567143D01*
X119863393Y-92510000D01*
X120013393Y-92452857D01*
X120156250Y-92452857D01*
X121341964Y-93252857D02*
X120484821Y-93252857D01*
X120913393Y-93252857D02*
X121063393Y-92052857D01*
X120899107Y-92224286D01*
X120741964Y-92338571D01*
X120591964Y-92395714D01*
X121841964Y-93252857D02*
X122727678Y-92452857D01*
X121941964Y-92452857D02*
X122627678Y-93252857D01*
X127770535Y-93252857D02*
X127920535Y-92052857D01*
X128627678Y-93252857D01*
X128777678Y-92052857D01*
X129491964Y-92052857D02*
X129370535Y-93024286D01*
X129427678Y-93138571D01*
X129491964Y-93195714D01*
X129627678Y-93252857D01*
X129913392Y-93252857D01*
X130063393Y-93195714D01*
X130141964Y-93138571D01*
X130227678Y-93024286D01*
X130349107Y-92052857D01*
X131627679Y-93252857D02*
X130913393Y-93252857D01*
X131063393Y-92052857D01*
X132841965Y-93252857D02*
X132127679Y-93252857D01*
X132277679Y-92052857D01*
X133341965Y-93252857D02*
X133441965Y-92452857D01*
X133491965Y-92052857D02*
X133413393Y-92110000D01*
X133477679Y-92167143D01*
X133556250Y-92110000D01*
X133491965Y-92052857D01*
X133477679Y-92167143D01*
X133941965Y-92452857D02*
X134513394Y-92452857D01*
X134056251Y-93252857D02*
X134184822Y-92224286D01*
X134270536Y-92110000D01*
X134420537Y-92052857D01*
X134563394Y-92052857D01*
X134913394Y-93252857D02*
X135013394Y-92452857D01*
X135063394Y-92052857D02*
X134984822Y-92110000D01*
X135049108Y-92167143D01*
X135127679Y-92110000D01*
X135063394Y-92052857D01*
X135049108Y-92167143D01*
X136206251Y-93195714D02*
X136056251Y-93252857D01*
X135770537Y-93252857D01*
X135634823Y-93195714D01*
X135577679Y-93081429D01*
X135634822Y-92624286D01*
X135720537Y-92510000D01*
X135870537Y-92452857D01*
X136156251Y-92452857D01*
X136291965Y-92510000D01*
X136349108Y-92624286D01*
X136334823Y-92738571D01*
X135606251Y-92852857D01*
X137556251Y-93252857D02*
X137706251Y-92052857D01*
X137563394Y-93195714D02*
X137413394Y-93252857D01*
X137127680Y-93252857D01*
X136991965Y-93195714D01*
X136927680Y-93138571D01*
X136870536Y-93024286D01*
X136913393Y-92681429D01*
X136999108Y-92567143D01*
X137077679Y-92510000D01*
X137227680Y-92452857D01*
X137513394Y-92452857D01*
X137649108Y-92510000D01*
D14*
X134100000Y-98850000D02*
X134100000Y-99550000D01*
X132900000Y-99550000D02*
X132900000Y-98850000D01*
X124900000Y-98950000D02*
X124900000Y-99650000D01*
X123700000Y-99650000D02*
X123700000Y-98950000D01*
D15*
X122200280Y-99101880D02*
X122200280Y-99498120D01*
X122200280Y-99498120D02*
X122799720Y-99498120D01*
X122799720Y-99101880D02*
X122799720Y-99498120D01*
X122200280Y-99101880D02*
X122799720Y-99101880D01*
D16*
X122982600Y-97829340D02*
X122982600Y-100770660D01*
X122982600Y-100770660D02*
X122017400Y-100770660D01*
X122017400Y-100770660D02*
X122017400Y-97829340D01*
X122017400Y-97829340D02*
X122982600Y-97829340D01*
D15*
X126198120Y-101500280D02*
X125801880Y-101500280D01*
X125801880Y-101500280D02*
X125801880Y-102099720D01*
X126198120Y-102099720D02*
X125801880Y-102099720D01*
X126198120Y-101500280D02*
X126198120Y-102099720D01*
D16*
X127470660Y-102282600D02*
X124529340Y-102282600D01*
X124529340Y-102282600D02*
X124529340Y-101317400D01*
X124529340Y-101317400D02*
X127470660Y-101317400D01*
X127470660Y-101317400D02*
X127470660Y-102282600D01*
D14*
X130700000Y-121150000D02*
X130700000Y-120450000D01*
X131900000Y-120450000D02*
X131900000Y-121150000D01*
X133100000Y-111850000D02*
X133100000Y-111150000D01*
X134300000Y-111150000D02*
X134300000Y-111850000D01*
X131400000Y-102400000D02*
X131400000Y-101400000D01*
D10*
X130300000Y-102100000D02*
X130300000Y-101700000D01*
X130250000Y-101900000D02*
X129950000Y-102100000D01*
X129950000Y-101700000D02*
X130250000Y-101900000D01*
X129950000Y-102100000D02*
X129950000Y-101700000D01*
D14*
X131400000Y-101400000D02*
X129300000Y-101400000D01*
X131400000Y-102400000D02*
X129300000Y-102400000D01*
D17*
X119530000Y-112285000D02*
X119530000Y-113555000D01*
X119530000Y-113555000D02*
X118895000Y-114190000D01*
X117625000Y-114190000D02*
X116990000Y-113555000D01*
X118895000Y-109110000D02*
X119530000Y-109745000D01*
X119530000Y-109745000D02*
X119530000Y-111015000D01*
X119530000Y-111015000D02*
X118895000Y-111650000D01*
X117625000Y-111650000D02*
X116990000Y-111015000D01*
X116990000Y-111015000D02*
X116990000Y-109745000D01*
X116990000Y-109745000D02*
X117625000Y-109110000D01*
X119530000Y-112285000D02*
X118895000Y-111650000D01*
X117625000Y-111650000D02*
X116990000Y-112285000D01*
X116990000Y-113555000D02*
X116990000Y-112285000D01*
X119530000Y-104665000D02*
X119530000Y-105935000D01*
X119530000Y-105935000D02*
X118895000Y-106570000D01*
X117625000Y-106570000D02*
X116990000Y-105935000D01*
X118895000Y-106570000D02*
X119530000Y-107205000D01*
X119530000Y-107205000D02*
X119530000Y-108475000D01*
X119530000Y-108475000D02*
X118895000Y-109110000D01*
X117625000Y-109110000D02*
X116990000Y-108475000D01*
X116990000Y-108475000D02*
X116990000Y-107205000D01*
X116990000Y-107205000D02*
X117625000Y-106570000D01*
X118895000Y-101490000D02*
X119530000Y-102125000D01*
X119530000Y-102125000D02*
X119530000Y-103395000D01*
X119530000Y-103395000D02*
X118895000Y-104030000D01*
X117625000Y-104030000D02*
X116990000Y-103395000D01*
X116990000Y-103395000D02*
X116990000Y-102125000D01*
X116990000Y-102125000D02*
X117625000Y-101490000D01*
X119530000Y-104665000D02*
X118895000Y-104030000D01*
X117625000Y-104030000D02*
X116990000Y-104665000D01*
X116990000Y-105935000D02*
X116990000Y-104665000D01*
X119530000Y-97045000D02*
X119530000Y-98315000D01*
X119530000Y-98315000D02*
X118895000Y-98950000D01*
X117625000Y-98950000D02*
X116990000Y-98315000D01*
X118895000Y-98950000D02*
X119530000Y-99585000D01*
X119530000Y-99585000D02*
X119530000Y-100855000D01*
X119530000Y-100855000D02*
X118895000Y-101490000D01*
X117625000Y-101490000D02*
X116990000Y-100855000D01*
X116990000Y-100855000D02*
X116990000Y-99585000D01*
X116990000Y-99585000D02*
X117625000Y-98950000D01*
X118895000Y-96410000D02*
X117625000Y-96410000D01*
X119530000Y-97045000D02*
X118895000Y-96410000D01*
X117625000Y-96410000D02*
X116990000Y-97045000D01*
X116990000Y-98315000D02*
X116990000Y-97045000D01*
X119530000Y-114825000D02*
X119530000Y-116095000D01*
X119530000Y-116095000D02*
X118895000Y-116730000D01*
X117625000Y-116730000D02*
X116990000Y-116095000D01*
X119530000Y-114825000D02*
X118895000Y-114190000D01*
X117625000Y-114190000D02*
X116990000Y-114825000D01*
X116990000Y-116095000D02*
X116990000Y-114825000D01*
X119530000Y-117365000D02*
X119530000Y-118635000D01*
X119530000Y-118635000D02*
X118895000Y-119270000D01*
X117625000Y-119270000D02*
X116990000Y-118635000D01*
X119530000Y-117365000D02*
X118895000Y-116730000D01*
X117625000Y-116730000D02*
X116990000Y-117365000D01*
X116990000Y-118635000D02*
X116990000Y-117365000D01*
X119530000Y-119905000D02*
X119530000Y-121175000D01*
X119530000Y-121175000D02*
X118895000Y-121810000D01*
X118895000Y-121810000D02*
X117625000Y-121810000D01*
X117625000Y-121810000D02*
X116990000Y-121175000D01*
X119530000Y-119905000D02*
X118895000Y-119270000D01*
X117625000Y-119270000D02*
X116990000Y-119905000D01*
X116990000Y-121175000D02*
X116990000Y-119905000D01*
X137330000Y-112385000D02*
X137330000Y-113655000D01*
X137330000Y-113655000D02*
X136695000Y-114290000D01*
X135425000Y-114290000D02*
X134790000Y-113655000D01*
X136695000Y-109210000D02*
X137330000Y-109845000D01*
X137330000Y-109845000D02*
X137330000Y-111115000D01*
X137330000Y-111115000D02*
X136695000Y-111750000D01*
X135425000Y-111750000D02*
X134790000Y-111115000D01*
X134790000Y-111115000D02*
X134790000Y-109845000D01*
X134790000Y-109845000D02*
X135425000Y-109210000D01*
X137330000Y-112385000D02*
X136695000Y-111750000D01*
X135425000Y-111750000D02*
X134790000Y-112385000D01*
X134790000Y-113655000D02*
X134790000Y-112385000D01*
X137330000Y-104765000D02*
X137330000Y-106035000D01*
X137330000Y-106035000D02*
X136695000Y-106670000D01*
X135425000Y-106670000D02*
X134790000Y-106035000D01*
X136695000Y-106670000D02*
X137330000Y-107305000D01*
X137330000Y-107305000D02*
X137330000Y-108575000D01*
X137330000Y-108575000D02*
X136695000Y-109210000D01*
X135425000Y-109210000D02*
X134790000Y-108575000D01*
X134790000Y-108575000D02*
X134790000Y-107305000D01*
X134790000Y-107305000D02*
X135425000Y-106670000D01*
X136695000Y-101590000D02*
X137330000Y-102225000D01*
X137330000Y-102225000D02*
X137330000Y-103495000D01*
X137330000Y-103495000D02*
X136695000Y-104130000D01*
X135425000Y-104130000D02*
X134790000Y-103495000D01*
X134790000Y-103495000D02*
X134790000Y-102225000D01*
X134790000Y-102225000D02*
X135425000Y-101590000D01*
X137330000Y-104765000D02*
X136695000Y-104130000D01*
X135425000Y-104130000D02*
X134790000Y-104765000D01*
X134790000Y-106035000D02*
X134790000Y-104765000D01*
X137330000Y-97145000D02*
X137330000Y-98415000D01*
X137330000Y-98415000D02*
X136695000Y-99050000D01*
X135425000Y-99050000D02*
X134790000Y-98415000D01*
X136695000Y-99050000D02*
X137330000Y-99685000D01*
X137330000Y-99685000D02*
X137330000Y-100955000D01*
X137330000Y-100955000D02*
X136695000Y-101590000D01*
X135425000Y-101590000D02*
X134790000Y-100955000D01*
X134790000Y-100955000D02*
X134790000Y-99685000D01*
X134790000Y-99685000D02*
X135425000Y-99050000D01*
X136695000Y-96510000D02*
X135425000Y-96510000D01*
X137330000Y-97145000D02*
X136695000Y-96510000D01*
X135425000Y-96510000D02*
X134790000Y-97145000D01*
X134790000Y-98415000D02*
X134790000Y-97145000D01*
X137330000Y-114925000D02*
X137330000Y-116195000D01*
X137330000Y-116195000D02*
X136695000Y-116830000D01*
X135425000Y-116830000D02*
X134790000Y-116195000D01*
X137330000Y-114925000D02*
X136695000Y-114290000D01*
X135425000Y-114290000D02*
X134790000Y-114925000D01*
X134790000Y-116195000D02*
X134790000Y-114925000D01*
X137330000Y-117465000D02*
X137330000Y-118735000D01*
X137330000Y-118735000D02*
X136695000Y-119370000D01*
X135425000Y-119370000D02*
X134790000Y-118735000D01*
X137330000Y-117465000D02*
X136695000Y-116830000D01*
X135425000Y-116830000D02*
X134790000Y-117465000D01*
X134790000Y-118735000D02*
X134790000Y-117465000D01*
X137330000Y-120005000D02*
X137330000Y-121275000D01*
X137330000Y-121275000D02*
X136695000Y-121910000D01*
X136695000Y-121910000D02*
X135425000Y-121910000D01*
X135425000Y-121910000D02*
X134790000Y-121275000D01*
X137330000Y-120005000D02*
X136695000Y-119370000D01*
X135425000Y-119370000D02*
X134790000Y-120005000D01*
X134790000Y-121275000D02*
X134790000Y-120005000D01*
X132340000Y-95175000D02*
X132975000Y-94540000D01*
X132975000Y-94540000D02*
X134245000Y-94540000D01*
X134245000Y-94540000D02*
X134880000Y-95175000D01*
X134880000Y-96445000D02*
X134245000Y-97080000D01*
X134245000Y-97080000D02*
X132975000Y-97080000D01*
X132975000Y-97080000D02*
X132340000Y-96445000D01*
X127895000Y-94540000D02*
X129165000Y-94540000D01*
X129165000Y-94540000D02*
X129800000Y-95175000D01*
X129800000Y-96445000D02*
X129165000Y-97080000D01*
X129800000Y-95175000D02*
X130435000Y-94540000D01*
X130435000Y-94540000D02*
X131705000Y-94540000D01*
X131705000Y-94540000D02*
X132340000Y-95175000D01*
X132340000Y-96445000D02*
X131705000Y-97080000D01*
X131705000Y-97080000D02*
X130435000Y-97080000D01*
X130435000Y-97080000D02*
X129800000Y-96445000D01*
X124720000Y-95175000D02*
X125355000Y-94540000D01*
X125355000Y-94540000D02*
X126625000Y-94540000D01*
X126625000Y-94540000D02*
X127260000Y-95175000D01*
X127260000Y-96445000D02*
X126625000Y-97080000D01*
X126625000Y-97080000D02*
X125355000Y-97080000D01*
X125355000Y-97080000D02*
X124720000Y-96445000D01*
X127895000Y-94540000D02*
X127260000Y-95175000D01*
X127260000Y-96445000D02*
X127895000Y-97080000D01*
X129165000Y-97080000D02*
X127895000Y-97080000D01*
X120275000Y-94540000D02*
X121545000Y-94540000D01*
X121545000Y-94540000D02*
X122180000Y-95175000D01*
X122180000Y-96445000D02*
X121545000Y-97080000D01*
X122180000Y-95175000D02*
X122815000Y-94540000D01*
X122815000Y-94540000D02*
X124085000Y-94540000D01*
X124085000Y-94540000D02*
X124720000Y-95175000D01*
X124720000Y-96445000D02*
X124085000Y-97080000D01*
X124085000Y-97080000D02*
X122815000Y-97080000D01*
X122815000Y-97080000D02*
X122180000Y-96445000D01*
X119640000Y-95175000D02*
X119640000Y-96445000D01*
X120275000Y-94540000D02*
X119640000Y-95175000D01*
X119640000Y-96445000D02*
X120275000Y-97080000D01*
X121545000Y-97080000D02*
X120275000Y-97080000D01*
X134880000Y-95175000D02*
X134880000Y-96445000D01*
D15*
X129398120Y-102900280D02*
X129001880Y-102900280D01*
X129001880Y-102900280D02*
X129001880Y-103499720D01*
X129398120Y-103499720D02*
X129001880Y-103499720D01*
X129398120Y-102900280D02*
X129398120Y-103499720D01*
D16*
X130670660Y-103682600D02*
X127729340Y-103682600D01*
X127729340Y-103682600D02*
X127729340Y-102717400D01*
X127729340Y-102717400D02*
X130670660Y-102717400D01*
X130670660Y-102717400D02*
X130670660Y-103682600D01*
D14*
X133500000Y-117480000D02*
X132500000Y-117480000D01*
X132500000Y-116120000D02*
X133500000Y-116120000D01*
X129900000Y-105380000D02*
X128900000Y-105380000D01*
X128900000Y-104020000D02*
X129900000Y-104020000D01*
X125600000Y-104020000D02*
X126600000Y-104020000D01*
X126600000Y-105380000D02*
X125600000Y-105380000D01*
D18*
X126110000Y-120460000D02*
X126110000Y-120940000D01*
X126290000Y-120460000D02*
X126290000Y-120930000D01*
X126200000Y-120450000D02*
X126200000Y-120940000D01*
X124700000Y-120450000D02*
X127690000Y-120450000D01*
X127690000Y-120450000D02*
X127690000Y-120940000D01*
X127690000Y-120940000D02*
X124690000Y-120950000D01*
X124690000Y-120950000D02*
X124690000Y-120450000D01*
X128810000Y-121140000D02*
X128810000Y-121890000D01*
X128810000Y-121890000D02*
X123580000Y-121890000D01*
X123580000Y-121890000D02*
X123580000Y-121150000D01*
X128890000Y-119430000D02*
X128890000Y-120260000D01*
X123560000Y-120220000D02*
X123560000Y-119500000D01*
X123560000Y-119500000D02*
X128810000Y-119500000D01*
X128810000Y-119500000D02*
X128810000Y-120260000D01*
X123500000Y-120210000D02*
X123500000Y-119440000D01*
X123500000Y-119440000D02*
X128890000Y-119430000D01*
X123500000Y-121960000D02*
X123500000Y-121140000D01*
X123500000Y-121960000D02*
X128890000Y-121970000D01*
X128890000Y-121970000D02*
X128890000Y-121150000D01*
D19*
X130902660Y-107897340D02*
X130902660Y-114902660D01*
X130902660Y-114902660D02*
X123897340Y-114902660D01*
X123897340Y-114902660D02*
X123897340Y-108250400D01*
X124250400Y-107897340D02*
X130902660Y-107897340D01*
X124250400Y-107897340D02*
X123897340Y-108250400D01*
X125014940Y-108656800D02*
G75*
G03X125014940Y-108656800I-358140J0D01*
G01*
D18*
X132030000Y-100920000D02*
X128410000Y-100920000D01*
X128410000Y-100920000D02*
X128420000Y-97700000D01*
X128420000Y-97700000D02*
X132010000Y-97710000D01*
X132010000Y-97710000D02*
X132010000Y-100900000D01*
X132050000Y-100900000D02*
X132050000Y-100960000D01*
X132050000Y-100960000D02*
X128390000Y-100950000D01*
X132050000Y-100910000D02*
X132040000Y-97690000D01*
X132040000Y-97690000D02*
X131090000Y-97680000D01*
X131090000Y-97680000D02*
X128390000Y-97680000D01*
X128390000Y-97680000D02*
X128390000Y-100920000D01*
D17*
X121747700Y-107198320D02*
X120452300Y-107198320D01*
X120452300Y-103601680D02*
X121747700Y-103601680D01*
D20*
X125460001Y-111627733D02*
X125698096Y-111627733D01*
X125412382Y-111743848D02*
X125579049Y-111337448D01*
X125745715Y-111743848D01*
X125840953Y-111337448D02*
X126126667Y-111337448D01*
X125983810Y-111743848D02*
X125983810Y-111337448D01*
X126293334Y-111743848D02*
X126293334Y-111337448D01*
X126460000Y-111627733D01*
X126626667Y-111337448D01*
X126626667Y-111743848D01*
X126864763Y-111530971D02*
X127031429Y-111530971D01*
X127102858Y-111743848D02*
X126864763Y-111743848D01*
X126864763Y-111337448D01*
X127102858Y-111337448D01*
X127579048Y-111356800D02*
X127531429Y-111337448D01*
X127460001Y-111337448D01*
X127388572Y-111356800D01*
X127340953Y-111395505D01*
X127317144Y-111434210D01*
X127293334Y-111511619D01*
X127293334Y-111569676D01*
X127317144Y-111647086D01*
X127340953Y-111685790D01*
X127388572Y-111724495D01*
X127460001Y-111743848D01*
X127507620Y-111743848D01*
X127579048Y-111724495D01*
X127602858Y-111705143D01*
X127602858Y-111569676D01*
X127507620Y-111569676D01*
X127793334Y-111627733D02*
X128031429Y-111627733D01*
X127745715Y-111743848D02*
X127912382Y-111337448D01*
X128079048Y-111743848D01*
X128198096Y-111337448D02*
X128507619Y-111337448D01*
X128340953Y-111492267D01*
X128412381Y-111492267D01*
X128460000Y-111511619D01*
X128483810Y-111530971D01*
X128507619Y-111569676D01*
X128507619Y-111666438D01*
X128483810Y-111705143D01*
X128460000Y-111724495D01*
X128412381Y-111743848D01*
X128269524Y-111743848D01*
X128221905Y-111724495D01*
X128198096Y-111705143D01*
X128698095Y-111376152D02*
X128721905Y-111356800D01*
X128769524Y-111337448D01*
X128888571Y-111337448D01*
X128936190Y-111356800D01*
X128960000Y-111376152D01*
X128983809Y-111414857D01*
X128983809Y-111453562D01*
X128960000Y-111511619D01*
X128674286Y-111743848D01*
X128983809Y-111743848D01*
X129269523Y-111511619D02*
X129221904Y-111492267D01*
X129198095Y-111472914D01*
X129174285Y-111434210D01*
X129174285Y-111414857D01*
X129198095Y-111376152D01*
X129221904Y-111356800D01*
X129269523Y-111337448D01*
X129364761Y-111337448D01*
X129412380Y-111356800D01*
X129436190Y-111376152D01*
X129459999Y-111414857D01*
X129459999Y-111434210D01*
X129436190Y-111472914D01*
X129412380Y-111492267D01*
X129364761Y-111511619D01*
X129269523Y-111511619D01*
X129221904Y-111530971D01*
X129198095Y-111550324D01*
X129174285Y-111589029D01*
X129174285Y-111666438D01*
X129198095Y-111705143D01*
X129221904Y-111724495D01*
X129269523Y-111743848D01*
X129364761Y-111743848D01*
X129412380Y-111724495D01*
X129436190Y-111705143D01*
X129459999Y-111666438D01*
X129459999Y-111589029D01*
X129436190Y-111550324D01*
X129412380Y-111530971D01*
X129364761Y-111511619D01*
M02*
